<svg height="512" viewBox="0 0 64 64" width="512" xmlns="http://www.w3.org/2000/svg" xmlns:xlink="http://www.w3.org/1999/xlink"><linearGradient id="New_Gradient_Swatch" gradientUnits="userSpaceOnUse" x1="32" x2="32" y1="62.117" y2="3.926"><stop offset="0" stop-color="#e93e3a"/><stop offset=".35" stop-color="#ed683c"/><stop offset=".7" stop-color="#f3903f"/><stop offset="1" stop-color="#fdc70c"/></linearGradient><linearGradient id="New_Gradient_Swatch-2" x1="58" x2="58" xlink:href="#New_Gradient_Swatch" y1="62.117" y2="3.926"/><linearGradient id="New_Gradient_Swatch-5" x1="47.5" x2="47.5" xlink:href="#New_Gradient_Swatch" y1="62.117" y2="3.926"/><linearGradient id="New_Gradient_Swatch-6" x1="47.146" x2="47.146" xlink:href="#New_Gradient_Swatch" y1="62.117" y2="3.926"/><linearGradient id="New_Gradient_Swatch-8" x1="6" x2="6" xlink:href="#New_Gradient_Swatch" y1="62.117" y2="3.926"/><linearGradient id="New_Gradient_Swatch-11" x1="16.5" x2="16.5" xlink:href="#New_Gradient_Swatch" y1="62.117" y2="3.926"/><linearGradient id="New_Gradient_Swatch-12" x1="16.854" x2="16.854" xlink:href="#New_Gradient_Swatch" y1="62.117" y2="3.926"/><g id="Skill-2" data-name="Skill"><path d="m35 19.071v-1.1a4.977 4.977 0 0 0 2-3.971v-1.764l.9-1.789a1 1 0 0 0 .1-.447v-1a3 3 0 0 0 -3-3h-9a1 1 0 0 0 -.895 1.447l.895 1.789v1.764a1 1 0 0 0 .293.707l.707.707v1.586a4.977 4.977 0 0 0 2 3.974v1.1a7.011 7.011 0 0 0 -6 6.926v7.5a2.5 2.5 0 0 0 3 2.449v16.051a3 3 0 0 0 -3 3v2a1 1 0 0 0 1 1h6a1 1 0 0 0 .447-.1l1.553-.782 1.553.777a1 1 0 0 0 .447.105h6a1 1 0 0 0 1-1v-2a3 3 0 0 0 -3-3v-16.051a2.5 2.5 0 0 0 3-2.449v-7.5a7.011 7.011 0 0 0 -6-6.929zm-3-2.071a3 3 0 0 1 -3-3v-1h2a1 1 0 0 0 .707-.293l1.42-1.42 1.873 1.248v1.465a3 3 0 0 1 -3 3zm3-9a1 1 0 0 1 1 1v.764l-.388.776-2.057-1.372a1 1 0 0 0 -1.262.125l-1.707 1.707h-2.172l-.414-.414v-1.586a1 1 0 0 0 -.105-.447l-.277-.553zm-3 11a5 5 0 0 0 1-.1v.687l-1 1-1-1v-.687a5 5 0 0 0 1 .1zm-6.5 15a.5.5 0 0 1 -.5-.5v-1.5h1v1.5a.5.5 0 0 1 -.5.5zm4.264 22h-4.764v-1a1 1 0 0 1 1-1h5v1.382zm9.236-1v1h-4.764l-1.236-.618v-1.382h5a1 1 0 0 1 1 1zm-6-3v-12h-2v12h-3v-16h8v16zm5.5-18a.5.5 0 0 1 -.5-.5v-1.5h1v1.5a.5.5 0 0 1 -.5.5zm.5-4h-1v-5h-2v9h-8v-9h-2v5h-1v-4a4.991 4.991 0 0 1 4.624-4.962l1.669 1.669a1 1 0 0 0 1.414 0l1.669-1.669a4.991 4.991 0 0 1 4.624 4.962z" fill="url(#New_Gradient_Swatch)"/><g fill="url(#New_Gradient_Swatch-2)"><path d="m60 6h-4a2 2 0 0 0 -2 2v4a2 2 0 0 0 2 2h4a2 2 0 0 0 2-2v-4a2 2 0 0 0 -2-2zm0 6h-4v-4h4z"/><path d="m60 50h-4a2 2 0 0 0 -2 2v4a2 2 0 0 0 2 2h4a2 2 0 0 0 2-2v-4a2 2 0 0 0 -2-2zm0 6h-4v-4h4z"/><path d="m60 28h-4a2 2 0 0 0 -2 2v4a2 2 0 0 0 2 2h4a2 2 0 0 0 2-2v-4a2 2 0 0 0 -2-2zm0 6h-4v-4h4z"/></g><path d="m43 31h9v2h-9z" fill="url(#New_Gradient_Swatch-5)"/><path d="m45.293 9.293-3 3 1.414 1.414 2.707-2.707h5.586v-2h-6a1 1 0 0 0 -.707.293z" fill="url(#New_Gradient_Swatch-6)"/><path d="m43.707 50.293-1.414 1.414 3 3a1 1 0 0 0 .707.293h6v-2h-5.586z" fill="url(#New_Gradient_Swatch-6)"/><path d="m8 6h-4a2 2 0 0 0 -2 2v4a2 2 0 0 0 2 2h4a2 2 0 0 0 2-2v-4a2 2 0 0 0 -2-2zm-4 6v-4h4v4z" fill="url(#New_Gradient_Swatch-8)"/><path d="m8 50h-4a2 2 0 0 0 -2 2v4a2 2 0 0 0 2 2h4a2 2 0 0 0 2-2v-4a2 2 0 0 0 -2-2zm-4 6v-4h4v4z" fill="url(#New_Gradient_Swatch-8)"/><path d="m8 28h-4a2 2 0 0 0 -2 2v4a2 2 0 0 0 2 2h4a2 2 0 0 0 2-2v-4a2 2 0 0 0 -2-2zm-4 6v-4h4v4z" fill="url(#New_Gradient_Swatch-8)"/><path d="m12 31h9v2h-9z" fill="url(#New_Gradient_Swatch-11)"/><path d="m18 9h-6v2h5.586l2.707 2.707 1.414-1.414-3-3a1 1 0 0 0 -.707-.293z" fill="url(#New_Gradient_Swatch-12)"/><path d="m17.586 53h-5.586v2h6a1 1 0 0 0 .707-.293l3-3-1.414-1.414z" fill="url(#New_Gradient_Swatch-12)"/></g></svg>