<svg height="479pt" viewBox="0 -7 479.95231 479" width="479pt" xmlns="http://www.w3.org/2000/svg"><path d="m239.066406 333.375c-23.300781 0-47.699218-5.898438-70.300781-17.199219-23.207031-11.472656-43.515625-28.054687-59.398437-48.5-2.347657-3.066406-1.765626-7.453125 1.300781-9.800781 3.0625-2.347656 7.453125-1.765625 9.800781 1.300781 28.199219 36.601563 74.796875 60.199219 118.699219 60.199219 32.5 0 66.800781-12.800781 94.097656-35 29.902344-24.398438 48.800781-58.300781 53.300781-95.398438.46875-3.839843 3.960938-6.570312 7.800782-6.101562 3.839843.46875 6.570312 3.960938 6.101562 7.800781-4.902344 40.800781-25.601562 77.898438-58.300781 104.601563-29.902344 24.199218-67.402344 38.097656-103.101563 38.097656zm0 0" fill="#fedb41"/><path d="m363.867188 77.476562c-2.160157.035157-4.207032-.96875-5.5-2.699218-28.199219-36.601563-74.800782-60.203125-118.699219-60.203125-3.867188 0-7-3.132813-7-7 0-3.863281 3.132812-7 7-7 23.300781 0 47.699219 5.902343 70.300781 17.203125 23.207031 11.472656 43.515625 28.054687 59.398438 48.5 1.152343 1.460937 1.664062 3.328125 1.417968 5.171875-.246094 1.847656-1.226562 3.515625-2.71875 4.625-1.191406.949219-2.679687 1.445312-4.199218 1.402343zm0 0" fill="#fedb41"/><path d="m85.265625 151.175781c-.269531.023438-.542969-.011719-.796875-.101562-1.847656-.21875-3.527344-1.167969-4.671875-2.632813-1.144531-1.460937-1.660156-3.320312-1.429687-5.164062 4.898437-40.800782 25.601562-77.902344 58.300781-104.601563 29.800781-24.300781 67.300781-38.199219 103-38.199219 3.863281 0 7 3.132813 7 7 0 3.867188-3.136719 7-7 7-32.5 0-66.800781 12.800782-94.101563 35-29.898437 24.398438-48.800781 58.300782-53.300781 95.398438-.402344 3.570312-3.40625 6.273438-7 6.300781zm0 0" fill="#fedb41"/><path d="m288.46875 398.976562h81.097656v14h-81.097656zm0 0" fill="#00efd1"/><path d="m108.765625 398.976562h70.300781v14h-70.300781zm0 0" fill="#00efd1"/><path d="m369.566406 406.074219c2.558594-29.9375 28.5625-52.355469 58.550782-50.476563 29.992187 1.882813 52.992187 27.371094 51.789062 57.394532-1.199219 30.027343-26.160156 53.597656-56.207031 53.078124-30.042969-.523437-54.171875-24.945312-54.332031-54.996093-.03125-1.667969.035156-3.335938.199218-5zm0 0" fill="#87e680"/><path d="m394.566406 123.277344 44.800782 65h-89.601563zm0 0" fill="#00efd1"/><path d="m294.367188 169.574219c-.027344 14.125-5.425782 27.710937-15.101563 38-10 10.5-14.699219 23.800781-12.796875 38v.203125h-54.703125c1.863281-14.050782-2.773437-28.1875-12.597656-38.402344-9.863281-10.4375-15.21875-24.339844-14.902344-38.699219.5-29.101562 25.203125-53.800781 54.300781-54.300781 14.75-.179688 28.957032 5.558594 39.445313 15.933594 10.484375 10.371094 16.378906 24.515625 16.355469 39.265625zm0 0" fill="#00efd1"/><path d="m288.46875 406.375c.097656 1.601562.199219 3.101562.199219 4.800781 0 30.375-24.625 55-55 55s-55-24.625-55-55c0-1.699219.097656-3.398437.199219-5 2.601562-28.359375 26.414062-50.046875 54.890624-49.996093 28.480469.054687 52.210938 21.828124 54.710938 50.195312zm0 0" fill="#ea5281"/><path d="m128.96875 145.777344-44.800781 64.898437-44.800781-64.898437zm0 0" fill="#00efd1"/><path d="m109.167969 406.074219c.164062 1.664062.230469 3.332031.199219 5-.171876 29.714843-24.039063 53.851562-53.75 54.359375-29.707032.511718-54.386719-22.796875-55.5742192-52.488282-1.1874998-29.691406 21.5507812-54.894531 51.2070312-56.761718 29.652344-1.867188 55.371094 20.289062 57.917969 49.890625zm0 0" fill="#87e680"/><path d="m243.566406 410.976562 7.5-7.5c2.734375-2.734374 2.734375-7.167968 0-9.902343-2.734375-2.730469-7.164062-2.730469-9.898437 0l-7.5 7.5-7.5-7.5c-2.734375-2.730469-7.167969-2.730469-9.902344 0-2.730469 2.734375-2.730469 7.167969 0 9.902343l7.5 7.5-7.5 7.5c-2.699219 2.746094-2.699219 7.152344 0 9.898438 1.332031 1.3125 3.132813 2.035156 5 2 1.859375-.011719 3.644531-.726562 5-2l7.5-7.5 7.5 7.5c2.761719 2.667969 7.140625 2.667969 9.902344 0 2.699219-2.746094 2.699219-7.152344 0-9.898438zm0 0" fill="#fedb41"/><path d="m48.066406 430.375c-1.953125.007812-3.8125-.832031-5.097656-2.300781l-14.300781-15.5c-2.625-2.84375-2.445313-7.273438.398437-9.898438 2.84375-2.621093 7.277344-2.445312 9.902344.398438l9.5 10.300781 21.898438-20c2.84375-2.621094 7.277343-2.441406 9.898437.402344 2.625 2.84375 2.445313 7.277344-.398437 9.898437l-27 24.699219c-1.285157 1.257812-3.003907 1.976562-4.800782 2zm0 0" fill="#fedb41"/><path d="m417.96875 430.375c-1.953125.007812-3.8125-.832031-5.101562-2.300781l-14.300782-15.5c-2.621094-2.84375-2.445312-7.273438.402344-9.898438 2.84375-2.621093 7.273438-2.445312 9.898438.398438l9.5 10.300781 21.898437-20c2.847656-2.621094 7.277344-2.441406 9.902344.402344 2.621093 2.84375 2.445312 7.277344-.402344 9.898437l-27 24.699219c-1.261719 1.289062-2.992187 2.011719-4.796875 2zm0 0" fill="#fedb41"/><g fill="#00acea"><path d="m272.867188 252.777344h-67.101563c-3.863281 0-7-3.136719-7-7 0-3.867188 3.136719-7 7-7h67.101563c3.867187 0 7 3.132812 7 7 0 3.863281-3.132813 7-7 7zm0 0"/><path d="m259.867188 276.074219h-41c-3.867188 0-7-3.132813-7-7 0-3.863281 3.132812-7 7-7h41c3.867187 0 7 3.136719 7 7 0 3.867187-3.132813 7-7 7zm0 0"/><path d="m237.96875 94.777344c-1.863281.011718-3.648438-.722656-4.964844-2.039063-1.316406-1.316406-2.046875-3.101562-2.035156-4.960937v-22.800782c0-3.867187 3.132812-7 7-7 3.863281 0 7 3.132813 7 7v22.800782c.011719 1.859375-.722656 3.644531-2.039062 4.960937-1.316407 1.316407-3.101563 2.050781-4.960938 2.039063zm0 0"/><path d="m294.066406 119.277344c-1.933594.023437-3.789062-.777344-5.097656-2.203125-1.28125-1.347657-1.96875-3.152344-1.914062-5.011719.058593-1.859375.851562-3.617188 2.210937-4.886719l16.800781-15.800781c2.816406-2.648438 7.25-2.515625 9.902344.300781 2.648438 2.816407 2.515625 7.25-.300781 9.898438l-16.800781 15.800781c-1.304688 1.214844-3.019532 1.894531-4.800782 1.902344zm0 0"/><path d="m183.96875 117.175781c-1.882812-.003906-3.683594-.761719-5-2.101562l-16.101562-16.296875c-2.707032-2.761719-2.660157-7.195313.101562-9.902344 2.757812-2.703125 7.191406-2.660156 9.898438.101562l16.101562 16.300782c1.304688 1.320312 2.03125 3.109375 2.011719 4.96875s-.78125 3.632812-2.113281 4.929687c-1.328126 1.253907-3.074219 1.96875-4.898438 2zm0 0"/></g></svg>