<svg height="512" viewBox="0 0 64 64" width="512" xmlns="http://www.w3.org/2000/svg"><g id="Twotone"><g id="Color_copy_2" data-name="Color copy 2"><g><g><g fill="#cff09e"><path d="m38.732 9.817a11.453 11.453 0 0 1 3.089-.382l.99-1.714a15.881 15.881 0 0 0 -3.084-.3 15.467 15.467 0 0 0 -4.04.538 27.545 27.545 0 0 0 -6.838 2.893l2.451 2.448a23.752 23.752 0 0 1 7.432-3.483z"/><path d="m55 36.007c0-5.348-.007-14.176-.009-14.219a14.753 14.753 0 0 0 -6.591-11.744l-.636 1.1a10.746 10.746 0 0 1 5.23 8.788v.066h.006v21.302a11.966 11.966 0 0 0 4 .7 3.961 3.961 0 0 0 1.64-.36 3.961 3.961 0 0 0 .36-1.64 4 4 0 0 1 -4-3.993z"/></g><circle cx="35" cy="19" fill="#a8dba8" r="2"/><g fill="#cff09e"><path d="m44.8 8-2.38 4.13a4.134 4.134 0 0 0 5.647-1.513l3.167-5.486a6 6 0 0 0 -6.434 2.869z"/><path d="m48.5 36.524.24-5.049a4.611 4.611 0 0 0 -5.178-4.8 4.612 4.612 0 0 1 -4.173-1.7l-.165-.207a4.612 4.612 0 0 0 -5.474-1.333l-2.433 1.081a4.611 4.611 0 0 1 -5.528-1.4l-1.917-2.492-4.872 5.399 3.778 7.556 11.961-4.267a11.269 11.269 0 0 0 6.261 2.35v.469a10.162 10.162 0 0 1 -5.5 9.029 10.162 10.162 0 0 0 -5.5 9.03v4.81h23v-9.651a9.982 9.982 0 0 1 -4.5-8.825z"/><path d="m29 55h-1a3 3 0 0 0 -3 3v3h34v-3h-27a3 3 0 0 1 -3-3z"/></g></g><g><path d="m37.535 61a2.7 2.7 0 0 1 -2.6-3.41l2.065-7.59h4l-.777 8.545a2.7 2.7 0 0 1 -2.688 2.455z" fill="#a8dba8"/><path d="m26.191 38.265-1.191-.265v14l1.191-.265a72.9 72.9 0 0 1 15.809-1.735v-10a72.9 72.9 0 0 1 -15.809-1.735z" fill="#79bd9a"/><path d="m42 40h1a5 5 0 0 1 5 5 5 5 0 0 1 -5 5h-1a0 0 0 0 1 0 0v-10a0 0 0 0 1 0 0z" fill="#a8dba8"/></g><g fill="#a8dba8"><path d="m15 24h-6l3-4z"/><path d="m9 53h-6l3-4z"/><path d="m18 8-5-5h5z"/></g></g></g><g id="Stroke_Close_copy" data-name="Stroke Close copy"><g fill="#3b8686"><path d="m57 43a5.006 5.006 0 0 0 5-5 1 1 0 0 0 -1-1 3 3 0 0 1 -3-2.994c0-.141 0-14.163-.01-14.255a15.765 15.765 0 0 0 -6.869-12.423l1.745-3.023a1 1 0 0 0 -.366-1.367 7.008 7.008 0 0 0 -8.891 1.61 16.164 16.164 0 0 0 -1.882-.13 16.455 16.455 0 0 0 -4.3.573 28.571 28.571 0 0 0 -9.581 4.646 1 1 0 0 0 -.113 1.51l2.047 2.046a24.765 24.765 0 0 0 -3.209 2.957l-8.313 9.2a1 1 0 0 0 -.153 1.118l3.778 7.555a1 1 0 0 0 1.23.495l11.46-4.088a12.241 12.241 0 0 0 5.416 2.135 9.131 9.131 0 0 1 -2.926 6.241 72.022 72.022 0 0 1 -10.656-1.52l-1.19-.265a1 1 0 0 0 -1.217.979v14a1 1 0 0 0 1.217.976l1.19-.265c.859-.19 1.727-.342 2.593-.5v1.789h-1a4 4 0 0 0 -4 4v3a1 1 0 0 0 1 1h34a1 1 0 0 0 1-1v-3a4 4 0 0 0 -4-4h-2v-11.367a12.828 12.828 0 0 0 3 .367zm-1.011-23.2c0 .221.007 8.917.009 14.206a5.007 5.007 0 0 0 3.873 4.865 3 3 0 0 1 -2.871 2.129 10.852 10.852 0 0 1 -3-.435v-20.565a.932.932 0 0 0 -.01-.14 11.767 11.767 0 0 0 -4.9-9.024l1.01-1.748a13.741 13.741 0 0 1 5.889 10.712zm-26-9.23a26.555 26.555 0 0 1 7.964-3.65 14.459 14.459 0 0 1 3.778-.5c.212 0 .441.016.665.028l-1.153 2a12.244 12.244 0 0 0 -2.768.409 24.692 24.692 0 0 0 -7.04 3.165zm-3.989 40.183v-11.506a73.994 73.994 0 0 0 15 1.746v4.007h-4a1 1 0 0 0 0 2h4v2.007a73.994 73.994 0 0 0 -15 1.746zm17-9.753a4 4 0 0 1 0 8v-4h1a1 1 0 0 0 0-2h-1zm-3.772 17.454a1.7 1.7 0 1 1 -3.333-.6l1.832-6.717c.724-.043 1.448-.057 2.172-.078zm-8.228-6.59c1.529-.237 3.065-.416 4.606-.553l-.734 2.689h-3.872zm-5 6.136a2 2 0 0 1 2-2h6.327l-.362 1.327a3.653 3.653 0 0 0 .3 2.673h-8.265zm32 0v2h-17.178a3.733 3.733 0 0 0 .4-1.365l.237-2.635h14.541a2 2 0 0 1 2 2zm-16.359-4 .272-3h.087 1a6 6 0 0 0 0-12h-1c-.782 0-1.563-.039-2.344-.064a11.091 11.091 0 0 0 2.314-6.256 12.188 12.188 0 0 0 6.337-1.971 1 1 0 1 0 -1.088-1.678 10.192 10.192 0 0 1 -5.5 1.659c-.209 0-.651-.025-.664-.026a10.263 10.263 0 0 1 -5.707-2.142 1 1 0 0 0 -.949-.151l-11.124 3.968-3.075-6.152 7.856-8.7a22.686 22.686 0 0 1 10.937-6.708 9.535 9.535 0 0 1 1.007-.19l-.063.108a1 1 0 0 0 1.733 1l1.017-1.761 1.983-3.436a5.011 5.011 0 0 1 5.914-2.243l-3.684 6.389-1.766 3.054a1 1 0 1 0 1.732 1l1.218-2.11a9.592 9.592 0 0 1 3.908 7.354v.1s0 .054.007.081v33.875z"/><path d="m35 16a3 3 0 1 0 3 3 3 3 0 0 0 -3-3zm0 4a1 1 0 1 1 1-1 1 1 0 0 1 -1 1z"/><circle cx="24" cy="27" r="1"/><path d="m21 44h-5a3 3 0 0 1 -3-3v-1.32l7.836 1.306a.927.927 0 0 0 .164.014 1 1 0 0 0 .163-1.986l-8.163-1.361v-12.653h2a1 1 0 0 0 .8-1.6l-3-4a1.036 1.036 0 0 0 -1.6 0l-3 4a1 1 0 0 0 .8 1.6h2v12.32l-4.493-.749a2.992 2.992 0 0 1 -2.507-2.96v-13.971a5.013 5.013 0 0 1 1.621-3.686l9.871-9.048 1.8 1.8a1 1 0 0 0 1.708-.706v-5a1 1 0 0 0 -1-1h-5a1 1 0 0 0 -.707 1.707l1.783 1.783-9.806 8.989a7.018 7.018 0 0 0 -2.27 5.161v13.971a4.983 4.983 0 0 0 4.179 4.932l4.821.8v1.657a5.006 5.006 0 0 0 5 5h5a1 1 0 0 0 0-2zm-9-22.333 1 1.333h-2zm5-17.667v1.586l-1.586-1.586z"/><path d="m20.226 49.367-7.8 9.532a2.987 2.987 0 0 1 -2.326 1.101h-.1a3 3 0 0 1 -3-3v-3h2a1 1 0 0 0 .8-1.6l-3-4a1.036 1.036 0 0 0 -1.6 0l-3 4a1 1 0 0 0 .8 1.6h2v3a5.006 5.006 0 0 0 5 5h.1a4.983 4.983 0 0 0 3.871-1.834l7.8-9.533a1 1 0 1 0 -1.548-1.266zm-14.226 1.3 1 1.333h-2z"/><path d="m18 16-.707-.707a1 1 0 1 0 -1.414 1.414l.707.707-.707.708a1 1 0 1 0 1.414 1.414l.707-.708.707.708a1 1 0 1 0 1.414-1.414l-.707-.708.707-.707a1 1 0 1 0 -1.414-1.414z"/><path d="m3.879 46.536a1 1 0 0 0 1.414 0l.707-.708.707.708a1 1 0 0 0 1.414-1.414l-.707-.708.707-.707a1 1 0 0 0 -1.414-1.414l-.707.707-.707-.707a1 1 0 0 0 -1.414 1.414l.707.707-.707.708a1 1 0 0 0 0 1.414z"/><path d="m25 8a3 3 0 1 0 -3-3 3 3 0 0 0 3 3zm0-4a1 1 0 1 1 -1 1 1 1 0 0 1 1-1z"/></g></g></g></svg>