<svg height="512" viewBox="0 0 64 64" width="512" xmlns="http://www.w3.org/2000/svg"><g id="Fill_Outline" data-name="Fill Outline"><g id="Color"><g><path d="m55 27h-.026a17.76 17.76 0 0 0 -17.974-17 17.755 17.755 0 0 0 -18 17.5 17.173 17.173 0 0 0 5 12.083l-4 21.417h22v-7h1a12 12 0 0 0 12-12v-1h6z" fill="#f9e109"/><path d="m53 47c-11.6 0-21-11.864-21-26.5a32.485 32.485 0 0 1 1.608-10.179 17.636 17.636 0 0 0 -14.608 17.179 17.173 17.173 0 0 0 5 12.083l-4 21.417h22v-7h1a11.991 11.991 0 0 0 10.912-7.029c-.302.016-.606.029-.912.029z" fill="#fcbc04"/><path d="m42 53.959a19.988 19.988 0 0 1 -18.08-13.949l-.44 2.34a19.979 19.979 0 0 0 18.52 15.62z" fill="#e59730"/><g fill="#84d2f4"><path d="m45 14a7 7 0 0 0 -10.393-6.121 13.97 13.97 0 0 0 -18.552-2.4 9.991 9.991 0 0 0 -7.941 18.229 7.986 7.986 0 0 0 12.542 7.792 6.981 6.981 0 0 0 11.818-1.84 6.373 6.373 0 0 0 2.026.34 6.491 6.491 0 0 0 5.812-9.4 7 7 0 0 0 4.688-6.6z"/><circle cx="31" cy="40" r="3"/><circle cx="37" cy="47" r="2"/></g><path d="m9 40h-6l3-4z" fill="#f9e109"/><path d="m6 37v-1l-3 4h6a3 3 0 0 1 -3-3z" fill="#fcbc04"/><path d="m38.5 23a6.373 6.373 0 0 1 -2.026-.34 6.981 6.981 0 0 1 -11.818 1.84 7.969 7.969 0 0 1 -12.542-7.789 9.972 9.972 0 0 1 -5.114-8.711 10.209 10.209 0 0 1 .052-1.025 9.972 9.972 0 0 0 1.062 16.733 7.986 7.986 0 0 0 12.542 7.792 6.981 6.981 0 0 0 11.818-1.84 6.373 6.373 0 0 0 2.026.34 6.444 6.444 0 0 0 6.418-7.47 6.461 6.461 0 0 1 -2.418.47z" fill="#57b7eb"/><g><path d="m17.515 29a1.94 1.94 0 0 1 -1.882-1.47l-1.633-6.53h4l1.4 5.589a1.94 1.94 0 0 1 -1.885 2.411z" fill="#f9e109"/><path d="m17.093 26.824a3 3 0 0 1 1.493-3.481l-.586-2.343h-4l1.633 6.53a1.94 1.94 0 0 0 1.882 1.47 1.753 1.753 0 0 0 .193-.023z" fill="#fcbc04"/><path d="m14 13v8a25.428 25.428 0 0 1 11.367 2.683l.633.317v-14l-.633.317a25.428 25.428 0 0 1 -11.367 2.683z" fill="#c4f236"/><path d="m14 13a0 0 0 0 1 0 0v8a0 0 0 0 1 0 0 4 4 0 0 1 -4-4 4 4 0 0 1 4-4z" fill="#f9e109"/><path d="m21.385 18a4.615 4.615 0 0 0 4.615-4.615v10.615l-.633-.317a25.428 25.428 0 0 0 -11.367-2.683v-8a7.954 7.954 0 0 0 7.385 5z" fill="#a1d51c"/><g fill="#fcbc04"><path d="m13 15v-1.859a3.977 3.977 0 0 1 1-.141v8a3.988 3.988 0 0 1 -3.591-2.268 3.993 3.993 0 0 0 2.591-3.732z"/><path d="m17.51 29a1.946 1.946 0 0 1 -1.88-1.47l-.87-3.49a7.951 7.951 0 0 0 4.48 1.92l.16.63a1.945 1.945 0 0 1 -1.89 2.41z"/><path d="m12.47 20.69a3.933 3.933 0 0 1 -1.3-.86 4.025 4.025 0 0 1 -1.17-2.83 3.887 3.887 0 0 1 .32-1.56 10.339 10.339 0 0 0 1.79 1.27 9.1 9.1 0 0 0 -.11 1.29 7.765 7.765 0 0 0 .47 2.69z"/></g><g fill="#e59730"><path d="m12 18a8.02 8.02 0 0 0 .47 2.7 4.116 4.116 0 0 1 -2.06-1.97 3.952 3.952 0 0 0 1.61-1.14 2.748 2.748 0 0 0 -.02.41z"/><path d="m17.71 28.98c-.07 0-.13.02-.2.02a1.946 1.946 0 0 1 -1.88-1.47l-.87-3.49a7.713 7.713 0 0 0 2.28 1.39 2.748 2.748 0 0 0 .05 1.39z"/></g><path d="m17.71 28.98c-.07 0-.13.02-.2.02a1.946 1.946 0 0 1 -1.88-1.47l-.87-3.49a7.713 7.713 0 0 0 2.28 1.39 2.748 2.748 0 0 0 .05 1.39z" fill="#e59730"/><path d="m12.47 20.7a4.116 4.116 0 0 1 -2.06-1.97 3.952 3.952 0 0 0 1.61-1.14 2.748 2.748 0 0 0 -.02.41 8.02 8.02 0 0 0 .47 2.7z" fill="#e59730"/></g><path d="m33.87 40.87a3 3 0 1 1 -3.74-3.74 3.1 3.1 0 0 0 -.13.87 3 3 0 0 0 3 3 3.1 3.1 0 0 0 .87-.13z" fill="#57b7eb"/><path d="m38.82 47.82a2 2 0 1 1 -2.64-2.64 1.891 1.891 0 0 0 -.18.82 2.006 2.006 0 0 0 2 2 1.891 1.891 0 0 0 .82-.18z" fill="#57b7eb"/></g></g><g id="Outline_copy" data-name="Outline copy"><g fill="#39519d"><path d="m61.919 40.606-5.955-13.9a18.308 18.308 0 0 0 -6.98-13.536 1 1 0 0 0 -1.244 1.57 16.3 16.3 0 0 1 6.234 12.289.969.969 0 0 0 .176.528l5.333 12.443h-4.483a1 1 0 0 0 -1 1v1a11.013 11.013 0 0 1 -11 11h-1a1 1 0 0 0 -1 1v7a1 1 0 0 0 2 0v-6a13.015 13.015 0 0 0 13-13h5a1 1 0 0 0 .919-1.394z"/><path d="m22.333 35.811a1 1 0 0 0 -1.715 1.03 18.59 18.59 0 0 0 2.3 3.063l-3.901 20.912a1 1 0 0 0 .8 1.167.98.98 0 0 0 .183.017 1 1 0 0 0 .982-.816l4-21.417a1 1 0 0 0 -.27-.885 16.514 16.514 0 0 1 -2.379-3.071z"/><path d="m33.017 30.842a7.156 7.156 0 0 0 1.483.158 7.508 7.508 0 0 0 7.5-7.5 7.393 7.393 0 0 0 -.387-2.369 8 8 0 0 0 -3.613-15.131 1 1 0 0 0 0 2 6 6 0 0 1 1.981 11.657 1 1 0 0 0 -.564 1.391 5.437 5.437 0 0 1 .583 2.452 5.506 5.506 0 0 1 -5.5 5.5 5.41 5.41 0 0 1 -1.711-.289 1 1 0 0 0 -1.24.569 5.982 5.982 0 0 1 -10.129 1.573 1 1 0 0 0 -1.349-.168 6.937 6.937 0 0 1 -4.071 1.315 6.951 6.951 0 0 1 -6.9-8.132 1 1 0 0 0 -1.975-.321 8.955 8.955 0 0 0 8.875 10.453 8.921 8.921 0 0 0 4.5-1.211 7.979 7.979 0 0 0 12.518-1.947z"/><path d="m5.363 22.44a1 1 0 0 0 .762-1.647 8.994 8.994 0 0 1 9.625-14.362.993.993 0 0 0 .873-.129 12.972 12.972 0 0 1 17.227 2.229 1 1 0 1 0 1.515-1.3 14.971 14.971 0 0 0 -19.476-2.84 10.99 10.99 0 0 0 -11.289 17.696 1 1 0 0 0 .763.353z"/><path d="m26 17a1 1 0 0 0 1-1v-6a1 1 0 0 0 -1.447-.895l-.634.317a24.534 24.534 0 0 1 -10.919 2.578 4.991 4.991 0 0 0 -.8 9.919l1.464 5.853a2.94 2.94 0 1 0 5.7-1.426l-.932-3.725a24.39 24.39 0 0 1 5.484 1.957l.634.317a1 1 0 0 0 1.45-.895v-4a1 1 0 0 0 -2 0v2.4a26.6 26.6 0 0 0 -6.742-2.043l-.039-.006a26.56 26.56 0 0 0 -3.219-.332v-6.038a26.614 26.614 0 0 0 10-2.381v4.4a1 1 0 0 0 1 1zm-15 0a3.006 3.006 0 0 1 2-2.829v5.658a3.006 3.006 0 0 1 -2-2.829zm7.427 9.831a.94.94 0 1 1 -1.824.457l-1.313-5.25c.665.036 1.327.1 1.987.194z"/><path d="m35 17a1 1 0 0 0 -1-1h-4a1 1 0 0 0 0 2h4a1 1 0 0 0 1-1z"/><path d="m29.168 20.445a1 1 0 0 0 .277 1.387l3 2a1 1 0 1 0 1.11-1.664l-3-2a1 1 0 0 0 -1.387.277z"/><path d="m30 14a1 1 0 0 0 .554-.168l3-2a1 1 0 1 0 -1.11-1.664l-3 2a1 1 0 0 0 .556 1.832z"/><path d="m31 36a4 4 0 1 0 4 4 4 4 0 0 0 -4-4zm0 6a2 2 0 1 1 2-2 2 2 0 0 1 -2 2z"/><path d="m37 44a3 3 0 1 0 3 3 3 3 0 0 0 -3-3zm0 4a1 1 0 1 1 1-1 1 1 0 0 1 -1 1z"/><path d="m9.281 50a2.5 2.5 0 0 1 -2.5-2.5v-6.5h2a1 1 0 0 0 .8-1.6l-3-4a1.036 1.036 0 0 0 -1.6 0l-3 4a1 1 0 0 0 .8 1.6h2v6.5a4.505 4.505 0 0 0 4.5 4.5 2.5 2.5 0 0 1 2.5 2.5v6.5a1 1 0 0 0 2 0v-6.5a4.5 4.5 0 0 0 -4.5-4.5zm-3.5-12.333 1 1.333h-2z"/><path d="m4.781 56a3 3 0 1 0 3 3 3 3 0 0 0 -3-3zm0 4a1 1 0 1 1 1-1 1 1 0 0 1 -1 1z"/><path d="m17.6 42.078a1 1 0 0 0 -1.414 0l-.708.707-.707-.707a1 1 0 1 0 -1.415 1.414l.708.707-.708.707a1 1 0 0 0 1.415 1.414l.707-.707.708.707a1 1 0 0 0 1.414-1.414l-.71-.706.708-.707a1 1 0 0 0 .002-1.415z"/></g></g></g></svg>