<svg height="512" viewBox="0 0 64 64" width="512" xmlns="http://www.w3.org/2000/svg"><g id="Fill_Outline" data-name="Fill Outline"><g id="Color"><g><g><path d="m61 38a4 4 0 0 1 -4-3.993c0-5.348-.007-14.176-.009-14.219a15.053 15.053 0 0 0 -15.264-14.37 15.467 15.467 0 0 0 -4.04.538 27.686 27.686 0 0 0 -9.247 4.484l16.56 16.56v3a12 12 0 0 0 12 12 4 4 0 0 0 4-4z" fill="#57b7eb"/><path d="m55 36.007c0-5.348-.007-14.176-.009-14.219a15.053 15.053 0 0 0 -15.264-14.37 15.467 15.467 0 0 0 -4.04.538 27.545 27.545 0 0 0 -6.838 2.893l16.151 16.151v3a12 12 0 0 0 12 12 3.961 3.961 0 0 0 1.64-.36 3.961 3.961 0 0 0 .36-1.64 4 4 0 0 1 -4-3.993z" fill="#4891d3"/><path d="m41 20v12.131a10.162 10.162 0 0 1 -5.5 9.029 10.162 10.162 0 0 0 -5.5 9.03v4.81h23v-35z" fill="#84d2f4"/><path d="m28 55h28a3 3 0 0 1 3 3v3a0 0 0 0 1 0 0h-34a0 0 0 0 1 0 0v-3a3 3 0 0 1 3-3z" fill="#57b7eb"/><path d="m27.314 16.821-8.314 9.202 3.778 7.556 11.961-4.267a11.276 11.276 0 0 0 6.987 2.378 11.44 11.44 0 0 0 11.266-10.914c.011-.283.01-.564 0-.842-.261-7.119-7.383-11.977-14.26-10.117a23.743 23.743 0 0 0 -11.418 7.004z" fill="#84d2f4"/><path d="m49.4 1.5a0 0 0 0 1 0 0v12a0 0 0 0 1 0 0h-6a0 0 0 0 1 0 0v-6a6 6 0 0 1 6-6z" fill="#84d2f4" transform="matrix(.866 .5 -.5 .866 9.967 -22.196)"/><circle cx="35" cy="19" fill="#4891d3" r="2"/><path d="m44.8 8-2.38 4.13a4.134 4.134 0 0 0 5.647-1.513l3.167-5.486a6 6 0 0 0 -6.434 2.869z" fill="#57b7eb"/><path d="m48.5 36.524.24-5.049a4.611 4.611 0 0 0 -5.178-4.8 4.612 4.612 0 0 1 -4.173-1.7l-.165-.207a4.612 4.612 0 0 0 -5.474-1.333l-2.433 1.081a4.611 4.611 0 0 1 -5.528-1.4l-1.917-2.492-4.872 5.399 3.778 7.556 11.961-4.267a11.269 11.269 0 0 0 6.261 2.35v.469a10.162 10.162 0 0 1 -5.5 9.029 10.162 10.162 0 0 0 -5.5 9.03v4.81h23v-9.651a9.982 9.982 0 0 1 -4.5-8.825z" fill="#57b7eb"/><g fill="#4891d3"><path d="m48.532 29.875a4.378 4.378 0 0 0 -.163-.441 11.218 11.218 0 0 1 -6.643 2.256c-.244 0-.485-.014-.726-.028v.469a10.126 10.126 0 0 1 -.614 3.411 11.5 11.5 0 0 0 8.146-5.667z"/><path d="m29 55h-1a3 3 0 0 0 -3 3v3h34v-3h-27a3 3 0 0 1 -3-3z"/><path d="m45 50a11 11 0 0 1 -10.617-8.161 10.158 10.158 0 0 0 -4.383 8.351v4.81h23v-5z"/></g></g><g><path d="m37.535 61a2.7 2.7 0 0 1 -2.6-3.41l2.065-7.59h4l-.777 8.545a2.7 2.7 0 0 1 -2.688 2.455z" fill="#f9e109"/><path d="m26.191 38.265-1.191-.265v14l1.191-.265a72.9 72.9 0 0 1 15.809-1.735v-10a72.9 72.9 0 0 1 -15.809-1.735z" fill="#c4f236"/><path d="m42 40h1a5 5 0 0 1 5 5 5 5 0 0 1 -5 5h-1a0 0 0 0 1 0 0v-10a0 0 0 0 1 0 0z" fill="#f9e109"/><path d="m15 24h-6l3-4z" fill="#f9e109"/><path d="m12 21v-1l-3 4h6a3 3 0 0 1 -3-3z" fill="#fcbc04"/><path d="m9 53h-6l3-4z" fill="#f9e109"/><path d="m6 50v-1l-3 4h6a3 3 0 0 1 -3-3z" fill="#fcbc04"/><path d="m43 40h-1v10h1a5 5 0 0 0 5-5 5 5 0 0 1 -5-5z" fill="#fcbc04"/><path d="m42 40a7.954 7.954 0 0 1 -7.385 5h-1.615a8 8 0 0 1 -7.928-6.984l-.072-.016v14l1.19-.265a72.917 72.917 0 0 1 15.81-1.735z" fill="#a1d51c"/><path d="m41 50-.31 3.39a5.993 5.993 0 0 0 -3.73 4.31l-.67 3a2.7 2.7 0 0 1 -1.36-3.11l2.07-7.59z" fill="#fcbc04"/></g><path d="m18 8-5-5h5z" fill="#f9e109"/><path d="m15.141 3h-2.141l5 5v-2.141a3.987 3.987 0 0 1 -2.859-2.859z" fill="#fcbc04"/></g></g><g id="Outline_copy" data-name="Outline copy"><g fill="#39519d"><path d="m56 54h-14.359l.272-3h.087 1a6 6 0 0 0 0-12h-1c-.782 0-1.563-.039-2.344-.064a11.091 11.091 0 0 0 2.314-6.256 12.188 12.188 0 0 0 6.337-1.971 1 1 0 1 0 -1.088-1.678 10.192 10.192 0 0 1 -5.5 1.659c-.209 0-.42-.006-.628-.017-.013 0-.023-.008-.036-.009a10.263 10.263 0 0 1 -5.707-2.142 1 1 0 1 0 -1.221 1.578 12.256 12.256 0 0 0 5.862 2.465 9.131 9.131 0 0 1 -2.926 6.241 72.022 72.022 0 0 1 -10.656-1.52l-1.19-.265a1 1 0 0 0 -1.217.979v7a1 1 0 0 0 2 0v-5.753a74.051 74.051 0 0 0 15 1.726v4.027h-4a1 1 0 0 0 0 2h4v2.027a74.051 74.051 0 0 0 -15 1.726v-1.753a1 1 0 0 0 -2 0v3a1 1 0 0 0 1.217.976l1.19-.265a72.025 72.025 0 0 1 9.2-1.4l-.735 2.689h-6.872a4 4 0 0 0 -4 4v3a1 1 0 0 0 1 1h22a1 1 0 0 0 0-2h-6.178a3.733 3.733 0 0 0 .4-1.365l.237-2.635h14.541a2 2 0 0 1 2 2v2h-7a1 1 0 0 0 0 2h8a1 1 0 0 0 1-1v-3a4 4 0 0 0 -4-4zm-9-9a4 4 0 0 1 -4 4v-4h1a1 1 0 0 0 0-2h-1v-2a4 4 0 0 1 4 4zm-21 13a2 2 0 0 1 2-2h6.327l-.362 1.327a3.653 3.653 0 0 0 .3 2.673h-8.265zm10.185 1.332a1.681 1.681 0 0 1 -.29-1.479l1.832-6.717c.724-.043 1.448-.057 2.172-.078l-.671 7.4a1.7 1.7 0 0 1 -3.043.878z"/><path d="m35 18a1 1 0 0 1 1 1 1 1 0 0 0 2 0 3 3 0 1 0 -3 3 1 1 0 0 0 0-2 1 1 0 0 1 0-2z"/><circle cx="24" cy="27" r="1"/><path d="m61 37a3 3 0 0 1 -3-2.994v-6.006a1 1 0 0 0 -2 0v6.007a5.007 5.007 0 0 0 3.873 4.865 3 3 0 0 1 -2.873 2.128 10.852 10.852 0 0 1 -3-.435v-20.565a.932.932 0 0 0 -.01-.14 11.767 11.767 0 0 0 -4.9-9.024l1.01-1.748a13.741 13.741 0 0 1 5.889 10.712v2.406 1.794a1 1 0 0 0 1 1 1 1 0 0 0 1-1v-1.793c0-1.487 0-2.456 0-2.456a15.765 15.765 0 0 0 -6.868-12.423l1.745-3.023a1 1 0 0 0 -.366-1.367 7.008 7.008 0 0 0 -8.891 1.61 16.164 16.164 0 0 0 -1.882-.13 16.455 16.455 0 0 0 -4.3.573 28.571 28.571 0 0 0 -9.581 4.646 1 1 0 0 0 -.113 1.51l2.047 2.046a24.765 24.765 0 0 0 -3.209 2.957l-8.313 9.2a1 1 0 0 0 -.153 1.118l3.778 7.555a1 1 0 0 0 1.23.495l8.725-3.112a1 1 0 0 0 -.672-1.884l-7.891 2.814-3.075-6.149 7.856-8.7a22.686 22.686 0 0 1 10.937-6.708 9.535 9.535 0 0 1 1.007-.19l-.063.108a1 1 0 0 0 1.733 1l3-5.2a5.011 5.011 0 0 1 5.914-2.243l-5.45 9.446a1 1 0 1 0 1.732 1l1.218-2.11a9.592 9.592 0 0 1 3.908 7.354v.1s0 .054.007.081v30.875a1 1 0 0 0 2 0v-8.367a12.828 12.828 0 0 0 3.001.367 5.006 5.006 0 0 0 5-5 1 1 0 0 0 -1-1zm-22.529-28.148a24.692 24.692 0 0 0 -7.04 3.165l-1.446-1.446a26.555 26.555 0 0 1 7.964-3.65 14.459 14.459 0 0 1 3.778-.5c.212 0 .441.016.665.028l-1.153 2a12.244 12.244 0 0 0 -2.768.403z"/><path d="m21 44h-5a3 3 0 0 1 -3-3v-1.32l7.836 1.306a.927.927 0 0 0 .164.014 1 1 0 0 0 .163-1.986l-8.163-1.361v-12.653h2a1 1 0 0 0 .8-1.6l-3-4a1.036 1.036 0 0 0 -1.6 0l-3 4a1 1 0 0 0 .8 1.6h2v12.32l-4.493-.749a2.992 2.992 0 0 1 -2.507-2.96v-13.971a5.013 5.013 0 0 1 1.621-3.686l9.871-9.048 1.8 1.8a1 1 0 0 0 1.708-.706v-5a1 1 0 0 0 -1-1h-5a1 1 0 0 0 -.707 1.707l1.783 1.783-9.806 8.989a7.018 7.018 0 0 0 -2.27 5.161v13.971a4.983 4.983 0 0 0 4.179 4.932l4.821.8v1.657a5.006 5.006 0 0 0 5 5h5a1 1 0 0 0 0-2zm-9-22.333 1 1.333h-2zm5-17.667v1.586l-1.586-1.586z"/><path d="m20.226 49.367-7.8 9.532a2.987 2.987 0 0 1 -2.326 1.101h-.1a3 3 0 0 1 -3-3v-3h2a1 1 0 0 0 .8-1.6l-3-4a1.036 1.036 0 0 0 -1.6 0l-3 4a1 1 0 0 0 .8 1.6h2v3a5.006 5.006 0 0 0 5 5h.1a4.983 4.983 0 0 0 3.871-1.834l7.8-9.533a1 1 0 1 0 -1.548-1.266zm-14.226 1.3 1 1.333h-2z"/><path d="m18 16-.707-.707a1 1 0 1 0 -1.414 1.414l.707.707-.707.708a1 1 0 1 0 1.414 1.414l.707-.708.707.708a1 1 0 1 0 1.414-1.414l-.707-.708.707-.707a1 1 0 1 0 -1.414-1.414z"/><path d="m3.879 46.536a1 1 0 0 0 1.414 0l.707-.708.707.708a1 1 0 0 0 1.414-1.414l-.707-.708.707-.707a1 1 0 0 0 -1.414-1.414l-.707.707-.707-.707a1 1 0 0 0 -1.414 1.414l.707.707-.707.708a1 1 0 0 0 0 1.414z"/><path d="m25 8a3 3 0 1 0 -3-3 3 3 0 0 0 3 3zm0-4a1 1 0 1 1 -1 1 1 1 0 0 1 1-1z"/></g></g></g></svg>