<svg height="512" viewBox="0 0 64 64" width="512" xmlns="http://www.w3.org/2000/svg"><g id="Fill_Outline" data-name="Fill Outline"><g id="Color"><g><path d="m27 3h-20a4 4 0 0 0 -4 4v14a4 4 0 0 0 4 4h6.857l5.143 6v-6h8a4 4 0 0 0 4-4v-14a4 4 0 0 0 -4-4z" fill="#c4f236"/><path d="m20 19a12 12 0 0 1 -12-12v-4h-1a4 4 0 0 0 -4 4v14a4 4 0 0 0 4 4h6.857l5.143 6v-6h8a4 4 0 0 0 4-4v-2z" fill="#a1d51c"/><path d="m61 16-3-11-11 5 4.29 1.839a50.131 50.131 0 0 1 -46.404 31.161h-1.886v10h5.4a51.032 51.032 0 0 0 49.435-38.356z" fill="#c4f236"/><path d="m10.16 42.723h-.033a50.287 50.287 0 0 1 -5.241.277h-1.886v10h5.4a51.036 51.036 0 0 0 45.416-27.764 51.026 51.026 0 0 1 -43.656 17.487z" fill="#a1d51c"/><g><path d="m25 43h14a6 6 0 0 1 6 6v12a0 0 0 0 1 0 0h-26a0 0 0 0 1 0 0v-12a6 6 0 0 1 6-6z" fill="#57b7eb"/><g fill="#4891d3"><path d="m37 51-5-3 4-4z"/><path d="m26 50 6-2-4-4z"/><path d="m39 56v-5a3 3 0 0 0 -3 3v2a10 10 0 0 1 -10-10v-2.26a6.961 6.961 0 0 0 8.877-.74h-9.877a6 6 0 0 0 -6 6v12h26v-5z"/><path d="m33 58-2 2-2-2 1-11h2z"/></g><path d="m34 58-2 2-2-2 1-11h2z" fill="#c4f236"/><path d="m31.256 55.183.744-6.146 1.2.2-.2-2.237h-2l-1 11 2 2 .531-.531a6.035 6.035 0 0 1 -1.275-4.286z" fill="#a1d51c"/><path d="m37 49-5-1 4-4z" fill="#84d2f4"/><path d="m27 49 5-1-4-4z" fill="#84d2f4"/><path d="m36 44-4 4-4-4v-5h8z" fill="#fcbc04"/><path d="m28 39v5l.9.9a6.829 6.829 0 0 0 1.1.1 6.989 6.989 0 0 0 6-3.408v-2.592z" fill="#e59730"/><path d="m23 23h10a6 6 0 0 1 6 6v4a0 0 0 0 1 0 0h-12a4 4 0 0 1 -4-4v-6a0 0 0 0 1 0 0z" fill="#84d2f4"/><path d="m36 30a2 2 0 0 1 -2-2 2 2 0 0 0 -2-2h-2a3.992 3.992 0 0 1 -3.859-3h-3.141v6a4 4 0 0 0 4 4h12v-3z" fill="#57b7eb"/><path d="m32 43a7 7 0 0 1 -7-7v-4.9l.347-.012a6.736 6.736 0 0 0 4.53-1.969l.123-.119a6.737 6.737 0 0 0 5.606 3h3.394v4a7 7 0 0 1 -7 7z" fill="#f9e109"/><path d="m35.606 32a6.738 6.738 0 0 1 -5.606-3l-.123.123a6.736 6.736 0 0 1 -4.53 1.969l-.347.008v4.9a6.99 6.99 0 0 0 10.659 5.96c-.218.02-.436.04-.659.04a7 7 0 0 1 -7-7v-2.561a6.717 6.717 0 0 0 1.877-1.316l.123-.123a6.738 6.738 0 0 0 5.606 3h3.394v-2z" fill="#fcbc04"/><path d="m27.867 44.666a6.881 6.881 0 0 0 1.039.24l-.906-.906z" fill="#57b7eb"/></g><g><path d="m21 12a4 4 0 1 0 -6 3.445v3.555a2 2 0 0 0 4 0v-3.555a3.982 3.982 0 0 0 2-3.445z" fill="#f9e109"/><path d="m19.5 14a4.467 4.467 0 0 1 -4.376-5.513 3.967 3.967 0 0 0 -.124 6.958v3.555a2 2 0 0 0 4 0v-3.555a4.045 4.045 0 0 0 1.519-1.571 4.5 4.5 0 0 1 -1.019.126z" fill="#fcbc04"/><path d="m19 18.95a11.925 11.925 0 0 1 -4-1.05v1.1a2 2 0 0 0 4 0z" fill="#e59730"/></g><g><path d="m52 49h4v8h-4z" fill="#fcbc04"/><path d="m53.139 53.858a5.007 5.007 0 0 0 2.861-1.885v-2.973h-4v8h4v-1a2.99 2.99 0 0 1 -2.861-2.142z" fill="#e59730"/><path d="m49 43h10a0 0 0 0 1 0 0v4a5 5 0 0 1 -5 5 5 5 0 0 1 -5-5v-4a0 0 0 0 1 0 0z" fill="#f9e109"/><path d="m51 57h6a2 2 0 0 1 2 2v2a0 0 0 0 1 0 0h-10a0 0 0 0 1 0 0v-2a2 2 0 0 1 2-2z" fill="#f9e109"/><g fill="#fcbc04"><path d="m56 50a5 5 0 0 1 -5-5v-2h-2v4a4.984 4.984 0 0 0 9.375 2.375 4.95 4.95 0 0 1 -2.375.625z"/><path d="m50.232 57.154a2 2 0 0 0 -1.232 1.846v2h10v-2h-6a3 3 0 0 1 -2.768-1.846z"/></g></g></g></g><g id="Outline_copy" data-name="Outline copy"><g fill="#39519d"><path d="m3 14a1 1 0 0 0 1-1v-6a3 3 0 0 1 3-3h20a3 3 0 0 1 3 3v12a1 1 0 0 0 2 0v-12a5.006 5.006 0 0 0 -5-5h-20a5.006 5.006 0 0 0 -5 5v6a1 1 0 0 0 1 1z"/><path d="m3 44h1.886a50.937 50.937 0 0 0 16.8-2.858 1 1 0 0 0 -.658-1.889 48.921 48.921 0 0 1 -16.142 2.747h-1.886a1 1 0 0 0 0 2z"/><path d="m41.186 42.354a52.2 52.2 0 0 0 17.314-26.336l2.105.9a1 1 0 0 0 1.359-1.182l-3-11a1 1 0 0 0 -1.379-.647l-11 5a1 1 0 0 0 .02 1.829l3.378 1.448a48.964 48.964 0 0 1 -7.744 12.4 1 1 0 1 0 1.52 1.3 50.9 50.9 0 0 0 8.456-13.847 1 1 0 0 0 -.531-1.3l-2.209-.947 7.869-3.572 2.146 7.869-1.261-.54a1 1 0 0 0 -1.363.671 50.173 50.173 0 0 1 -18.481 27.6h-1.111a7.976 7.976 0 0 0 2.726-6 1 1 0 0 0 -2 0 6 6 0 0 1 -12 0v-3.955a7.685 7.685 0 0 0 3.873-1.585 7.72 7.72 0 0 0 5.727 2.54h3.4a1 1 0 0 0 1-1v-3a7.008 7.008 0 0 0 -7-7h-10a1 1 0 0 0 -1 1v1h-3a1 1 0 0 0 -1 1v3.3l-3.384-3.95a1 1 0 0 0 -.759-.35h-6.857a3 3 0 0 1 -3-3v-4a1 1 0 0 0 -2 0v4a5.006 5.006 0 0 0 5 5h6.4l4.844 5.65a1 1 0 0 0 .756.35 1.021 1.021 0 0 0 .347-.062 1 1 0 0 0 .653-.938v-5h2v3a5 5 0 0 0 2 3.975v3.025a7.984 7.984 0 0 0 3 6.235v1.665l-.98 4.9a1 1 0 0 0 1.18 1.18l4.8-.96.183.036.779 8.568-.962.962-.962-.962.5-5.533a1 1 0 0 0 -1.993-.182l-.545 6a1 1 0 0 0 .289.8l2 2a1 1 0 0 0 1.414 0l2-2a1 1 0 0 0 .289-.8l-.767-8.444 2.575.515a1 1 0 0 0 1.18-1.18l-.96-4.8h1.98a5.006 5.006 0 0 1 5 5v12a1 1 0 0 0 2 0v-12a7.01 7.01 0 0 0 -4.814-6.646zm-17.186-18.354h9a5.006 5.006 0 0 1 5 5v2h-2.4a5.724 5.724 0 0 1 -4.773-2.555 1 1 0 0 0 -.733-.44 1.023 1.023 0 0 0 -.806.288l-.123.123a5.721 5.721 0 0 1 -3.859 1.677l-.348.012a.99.99 0 0 0 -.616.258 2.931 2.931 0 0 1 -.342-1.363zm11 19.411v.175l-3 3-3-3v-.175a7.935 7.935 0 0 0 6 0zm-6.725 4.315.339-1.7 1.358 1.358zm5.753-.34 1.358-1.358.339 1.7z"/><path d="m24.986 42.924a1 1 0 0 0 -1.152-.82 6.974 6.974 0 0 0 -5.834 6.896v2.058a50.172 50.172 0 0 1 -9.6.942h-5.4a1 1 0 0 0 0 2h5.4a52.278 52.278 0 0 0 9.6-.908v7.908a1 1 0 0 0 2 0v-12a4.98 4.98 0 0 1 4.166-4.924 1 1 0 0 0 .82-1.152z"/><path d="m39 51a1 1 0 0 0 -1 1v9a1 1 0 0 0 2 0v-9a1 1 0 0 0 -1-1z"/><path d="m25 51a1 1 0 0 0 -1 1v9a1 1 0 0 0 2 0v-9a1 1 0 0 0 -1-1z"/><circle cx="35" cy="35" r="1"/><circle cx="29" cy="35" r="1"/><path d="m22 12a5 5 0 1 0 -8 3.979v.021a1 1 0 0 0 0 2v1a3 3 0 0 0 6 0v-1a1 1 0 0 0 0-2v-.021a5.005 5.005 0 0 0 2-3.979zm-4 7a1 1 0 0 1 -2 0v-1h2zm.5-4.419a1 1 0 0 0 -.5.864v.555h-2v-.555a1 1 0 0 0 -.5-.864 2.968 2.968 0 0 1 -1.5-2.581 3 3 0 0 1 6 0 2.968 2.968 0 0 1 -1.5 2.581z"/><path d="m24 10a1 1 0 0 0 .707-.293l1-1a1 1 0 1 0 -1.414-1.414l-1 1a1 1 0 0 0 .707 1.707z"/><path d="m28 12a1 1 0 0 0 -1-1h-2a1 1 0 0 0 0 2h2a1 1 0 0 0 1-1z"/><path d="m23.293 15.707 1 1a1 1 0 0 0 1.414-1.414l-1-1a1 1 0 0 0 -1.414 1.414z"/><path d="m10.707 8.293-1-1a1 1 0 1 0 -1.414 1.414l1 1a1 1 0 0 0 1.414-1.414z"/><path d="m10 12a1 1 0 0 0 -1-1h-2a1 1 0 0 0 0 2h2a1 1 0 0 0 1-1z"/><path d="m9 17a1 1 0 0 0 .707-.293l1-1a1 1 0 0 0 -1.414-1.414l-1 1a1 1 0 0 0 .707 1.707z"/><path d="m53 46a1 1 0 0 0 0 2h2a1 1 0 0 0 0-2z"/><path d="m61 42h-14a1 1 0 0 0 0 2h1v3a6 6 0 0 0 3 5.188v3.812a3 3 0 0 0 -3 3v2a1 1 0 0 0 1 1h10a1 1 0 0 0 1-1v-2a3 3 0 0 0 -3-3v-3.812a6 6 0 0 0 3-5.188 1 1 0 0 0 -2 0 4 4 0 0 1 -8 0v-3h11a1 1 0 0 0 0-2zm-3 17v1h-8v-1a1 1 0 0 1 1-1h6a1 1 0 0 1 1 1zm-3-6.09v3.09h-2v-3.09a5.6 5.6 0 0 0 2 0z"/></g></g></g></svg>