<svg height="512" viewBox="0 0 64 64" width="512" xmlns="http://www.w3.org/2000/svg"><g id="Oganization-Management"><path d="m54 21v8l-1.05.12-4.6.51a16.62 16.62 0 0 1 -1.52 3.66l2.42 3.02 1.13 1.42-5.65 5.65-4.44-3.55a2.639 2.639 0 0 1 -.29.15 15.468 15.468 0 0 1 -2.99 1.25c-.13.05-.25.08-.38.12l-.63 5.65h-8l-.63-5.65c-.13-.04-.25-.07-.38-.12a15.468 15.468 0 0 1 -2.99-1.25 2.639 2.639 0 0 1 -.29-.15l-4.44 3.55-5.65-5.65 3.55-4.44a16.62 16.62 0 0 1 -1.52-3.66l-5.65-.63v-8l5.65-.63a16.62 16.62 0 0 1 1.52-3.66l-3.55-4.44 5.65-5.65 4.44 3.55a16.62 16.62 0 0 1 3.66-1.52l.63-5.65h8l.63 5.65a16.62 16.62 0 0 1 3.66 1.52l4.44-3.55 5.65 5.65-3.55 4.44a16.62 16.62 0 0 1 1.52 3.66z" fill="#ff9811"/><path d="m59 58.9v2.1h-9l-1.82-6.18.82-.82 3 1 .7-2.8 2.74 1.22a6 6 0 0 1 3.56 5.48z" fill="#3d9ae2"/><path d="m55 39a2 2 0 0 1 0 4 2.03 2.03 0 0 1 -1.04-.29 5.529 5.529 0 0 0 .04-.71v-2.73a2 2 0 0 1 1-.27z" fill="#ffb655"/><path d="m52.7 52.2-.7 2.8-3-1-1-2 2-1z" fill="#1e81ce"/><path d="m53.44 38a2.009 2.009 0 0 1 -1.9-1.37l-.54-1.63-1.75 1.31-.12.09a7.982 7.982 0 0 1 -4.8 1.6h-4.33v4a5.529 5.529 0 0 0 .04.71 6.938 6.938 0 0 0 2.01 4.24 7 7 0 0 0 11.91-4.24 5.529 5.529 0 0 0 .04-.71v-4z" fill="#ffc477"/><path d="m50 48v3l-2 1h-2l-2-1v-3z" fill="#ffc477"/><path d="m48.18 54.82 1.82 6.18h-6l1.82-6.18 1.18 1.18z" fill="#ed1c24"/><path d="m48 52 1 2-.82.82-1.18 1.18-1.18-1.18-.82-.82 1-2z" fill="#ed1c24"/><path d="m46 52-1 2-3 1-.7-2.8 2.7-1.2z" fill="#1e81ce"/><path d="m45.82 54.82-1.82 6.18h-9v-2.1a6 6 0 0 1 3.56-5.48l2.74-1.22.7 2.8 3-1z" fill="#3d9ae2"/><path d="m41.16 29h-5.16l2 4a10 10 0 0 1 -12 0v-.01a4 4 0 0 0 -3.11-3.89 9.71 9.71 0 0 1 -.89-4.1 10 10 0 0 1 20 0 9.881 9.881 0 0 1 -.84 4z" fill="#ffd422"/><path d="m52.95 29.12a3.691 3.691 0 0 0 -.95-.12h-16l2 4-1 2 3 3h4.33a7.982 7.982 0 0 0 4.8-1.6l.12-.09 1.75-1.31.54 1.63a2.009 2.009 0 0 0 1.9 1.37h.56l2-2v-3a3.991 3.991 0 0 0 -3.05-3.88z" fill="#57565c"/><path d="m40 42v-2.73a2 2 0 0 0 -3 1.73 1.7 1.7 0 0 0 .01.23 2.005 2.005 0 0 0 3.03 1.48 5.529 5.529 0 0 1 -.04-.71z" fill="#ffb655"/><path d="m36.1 22.65a1.988 1.988 0 0 1 -.25 2.5l-3.85 3.85-3.85-3.85a1.978 1.978 0 0 1 1.4-3.38 1.94 1.94 0 0 1 1.1.33l1.35.9 1.35-.9a1.983 1.983 0 0 1 2.75.55z" fill="#ed1c24"/><path d="m29 58.9v2.1h-9l-1.82-6.18.82-.82 3 1 .7-2.8 2.74 1.22a6 6 0 0 1 3.56 5.48z" fill="#3d9ae2"/><path d="m25 39a2 2 0 0 0 -1 .27v2.73a5.529 5.529 0 0 1 -.04.71 2.005 2.005 0 0 0 3.03-1.48 1.7 1.7 0 0 0 .01-.23 2.006 2.006 0 0 0 -2-2z" fill="#ffb655"/><path d="m23.44 38a2.009 2.009 0 0 1 -1.9-1.37l-.29-.88-.25-.75-1.87 1.4a7.982 7.982 0 0 1 -4.8 1.6h-4.33v4a5.529 5.529 0 0 0 .04.71 6.938 6.938 0 0 0 2.01 4.24 7 7 0 0 0 11.91-4.24 5.529 5.529 0 0 0 .04-.71v-4z" fill="#ffc477"/><path d="m22.7 52.2-.7 2.8-3-1-1-2 2-1z" fill="#1e81ce"/><path d="m20 48v3l-2 1h-2l-2-1v-3z" fill="#ffc477"/><path d="m18.18 54.82 1.82 6.18h-6l1.82-6.18 1.18 1.18z" fill="#ed1c24"/><path d="m18 52 1 2-.82.82-1.18 1.18-1.18-1.18-.82-.82 1-2z" fill="#ed1c24"/><path d="m22.89 29.1a3.679 3.679 0 0 0 -.89-.1h-16l2 4-1 2 3 3h4.33a7.982 7.982 0 0 0 4.8-1.6l1.87-1.4.25.75.29.88a2.009 2.009 0 0 0 1.9 1.37h.56l2-2v-3.01a4 4 0 0 0 -3.11-3.89z" fill="#57565c"/><path d="m16 52-1 2-3 1-.7-2.8 2.7-1.2z" fill="#1e81ce"/><path d="m15.82 54.82-1.82 6.18h-9v-2.1a6 6 0 0 1 3.56-5.48l2.74-1.22.7 2.8 3-1z" fill="#3d9ae2"/><path d="m10 42a5.529 5.529 0 0 0 .04.71 2.03 2.03 0 0 1 -1.04.29 2 2 0 1 1 1-3.73z" fill="#ffb655"/><path d="m20 48.32v1a6.958 6.958 0 0 1 -6 0v-1a6.958 6.958 0 0 0 6 0z" fill="#ffb655"/><path d="m50 48.32v1a6.958 6.958 0 0 1 -6 0v-1a6.958 6.958 0 0 0 6 0z" fill="#ffb655"/><rect fill="#ee8700" height="2" rx="1" width="2" x="13" y="40"/><rect fill="#ee8700" height="2" rx="1" width="2" x="19" y="40"/><rect fill="#ee8700" height="2" rx="1" width="2" x="43" y="40"/><rect fill="#ee8700" height="2" rx="1" width="2" x="49" y="40"/><g fill="#cc7400"><path d="m31 8h2v2h-2z"/><path d="m19.687 12.686h2v2h-2z" transform="matrix(.707 -.707 .707 .707 -3.62 18.632)"/><path d="m15 24h2v2h-2z"/><path d="m31 40h2v2h-2z"/><path d="m47 24h2v2h-2z"/><path d="m42.313 12.686h2v2h-2z" transform="matrix(.707 -.707 .707 .707 3.009 34.636)"/></g></g></svg>