<svg height="512" viewBox="0 0 64 64" width="512" xmlns="http://www.w3.org/2000/svg"><g id="Brainstorm"><path d="m57.5 43.67a3.067 3.067 0 0 0 .5-1.67 3 3 0 0 0 -3-3v-4a8 8 0 0 0 -16 0v4a3 3 0 0 0 -3 3 3.067 3.067 0 0 0 .5 1.67 5 5 0 0 0 1.27 9.17 6.584 6.584 0 0 1 .79-.42l2.72-1.21c.77 1.62 3.04 2.79 5.72 2.79s4.95-1.17 5.72-2.79l2.72 1.21a6.584 6.584 0 0 1 .79.42h.01a5 5 0 0 0 1.26-9.17z" fill="#57565c"/><circle cx="57" cy="19" fill="#ff9811" r="2"/><path d="m56.24 52.84h-.01a6.584 6.584 0 0 0 -.79-.42l-2.72-1.21-2.19-.97-.53-.24h-6l-.53.23v.01l-2.19.97-2.72 1.21a6.584 6.584 0 0 0 -.79.42 6.011 6.011 0 0 0 -2.77 5.06v3.1h24v-3.1a6.039 6.039 0 0 0 -2.76-5.06z" fill="#ed539d"/><path d="m39 14a6.975 6.975 0 0 1 -2.16 5.05 5.936 5.936 0 0 0 -1.84 4.31v.64h-6v-.64a6.156 6.156 0 0 0 -1.91-4.38 6.955 6.955 0 0 1 -2.09-5.24 7.1 7.1 0 0 1 6.88-6.74 7 7 0 0 1 7.12 7z" fill="#ffd422"/><path d="m35 24v3a1 1 0 0 1 -1 1h-4a1 1 0 0 1 -1-1v-3z" fill="#ee8700"/><path d="m29 56.9v4.1h-9l-1.82-8.18.82-.82 3 1 .7-2.8 2.74 1.22a6 6 0 0 1 3.56 5.48z" fill="#3d9ae2"/><path d="m22.7 50.2-.7 2.8-3-1-1-2 2-1z" fill="#1e81ce"/><path d="m18.18 52.82 1.82 8.18h-6l1.82-8.18 1.18 1.18z" fill="#ed1c24"/><path d="m18 50 1 2-.82.82-1.18 1.18-1.18-1.18-.82-.82 1-2z" fill="#ed1c24"/><path d="m16 50-1 2-3 1-.7-2.8 2.7-1.2z" fill="#1e81ce"/><path d="m15.82 52.82-1.82 8.18h-9v-4.1a6 6 0 0 1 3.56-5.48l2.74-1.22.7 2.8 3-1z" fill="#3d9ae2"/><circle cx="7" cy="7" fill="#ff9811" r="2"/><path d="m25 37a2 2 0 0 1 0 4 2.03 2.03 0 0 1 -1.04-.29 5.529 5.529 0 0 0 .04-.71v-2.73a2 2 0 0 1 1-.27z" fill="#ffb655"/><path d="m26 31v3l-2 2h-.56a2.009 2.009 0 0 1 -1.9-1.37l-.54-1.63-1.87 1.4a7.982 7.982 0 0 1 -4.8 1.6h-4.33l-3-3 1-2-2-4h16a4 4 0 0 1 4 4z" fill="#57565c"/><path d="m24 37.27v2.73a5.529 5.529 0 0 1 -.04.71 6.937 6.937 0 0 1 -3.96 5.61 7.017 7.017 0 0 1 -7.95-1.37 6.938 6.938 0 0 1 -2.01-4.24 5.529 5.529 0 0 1 -.04-.71v-4h4.33a7.982 7.982 0 0 0 4.8-1.6l1.87-1.4.54 1.63a2.009 2.009 0 0 0 1.9 1.37h.56z" fill="#ffc477"/><path d="m20 46v3l-2 1h-2l-2-1v-3z" fill="#ffc477"/><path d="m10 40a5.529 5.529 0 0 0 .04.71 2.03 2.03 0 0 1 -1.04.29 2 2 0 1 1 1-3.73z" fill="#ffb655"/><path d="m20 46.32v1a6.958 6.958 0 0 1 -6 0v-1a6.958 6.958 0 0 0 6 0z" fill="#ffb655"/><path d="m52.72 51.21c-.77 1.62-3.04 2.79-5.72 2.79s-4.95-1.17-5.72-2.79l2.72-1.21v-3h6v3z" fill="#ffc477"/><path d="m50 47v1.32a6.958 6.958 0 0 1 -6 0v-1.32z" fill="#ffb655"/><path d="m52.66 37a4 4 0 0 1 -2.83-1.17l-1.83-1.83-.81 1.22a4 4 0 0 1 -3.33 1.78h-3.86v4a7 7 0 0 0 14 0v-4z" fill="#ffc477"/><rect fill="#ee8700" height="2" rx="1" width="2" x="13" y="38"/><rect fill="#ee8700" height="2" rx="1" width="2" x="19" y="38"/><rect fill="#ee8700" height="2" rx="1" width="2" x="43" y="39"/><rect fill="#ee8700" height="2" rx="1" width="2" x="49" y="39"/><path d="m26 23h12v2h-12z" fill="#ff9811"/><path d="m31 16.816v4.184h2v-4.184a3 3 0 0 0 2-2.816h-2a1 1 0 0 1 -2 0h-2a3 3 0 0 0 2 2.816z" fill="#ff9811"/><g fill="#ffd422"><path d="m31 2h2v2h-2z"/><path d="m25.5 3.473h2v2h-2z" transform="matrix(.866 -.5 .5 .866 1.313 13.847)"/><path d="m21.473 7.5h2v2h-2z" transform="matrix(.5 -.866 .866 .5 3.877 23.714)"/><path d="m20 13h2v2h-2z"/><path d="m21.473 18.5h2v2h-2z" transform="matrix(.866 -.5 .5 .866 -6.739 13.847)"/><path d="m40.526 18.5h2v2h-2z" transform="matrix(.5 -.866 .866 .5 3.878 45.716)"/><path d="m42 13h2v2h-2z"/><path d="m40.526 7.5h2v2h-2z" transform="matrix(.866 -.5 .5 .866 1.312 21.898)"/><path d="m36.5 3.473h2v2h-2z" transform="matrix(.5 -.866 .866 .5 14.879 34.715)"/></g><path d="m14 16h-2v2h-2v2h2v2h2v-2h2v-2h-2z" fill="#ff9811"/><path d="m57 6h-2v-2h-2v2h-2v2h2v2h2v-2h2z" fill="#ff9811"/></g></svg>