<svg height="512" viewBox="0 0 64 64" width="512" xmlns="http://www.w3.org/2000/svg"><g id="Oganization-Management"><path d="m54 21v8l-1.05.12-4.6.51a16.62 16.62 0 0 1 -1.52 3.66l2.42 3.02 1.13 1.42-5.65 5.65-4.44-3.55a2.639 2.639 0 0 1 -.29.15 15.468 15.468 0 0 1 -2.99 1.25c-.13.05-.25.08-.38.12l-.63 5.65h-8l-.63-5.65c-.13-.04-.25-.07-.38-.12a15.468 15.468 0 0 1 -2.99-1.25 2.639 2.639 0 0 1 -.29-.15l-4.44 3.55-5.65-5.65 3.55-4.44a16.62 16.62 0 0 1 -1.52-3.66l-5.65-.63v-8l5.65-.63a16.62 16.62 0 0 1 1.52-3.66l-3.55-4.44 5.65-5.65 4.44 3.55a16.62 16.62 0 0 1 3.66-1.52l.63-5.65h8l.63 5.65a16.62 16.62 0 0 1 3.66 1.52l4.44-3.55 5.65 5.65-3.55 4.44a16.62 16.62 0 0 1 1.52 3.66z" fill="#ff9811"/><path d="m59 58.9v2.1h-9l-1.82-6.18.82-.82 3 1 .7-2.8 2.74 1.22a6 6 0 0 1 3.56 5.48z" fill="#3d9ae2"/><path d="m55 39a2 2 0 0 1 0 4 2.03 2.03 0 0 1 -1.04-.29 5.529 5.529 0 0 0 .04-.71v-2.73a2 2 0 0 1 1-.27z" fill="#ffb655"/><path d="m52.7 52.2-.7 2.8-3-1-1-2 2-1z" fill="#1e81ce"/><path d="m53.44 38a2.009 2.009 0 0 1 -1.9-1.37l-.54-1.63-1.75 1.31-.12.09a7.982 7.982 0 0 1 -4.8 1.6h-4.33v4a5.529 5.529 0 0 0 .04.71 6.938 6.938 0 0 0 2.01 4.24 7 7 0 0 0 11.91-4.24 5.529 5.529 0 0 0 .04-.71v-4z" fill="#ffc477"/><path d="m50 48v3l-2 1h-2l-2-1v-3z" fill="#ffc477"/><path d="m48.18 54.82 1.82 6.18h-6l1.82-6.18 1.18 1.18z" fill="#ed1c24"/><path d="m48 52 1 2-.82.82-1.18 1.18-1.18-1.18-.82-.82 1-2z" fill="#ed1c24"/><path d="m46 52-1 2-3 1-.7-2.8 2.7-1.2z" fill="#1e81ce"/><path d="m45.82 54.82-1.82 6.18h-9v-2.1a6 6 0 0 1 3.56-5.48l2.74-1.22.7 2.8 3-1z" fill="#3d9ae2"/><path d="m41.16 29h-5.16l2 4a10 10 0 0 1 -12 0v-.01a4 4 0 0 0 -3.11-3.89 9.71 9.71 0 0 1 -.89-4.1 10 10 0 0 1 20 0 9.881 9.881 0 0 1 -.84 4z" fill="#ffd422"/><path d="m52.95 29.12a3.691 3.691 0 0 0 -.95-.12h-16l2 4-1 2 3 3h4.33a7.982 7.982 0 0 0 4.8-1.6l.12-.09 1.75-1.31.54 1.63a2.009 2.009 0 0 0 1.9 1.37h.56l2-2v-3a3.991 3.991 0 0 0 -3.05-3.88z" fill="#57565c"/><path d="m40 42v-2.73a2 2 0 0 0 -3 1.73 1.7 1.7 0 0 0 .01.23 2.005 2.005 0 0 0 3.03 1.48 5.529 5.529 0 0 1 -.04-.71z" fill="#ffb655"/><path d="m36.1 22.65a1.988 1.988 0 0 1 -.25 2.5l-3.85 3.85-3.85-3.85a1.978 1.978 0 0 1 1.4-3.38 1.94 1.94 0 0 1 1.1.33l1.35.9 1.35-.9a1.983 1.983 0 0 1 2.75.55z" fill="#ed1c24"/><path d="m29 58.9v2.1h-9l-1.82-6.18.82-.82 3 1 .7-2.8 2.74 1.22a6 6 0 0 1 3.56 5.48z" fill="#3d9ae2"/><path d="m25 39a2 2 0 0 0 -1 .27v2.73a5.529 5.529 0 0 1 -.04.71 2.005 2.005 0 0 0 3.03-1.48 1.7 1.7 0 0 0 .01-.23 2.006 2.006 0 0 0 -2-2z" fill="#ffb655"/><path d="m23.44 38a2.009 2.009 0 0 1 -1.9-1.37l-.29-.88-.25-.75-1.87 1.4a7.982 7.982 0 0 1 -4.8 1.6h-4.33v4a5.529 5.529 0 0 0 .04.71 6.938 6.938 0 0 0 2.01 4.24 7 7 0 0 0 11.91-4.24 5.529 5.529 0 0 0 .04-.71v-4z" fill="#ffc477"/><path d="m22.7 52.2-.7 2.8-3-1-1-2 2-1z" fill="#1e81ce"/><path d="m20 48v3l-2 1h-2l-2-1v-3z" fill="#ffc477"/><path d="m18.18 54.82 1.82 6.18h-6l1.82-6.18 1.18 1.18z" fill="#ed1c24"/><path d="m18 52 1 2-.82.82-1.18 1.18-1.18-1.18-.82-.82 1-2z" fill="#ed1c24"/><path d="m22.89 29.1a3.679 3.679 0 0 0 -.89-.1h-16l2 4-1 2 3 3h4.33a7.982 7.982 0 0 0 4.8-1.6l1.87-1.4.25.75.29.88a2.009 2.009 0 0 0 1.9 1.37h.56l2-2v-3.01a4 4 0 0 0 -3.11-3.89z" fill="#57565c"/><path d="m16 52-1 2-3 1-.7-2.8 2.7-1.2z" fill="#1e81ce"/><path d="m15.82 54.82-1.82 6.18h-9v-2.1a6 6 0 0 1 3.56-5.48l2.74-1.22.7 2.8 3-1z" fill="#3d9ae2"/><g fill="#ffb655"><path d="m10 42a5.529 5.529 0 0 0 .04.71 2.03 2.03 0 0 1 -1.04.29 2 2 0 1 1 1-3.73z"/><path d="m20 48.32v1a6.958 6.958 0 0 1 -6 0v-1a6.958 6.958 0 0 0 6 0z"/><path d="m50 48.32v1a6.958 6.958 0 0 1 -6 0v-1a6.958 6.958 0 0 0 6 0z"/></g><path d="m13 40h2v2h-2z"/><path d="m19 40h2v2h-2z"/><path d="m43 40h2v2h-2z"/><path d="m49 40h2v2h-2z"/><path d="m55.847 52.506-4.847-2.156v-1.443a7.973 7.973 0 0 0 3.75-4.941c.084.007.165.034.25.034a2.992 2.992 0 0 0 .376-5.962l1.331-1.331a1 1 0 0 0 .293-.707v-3a4.981 4.981 0 0 0 -2-3.978c0-.008 0-.014 0-.022v-8a1 1 0 0 0 -.89-.994l-5-.557a17.779 17.779 0 0 0 -1.089-2.632l3.14-3.917a1 1 0 0 0 -.074-1.332l-5.65-5.65a1 1 0 0 0 -1.331-.074l-3.922 3.131a17.791 17.791 0 0 0 -2.633-1.089l-.557-5a1 1 0 0 0 -.994-.886h-8a1 1 0 0 0 -.994.889l-.557 5a17.791 17.791 0 0 0 -2.633 1.089l-3.922-3.139a1 1 0 0 0 -1.332.074l-5.649 5.65a1 1 0 0 0 -.074 1.332l3.136 3.922a17.672 17.672 0 0 0 -1.089 2.632l-5 .557a1 1 0 0 0 -.886.994v7h-3a1 1 0 0 0 -.895 1.447l1.777 3.553-.777 1.553a1 1 0 0 0 .188 1.154l2.331 2.331a2.992 2.992 0 0 0 .376 5.962c.086 0 .167-.027.252-.035a8 8 0 0 0 2.092 3.693 7.839 7.839 0 0 0 1.656 1.235v1.457l-4.847 2.156a7 7 0 0 0 -4.153 6.394v2.1a1 1 0 0 0 1 1h24a1 1 0 0 0 1-1v-2.1a7 7 0 0 0 -4.153-6.394l-4.847-2.156v-1.443a7.973 7.973 0 0 0 3.75-4.941c.084.007.165.034.25.034a2.974 2.974 0 0 0 1.606-.475l.4 3.586a1 1 0 0 0 .994.889h8a1 1 0 0 0 .994-.889l.4-3.586a2.974 2.974 0 0 0 1.606.475c.086 0 .167-.027.252-.035a8 8 0 0 0 2.092 3.693 7.839 7.839 0 0 0 1.656 1.235v1.457l-4.847 2.156a7 7 0 0 0 -4.153 6.394v2.1a1 1 0 0 0 1 1h24a1 1 0 0 0 1-1v-2.1a7 7 0 0 0 -4.153-6.394zm-4.321.267-.234.937-1.583-.528-.367-.735.683-.341zm-4.526-2.773a7.915 7.915 0 0 0 2-.262v.644l-1.236.618h-1.528l-1.236-.618v-.644a7.927 7.927 0 0 0 2 .262zm-.783 3.8.4-.8h.764l.4.8-.781.786zm.087 2.912a.992.992 0 0 0 1.392 0l.967 3.288h-3.326zm9.696-15.712a1 1 0 0 1 -1 1v-2a1 1 0 0 1 1 1zm-1-5.414-1.414 1.414h-.145a1 1 0 0 1 -.949-.684l-.544-1.632a1 1 0 0 0 -.65-.639 1.016 1.016 0 0 0 -.298-.045 1 1 0 0 0 -.6.2l-1.866 1.4a7.045 7.045 0 0 1 -4.2 1.4h-3.92l-2.2-2.2.678-1.356a1 1 0 0 0 0-.894l-1.274-2.55h14.382a3 3 0 0 1 3 3zm-28.057-3.15a4.981 4.981 0 0 0 -3.3-4.135 8.7 8.7 0 0 1 -.643-3.301 9 9 0 0 1 18 0 8.855 8.855 0 0 1 -.527 3h-4.473a1 1 0 0 0 -.9 1.447l1.608 3.216a8.966 8.966 0 0 1 -9.77-.227zm-15.943-10.536 4.761-.531a1 1 0 0 0 .85-.719 15.68 15.68 0 0 1 1.427-3.439 1 1 0 0 0 -.087-1.121l-2.991-3.746 4.384-4.384 3.742 2.991a1 1 0 0 0 1.119.088 15.686 15.686 0 0 1 3.441-1.428 1 1 0 0 0 .718-.85l.536-4.761h6.2l.531 4.761a1 1 0 0 0 .718.85 15.686 15.686 0 0 1 3.451 1.428 1 1 0 0 0 1.119-.088l3.737-2.991 4.384 4.384-2.991 3.741a1 1 0 0 0 -.087 1.121 15.68 15.68 0 0 1 1.427 3.439 1 1 0 0 0 .85.719l4.761.536v6.2a5 5 0 0 0 -1-.1h-9.43a10.845 10.845 0 0 0 .43-3 11 11 0 0 0 -22 0 10.8 10.8 0 0 0 .431 3h-10.431zm-2.1 10.653-1.282-2.553h14.382a3 3 0 0 1 3 3v2.586l-1.414 1.414h-.145a1 1 0 0 1 -.949-.684l-.544-1.632a1 1 0 0 0 -.65-.639 1.016 1.016 0 0 0 -.298-.045 1 1 0 0 0 -.6.2l-1.866 1.4a7.045 7.045 0 0 1 -4.2 1.4h-3.92l-2.2-2.2.686-1.353a1 1 0 0 0 0-.894zm-.9 8.447a1 1 0 0 1 1-1v2a1 1 0 0 1 -1-1zm9.783 12.8-.783.786-.783-.783.4-.8h.764zm-1.483 2.915a.992.992 0 0 0 1.392 0l.971 3.285h-3.326zm2.7-6.333-1.236.618h-1.528l-1.236-.618v-.644a7.765 7.765 0 0 0 4 0zm-5.025 1.724.683.341-.367.735-1.583.528-.234-.937zm-7.975 6.794a5 5 0 0 1 2.966-4.567l1.653-.735.411 1.645a1 1 0 0 0 .97.757 1.01 1.01 0 0 0 .316-.051l2.361-.787-1.425 4.838h-7.252zm22 0v1.1h-7.252l-1.425-4.838 2.361.787a1.01 1.01 0 0 0 .316.051 1 1 0 0 0 .97-.757l.411-1.645 1.653.735a5 5 0 0 1 2.966 4.567zm-6.474-6.127-.234.937-1.583-.528-.367-.735.683-.341zm1.439-10.159a6 6 0 0 1 -8.543 4.8 5.855 5.855 0 0 1 -1.665-1.17 6 6 0 0 1 -1.726-3.663 4.614 4.614 0 0 1 -.031-.581v-3h3.333a9.05 9.05 0 0 0 5.4-1.8l.757-.567.106.316a2.994 2.994 0 0 0 2.404 2.016v3.035a4.762 4.762 0 0 1 -.035.614zm2.035-.614v-2a1 1 0 0 1 0 2zm10.636-.761-.536 4.761h-6.2l-.531-4.761a1 1 0 0 0 -.41-.7 2.988 2.988 0 0 0 -2.578-2.505l1.331-1.331a1 1 0 0 0 .288-.703v-1.2a10.96 10.96 0 0 0 9.035.432.984.984 0 0 0 .258.479l2.331 2.331a2.988 2.988 0 0 0 -2.578 2.505 1 1 0 0 0 -.41.692zm2.364-.239a1 1 0 0 1 1-1v2a1 1 0 0 1 -1-1zm3.031 1.58a4.614 4.614 0 0 1 -.031-.58v-3h3.333a9.05 9.05 0 0 0 5.4-1.8l.757-.567.106.316a2.994 2.994 0 0 0 2.404 2.016v3.035a4.762 4.762 0 0 1 -.035.614 6 6 0 0 1 -8.543 4.8 5.855 5.855 0 0 1 -1.665-1.17 6 6 0 0 1 -1.726-3.664zm2.944 9.526.683.341-.367.735-1.583.528-.234-.937zm-7.975 6.794a5 5 0 0 1 2.966-4.567l1.653-.735.411 1.645a1 1 0 0 0 .97.757 1.01 1.01 0 0 0 .316-.051l2.361-.787-1.425 4.838h-7.252zm22 1.1h-7.252l-1.425-4.838 2.361.787a1.01 1.01 0 0 0 .316.051 1 1 0 0 0 .97-.757l.411-1.645 1.653.735a5 5 0 0 1 2.966 4.567z"/><path d="m31 8h2v2h-2z"/><path d="m19.687 12.686h2v2h-2z" transform="matrix(.707 -.707 .707 .707 -3.619 18.636)"/><path d="m15 24h2v2h-2z"/><path d="m31 40h2v2h-2z"/><path d="m47 24h2v2h-2z"/><path d="m42.313 12.686h2v2h-2z" transform="matrix(.707 -.707 .707 .707 3.009 34.636)"/><path d="m32.707 29.707 3.853-3.852a2.987 2.987 0 0 0 .385-3.739l-.014-.023a2.983 2.983 0 0 0 -4.133-.827l-.798.534-.8-.531a2.981 2.981 0 0 0 -3.762 4.588l3.852 3.852a1 1 0 0 0 1.414 0zm-3.852-5.266a.981.981 0 0 1 .5-1.655.922.922 0 0 1 .2-.02.973.973 0 0 1 .542.165l1.351.9a1 1 0 0 0 1.11 0l1.352-.9a.983.983 0 0 1 1.351.259l.01.015a.985.985 0 0 1 -.122 1.237l-3.149 3.144z"/></g></svg>