<?xml version="1.0"?>
<svg xmlns="http://www.w3.org/2000/svg" viewBox="0 0 64 64" width="512" height="512"><g id="Business-Connection"><circle cx="55" cy="38" r="2" style="fill:#787680"/><path d="M40,16a2.977,2.977,0,0,1-2.72,2.98c-.68-.45-9.88-.45-10.56,0a3,3,0,0,1-1.17-5.61A1.944,1.944,0,0,1,25,12a1.979,1.979,0,0,1,.82-1.61A2.659,2.659,0,0,0,27,8.26V8a4.99,4.99,0,0,1,4.82-5A5.182,5.182,0,0,1,37,8.24v.03a2.67,2.67,0,0,0,1.19,2.13A1.979,1.979,0,0,1,39,12a1.944,1.944,0,0,1-.55,1.37A2.992,2.992,0,0,1,40,16Z" style="fill:#57565c"/><path d="M49,61H45V59a5.984,5.984,0,0,1,2.72-5.02,5.715,5.715,0,0,1,2.29-.89h5.98a5.715,5.715,0,0,1,2.29.89A5.984,5.984,0,0,1,61,59v2H49Z" style="fill:#a25bcd"/><path d="M61,42v8a4,4,0,0,1-4-4V43a4.025,4.025,0,0,0-1.17-2.83,3.329,3.329,0,0,0-.28-.25A2,2,0,0,0,57,38a3.995,3.995,0,0,1,4,4Z" style="fill:#3e3d42"/><path d="M57,43v2h-.17a2.006,2.006,0,0,1-1.42-.59L54,43l-.83.83A4,4,0,0,1,50.34,45H49V43a4,4,0,0,1,4-4,2.62,2.62,0,0,1,.28.01,3.985,3.985,0,0,1,2.27.91,3.329,3.329,0,0,1,.28.25A4.025,4.025,0,0,1,57,43Z" style="fill:#57565c"/><path d="M55.99,53.09C55.92,54.15,54.61,55,53,55s-2.92-.85-2.99-1.91l.16-.03a2.955,2.955,0,0,0,.79-1.62A2.119,2.119,0,0,0,51,51a2.76,2.76,0,0,0-.06-.57h4.12A2.76,2.76,0,0,0,55,51a2.119,2.119,0,0,0,.04.44,2.955,2.955,0,0,0,.79,1.62Z" style="fill:#ffc477"/><path d="M36,28H24V24a5.984,5.984,0,0,1,2.72-5.02,5.715,5.715,0,0,1,2.29-.89h5.98a5.715,5.715,0,0,1,2.29.89A5.984,5.984,0,0,1,40,24v4Z" style="fill:#ed539d"/><path d="M36.1,40.65a1.988,1.988,0,0,1-.25,2.5L32,47l-3.85-3.85a1.978,1.978,0,0,1,1.4-3.38,1.94,1.94,0,0,1,1.1.33L32,41l1.35-.9A1.983,1.983,0,0,1,36.1,40.65Z" style="fill:#ed1c24"/><path d="M34.99,18.09C34.92,19.15,33.61,20,32,20s-2.92-.85-2.99-1.91l.16-.03a2.955,2.955,0,0,0,.79-1.62A2.119,2.119,0,0,0,30,16a2.76,2.76,0,0,0-.06-.57h4.12A2.76,2.76,0,0,0,34,16a2.119,2.119,0,0,0,.04.44,2.955,2.955,0,0,0,.79,1.62Z" style="fill:#ffc477"/><path d="M15,61H3V54.47a4.02,4.02,0,0,1,2.21-3.58L9,49h4l3.79,1.89A4.02,4.02,0,0,1,19,54.47V61Z" style="fill:#3d9ae2"/><path d="M16,39v1l-1,2-3-2-2,2H7L6,41V39L5,37h9A2.006,2.006,0,0,1,16,39Z" style="fill:#57565c"/><path d="M15,42v2a4,4,0,0,1-8,0V42h3l2-2Z" style="fill:#ffc477"/><path d="M13,47v2a2,2,0,0,1-4,0V47Z" style="fill:#ffc477"/><path d="M13,47.46v1a3.974,3.974,0,0,1-4,0v-1a3.974,3.974,0,0,0,4,0Z" style="fill:#ffb655"/><path d="M34,16a2.119,2.119,0,0,0,.04.44,4,4,0,0,1-4.08,0A2.119,2.119,0,0,0,30,16a2.76,2.76,0,0,0-.06-.57h4.12A2.76,2.76,0,0,0,34,16Z" style="fill:#ffb655"/><path d="M35.83,10a2.006,2.006,0,0,1-1.42-.59L33,8l-.83.83A4,4,0,0,1,29.34,10H28v2a4,4,0,0,0,8,0V10Z" style="fill:#ffc477"/><path d="M55,51a2.119,2.119,0,0,0,.04.44,4,4,0,0,1-4.08,0A2.119,2.119,0,0,0,51,51a2.76,2.76,0,0,0-.06-.57h4.12A2.76,2.76,0,0,0,55,51Z" style="fill:#ffb655"/><path d="M56.83,45a2.006,2.006,0,0,1-1.42-.59L54,43l-.83.83A4,4,0,0,1,50.34,45H49v2a4,4,0,0,0,8,0V45Z" style="fill:#ffc477"/><path d="M24,29H40a1,1,0,0,0,1-1V24a6.969,6.969,0,0,0-1.793-4.673A3.961,3.961,0,0,0,41,16a4.006,4.006,0,0,0-1.216-2.878,3,3,0,0,0-1.008-3.535A1.716,1.716,0,0,1,38,8.24a6.379,6.379,0,0,0-1.946-4.564A5.778,5.778,0,0,0,31.782,2,5.99,5.99,0,0,0,26,8v.265a1.714,1.714,0,0,1-.771,1.316,3,3,0,0,0-1.013,3.541A4.006,4.006,0,0,0,23,16a3.96,3.96,0,0,0,1.794,3.328A6.96,6.96,0,0,0,23,24v4A1,1,0,0,0,24,29Zm15-2H37V23H35v4H29V23H27v4H25V24a4.98,4.98,0,0,1,2.272-4.186,4.73,4.73,0,0,1,1.108-.524A4.186,4.186,0,0,0,32,21a4.186,4.186,0,0,0,3.621-1.711,4.775,4.775,0,0,1,1.112.529A4.975,4.975,0,0,1,39,24Zm-5.194-8.629a2.907,2.907,0,0,1-3.612,0,3.9,3.9,0,0,0,.7-1.5,4.649,4.649,0,0,0,2.208,0A3.926,3.926,0,0,0,33.806,18.371ZM35,12a3,3,0,0,1-4.452,2.626,1.07,1.07,0,0,0-.111-.074,2.624,2.624,0,0,1-.551-.42,2.99,2.99,0,0,1-.732-1.2A2.749,2.749,0,0,1,29,12V11h.343a4.968,4.968,0,0,0,3.535-1.465L33,9.414l.707.707A2.991,2.991,0,0,0,35,10.885Zm3,0a.944.944,0,0,1-.268.674,1,1,0,0,0,.237,1.573A2,2,0,0,1,39,16a1.969,1.969,0,0,1-1.526,1.934,6.606,6.606,0,0,0-2.112-.8A1.958,1.958,0,0,1,35,16c0-.009,0-.019,0-.028A4.979,4.979,0,0,0,37,12V10.664a4.254,4.254,0,0,0,.6.539A.99.99,0,0,1,38,12ZM28,8a3.99,3.99,0,0,1,3.855-4,3.9,3.9,0,0,1,2.81,1.115A4.394,4.394,0,0,1,36,8.273a3.273,3.273,0,0,0,.1.746c-.033,0-.062-.019-.1-.019h-.171a1,1,0,0,1-.708-.293L33.707,7.293a1,1,0,0,0-1.414,0l-.829.828A3.017,3.017,0,0,1,29.343,9H28a.835.835,0,0,0-.1.02,3.255,3.255,0,0,0,.1-.755Zm-1.969,6.247a1,1,0,0,0,.237-1.573A.944.944,0,0,1,26,12a1.009,1.009,0,0,1,.412-.807A4.24,4.24,0,0,0,27,10.659V12a4.768,4.768,0,0,0,.256,1.562,4.97,4.97,0,0,0,1.207,1.976A4.68,4.68,0,0,0,29,15.99V16a1.958,1.958,0,0,1-.362,1.139,6.641,6.641,0,0,0-2.112.8A1.97,1.97,0,0,1,25,16,2,2,0,0,1,26.031,14.247Z"/><path d="M57.358,49.4A4.972,4.972,0,0,0,61,51a1,1,0,0,0,1-1V42a4.968,4.968,0,0,0-4.159-4.918A2.991,2.991,0,0,0,52,38c0,.034.012.066.013.1A5.007,5.007,0,0,0,48,43v4a4.768,4.768,0,0,0,.256,1.562,4.97,4.97,0,0,0,1.207,1.976A4.68,4.68,0,0,0,50,50.99V51a1.958,1.958,0,0,1-.362,1.139,6.7,6.7,0,0,0-2.464,1A6.969,6.969,0,0,0,44,59v2a1,1,0,0,0,1,1H61a1,1,0,0,0,1-1V59a6.969,6.969,0,0,0-3.168-5.854,6.676,6.676,0,0,0-2.47-1.007A1.958,1.958,0,0,1,56,51c0-.009,0-.019,0-.028A5.028,5.028,0,0,0,57.358,49.4ZM56,47a3,3,0,0,1-4.452,2.626,1.07,1.07,0,0,0-.111-.074,2.624,2.624,0,0,1-.551-.42,2.99,2.99,0,0,1-.732-1.2A2.749,2.749,0,0,1,50,47V46h.343a4.968,4.968,0,0,0,3.535-1.465L54,44.414l.707.707A2.991,2.991,0,0,0,56,45.885V47Zm4-5v6.829A3.006,3.006,0,0,1,58,46V43a4.965,4.965,0,0,0-.908-2.858,3.018,3.018,0,0,0,.681-1.028A2.955,2.955,0,0,1,60,42Zm-5-5a.989.989,0,0,1,.626,1.764,4.959,4.959,0,0,0-1.612-.66A.9.9,0,0,1,54,38,1,1,0,0,1,55,37Zm-2,3a3,3,0,0,1,3,3v.586l-1.293-1.293a1,1,0,0,0-1.414,0l-.829.828A3.017,3.017,0,0,1,50.343,44H50V43A3,3,0,0,1,53,40Zm7,19v1H58V58H56v2H50V58H48v2H46V59a4.98,4.98,0,0,1,2.272-4.186,4.73,4.73,0,0,1,1.108-.524,4.687,4.687,0,0,0,7.241,0,4.775,4.775,0,0,1,1.112.529A4.975,4.975,0,0,1,60,59Zm-5.194-5.629a2.907,2.907,0,0,1-3.612,0,3.9,3.9,0,0,0,.7-1.505,4.649,4.649,0,0,0,2.208,0A3.926,3.926,0,0,0,54.806,53.371Z"/><path d="M17.236,50,14,48.381v-.407A4.977,4.977,0,0,0,16,44V42.236l.895-1.789A1,1,0,0,0,17,40V39a3,3,0,0,0-3-3H5a1,1,0,0,0-.895,1.447L5,39.236V41a1,1,0,0,0,.293.707L6,42.414V44a4.977,4.977,0,0,0,2,3.974v.407L4.76,50A5.051,5.051,0,0,0,2,54.47V61a1,1,0,0,0,1,1H19a1,1,0,0,0,1-1V54.47A5.053,5.053,0,0,0,17.236,50ZM11,47a3,3,0,0,1-3-3V43h2a1,1,0,0,0,.707-.293l1.42-1.42L14,42.535V44A3,3,0,0,1,11,47Zm3-9a1,1,0,0,1,1,1v.764l-.388.776-2.057-1.372a1,1,0,0,0-1.262.125L9.586,41H7.414L7,40.586V39a1,1,0,0,0-.105-.447L6.618,38ZM11,49a5,5,0,0,0,1-.1V49a1,1,0,0,1-2,0v-.1A5,5,0,0,0,11,49Zm7,11H16V56H14v4H8V56H6v4H4V54.47a3.037,3.037,0,0,1,1.656-2.686l2.722-1.357a2.972,2.972,0,0,0,5.244,0l2.718,1.355A3.039,3.039,0,0,1,18,54.47Z"/><path d="M36.93,40.093a2.977,2.977,0,0,0-4.132-.826L32,39.8l-.8-.531a2.981,2.981,0,0,0-3.762,4.588l3.852,3.852a1,1,0,0,0,1.414,0l3.852-3.853A2.986,2.986,0,0,0,36.93,40.093ZM35.145,42.44,32,45.586l-3.145-3.145a.981.981,0,0,1,.7-1.674.97.97,0,0,1,.543.164l1.351.9a1,1,0,0,0,1.11,0l1.352-.9a.984.984,0,0,1,.736-.146.981.981,0,0,1,.5,1.655Z"/><rect x="31" y="31" width="2" height="6"/><rect x="20.964" y="47.5" width="7.071" height="2" transform="translate(-27.119 31.529) rotate(-45)"/><rect x="38.5" y="44.964" width="2" height="7.071" transform="translate(-22.725 42.136) rotate(-45)"/></g></svg>
