<svg id="Startup" height="512" viewBox="0 0 64 64" width="512" xmlns="http://www.w3.org/2000/svg"><path d="m61 20a16 16 0 0 1 -16 16 15.769 15.769 0 0 1 -4.63-.69l-6.37 4.69.54-7.91a15.995 15.995 0 1 1 26.46-12.09z" fill="#00ccb3"/><path d="m53.49 25.65a.994.994 0 0 1 -.93 1.35h-3.56l-1-2h1v-6h.61a2.014 2.014 0 0 1 1.88 1.3z" fill="#1e81ce"/><path d="m45 25h-4v-9.62a9.755 9.755 0 0 1 1.7-5.57c.67-.98 1.49-1.81 2.3-1.81s1.63.83 2.3 1.81a9.755 9.755 0 0 1 1.7 5.57v9.62z" fill="#3d9ae2"/><path d="m47 25-1 3h-2l-1-3h2z" fill="#1e81ce"/><path d="m42 25-1 2h-3.56a.994.994 0 0 1 -.93-1.35l2-5.35a2.014 2.014 0 0 1 1.88-1.3h.61v6z" fill="#1e81ce"/><path d="m29 56.9v4.1h-9l-1.82-8.18.82-.82 3 1 .7-2.8 2.74 1.22a6 6 0 0 1 3.56 5.48z" fill="#3d9ae2"/><path d="m22.7 50.2-.7 2.8-3-1-1-2 2-1z" fill="#1e81ce"/><path d="m18.18 52.82 1.82 8.18h-6l1.82-8.18 1.18 1.18z" fill="#ed1c24"/><path d="m18 50 1 2-.82.82-1.18 1.18-1.18-1.18-.82-.82 1-2z" fill="#ed1c24"/><path d="m16 50-1 2-3 1-.7-2.8 2.7-1.2z" fill="#1e81ce"/><path d="m15.82 52.82-1.82 8.18h-9v-4.1a6 6 0 0 1 3.56-5.48l2.74-1.22.7 2.8 3-1z" fill="#3d9ae2"/><path d="m25 37a2 2 0 0 1 0 4 2.03 2.03 0 0 1 -1.04-.29 5.529 5.529 0 0 0 .04-.71v-2.73a2 2 0 0 1 1-.27z" fill="#ffb655"/><path d="m26 31v3l-2 2h-.56a2.009 2.009 0 0 1 -1.9-1.37l-.54-1.63-1.87 1.4a7.982 7.982 0 0 1 -4.8 1.6h-4.33l-3-3 1-2-2-4h16a4 4 0 0 1 4 4z" fill="#57565c"/><path d="m24 37.27v2.73a5.529 5.529 0 0 1 -.04.71 6.937 6.937 0 0 1 -3.96 5.61 7.017 7.017 0 0 1 -7.95-1.37 6.938 6.938 0 0 1 -2.01-4.24 5.529 5.529 0 0 1 -.04-.71v-4h4.33a7.982 7.982 0 0 0 4.8-1.6l1.87-1.4.54 1.63a2.009 2.009 0 0 0 1.9 1.37h.56z" fill="#ffc477"/><path d="m20 46v3l-2 1h-2l-2-1v-3z" fill="#ffc477"/><path d="m10 40a5.529 5.529 0 0 0 .04.71 2.03 2.03 0 0 1 -1.04.29 2 2 0 1 1 1-3.73z" fill="#ffb655"/><path d="m20 46.32v1a6.958 6.958 0 0 1 -6 0v-1a6.958 6.958 0 0 0 6 0z" fill="#ffb655"/><path d="m52.423 19.947a3.01 3.01 0 0 0 -2.423-1.917v-2.651a10.729 10.729 0 0 0 -1.873-6.142q-3.127-4.517-6.254 0a10.729 10.729 0 0 0 -1.873 6.142v2.651a3.011 3.011 0 0 0 -2.423 1.916l-2.007 5.354a2 2 0 0 0 1.873 2.7h3.557a1 1 0 0 0 .9-.553l.52-1.041.637 1.91a1 1 0 0 0 .943.684h2a1 1 0 0 0 .948-.684l.637-1.91.52 1.041a1 1 0 0 0 .895.553h3.557a2 2 0 0 0 1.873-2.7zm-10.423-4.568a8.729 8.729 0 0 1 1.518-5c.752-1.089 1.282-1.379 1.482-1.379s.73.29 1.482 1.376a8.729 8.729 0 0 1 1.518 5v8.624h-2v-6h-2v6h-2zm-4.557 10.621 2.007-5.352a.994.994 0 0 1 .55-.559v4.911a.982.982 0 0 0 .469.826l-.087.174zm7.278 1-.334-1h1.226l-.334 1zm4.9-1-.087-.174a.982.982 0 0 0 .466-.826v-4.911a1 1 0 0 1 .55.56l2.007 5.351z"/><path d="m45 14.118 1.553.777.894-1.79-2-1a1 1 0 0 0 -.894 0l-2 1 .894 1.79z"/><path d="m44 31h2v2h-2z"/><path d="m50 30h2v2h-2z"/><path d="m38 30h2v2h-2z"/><path d="m13 38h2v2h-2z"/><path d="m19 38h2v2h-2z"/><path d="m25.847 50.506-4.847-2.155v-1.443a7.974 7.974 0 0 0 3.75-4.942c.084.007.165.034.25.034a2.992 2.992 0 0 0 .376-5.962l1.331-1.331a1 1 0 0 0 .293-.707v-3a5.006 5.006 0 0 0 -5-5h-16a1 1 0 0 0 -.895 1.447l1.777 3.553-.777 1.553a1 1 0 0 0 .188 1.154l2.331 2.331a2.992 2.992 0 0 0 .376 5.962c.086 0 .167-.027.252-.035a8.005 8.005 0 0 0 2.092 3.693 7.839 7.839 0 0 0 1.656 1.235v1.458l-4.847 2.155a7 7 0 0 0 -4.153 6.394v4.1a1 1 0 0 0 1 1h24a1 1 0 0 0 1-1v-4.1a7 7 0 0 0 -4.153-6.394zm-4.321.268-.234.936-1.582-.527-.368-.736.683-.341zm-4.526-2.774a7.921 7.921 0 0 0 2-.262v.644l-1.236.618h-1.528l-1.236-.618v-.644a7.933 7.933 0 0 0 2 .262zm-.783 3.8.4-.8h.764l.4.8-.781.786zm.191 2.981a.919.919 0 0 0 1.184 0l1.161 5.219h-3.506zm9.592-15.781a1 1 0 0 1 -1 1v-2a1 1 0 0 1 1 1zm-17.1-8.447-1.282-2.553h14.382a3 3 0 0 1 3 3v2.586l-1.414 1.414h-.145a1 1 0 0 1 -.948-.684l-.544-1.632a1 1 0 0 0 -.651-.638.985.985 0 0 0 -.298-.046 1 1 0 0 0 -.6.2l-1.865 1.4a7.051 7.051 0 0 1 -4.2 1.4h-3.921l-2.2-2.2.686-1.353a1 1 0 0 0 0-.894zm-.9 8.447a1 1 0 0 1 1-1v2a1 1 0 0 1 -1-1zm3.031 1.579a4.588 4.588 0 0 1 -.031-.579v-3h3.333a9.057 9.057 0 0 0 5.4-1.8l.756-.567.106.316a2.994 2.994 0 0 0 2.405 2.016v3.035a4.762 4.762 0 0 1 -.035.614 6 6 0 0 1 -8.543 4.8 5.853 5.853 0 0 1 -1.665-1.171 6 6 0 0 1 -1.726-3.664zm2.944 9.527.683.341-.368.736-1.582.527-.234-.936zm-7.975 6.794a5 5 0 0 1 2.966-4.566l1.653-.735.411 1.643a1 1 0 0 0 .97.758.983.983 0 0 0 .316-.052l2.407-.8-1.523 6.852h-7.2zm22 3.1h-7.2l-1.525-6.854 2.407.8a.983.983 0 0 0 .318.054 1 1 0 0 0 .97-.758l.411-1.643 1.653.735a5 5 0 0 1 2.966 4.566z"/><path d="m45 3a16.987 16.987 0 0 0 -11.495 29.506l-.505 7.427a1 1 0 0 0 1.591.873l5.976-4.395a17 17 0 1 0 4.433-33.411zm0 32a14.99 14.99 0 0 1 -4.339-.643.989.989 0 0 0 -.882.152l-4.635 3.409.39-5.765a1 1 0 0 0 -.343-.823 14.985 14.985 0 1 1 9.809 3.67z"/></svg>