<svg id="Layer_3" height="512" viewBox="0 0 64 64" width="512" xmlns="http://www.w3.org/2000/svg" data-name="Layer 3"><path d="m58 63v-4.076a23.2 23.2 0 0 1 2-9.424 23.2 23.2 0 0 0 2-9.424v-1.076a12 12 0 0 0 -12-12 12 12 0 0 0 -12 12l-4 8h4v9h6v7z" fill="#ffd060"/><path d="m60 49.5a23.2 23.2 0 0 0 2-9.424v-1.076a11.994 11.994 0 0 0 -11-11.949 11.994 11.994 0 0 0 -11 11.949l-4 8h4v9h6v7h12v-4.076a23.2 23.2 0 0 1 2-9.424z" fill="#ffe693"/><path d="m60 39a4.992 4.992 0 0 0 -3.032-4.591 3.995 3.995 0 1 0 -7.968-.409v10a4 4 0 0 0 8 0 3.88 3.88 0 0 0 -.034-.405 5.007 5.007 0 0 0 3.034-4.595zm-5 3a3.006 3.006 0 0 1 -1.5-.4l-1 1.732a5 5 0 0 0 2.5.668 2 2 0 0 1 -4 0v-10a2 2 0 1 1 2.668 1.886l.666 1.886a4 4 0 0 0 1.944-1.484 3 3 0 0 1 -1.278 5.712z" fill="#ffa4ab"/><path d="m55 42a3.006 3.006 0 0 1 -1.5-.4l-1 1.732a5 5 0 0 0 2.5.668 2 2 0 0 1 -4 0v-10a2 2 0 1 1 2.668 1.886l.666 1.886a4 4 0 0 0 1.944-1.484 3 3 0 0 1 -1.278 5.712z" fill="#ffb6bc"/><path d="m6 63v-4.076a23.2 23.2 0 0 0 -2-9.424 23.2 23.2 0 0 1 -2-9.424v-1.076a12 12 0 0 1 12-12 12 12 0 0 1 12 12l4 8h-4v9h-6v7z" fill="#ffd060"/><path d="m4 49.5a23.2 23.2 0 0 1 -2-9.424v-1.076a11.994 11.994 0 0 1 11-11.949 11.994 11.994 0 0 1 11 11.949l4 8h-4v9h-6v7h-12v-4.076a23.2 23.2 0 0 0 -2-9.424z" fill="#ffe693"/><path d="m7.034 43.6a3.88 3.88 0 0 0 -.034.4 4 4 0 0 0 8 0v-10a4 4 0 1 0 -7.968.409 4.994 4.994 0 0 0 0 9.186zm-1.034-4.6a3 3 0 0 1 1.722-2.712 4 4 0 0 0 1.944 1.484l.666-1.886a2 2 0 1 1 2.668-1.886v10a2 2 0 0 1 -4 0 5 5 0 0 0 2.5-.669l-1-1.732a3 3 0 0 1 -4.5-2.599z" fill="#ffa4ab"/><path d="m6 39a3 3 0 0 1 1.722-2.712 4 4 0 0 0 1.944 1.484l.666-1.886a2 2 0 1 1 2.668-1.886v10a2 2 0 0 1 -4 0 5 5 0 0 0 2.5-.669l-1-1.732a3 3 0 0 1 -4.5-2.599z" fill="#ffb6bc"/><path d="m29 28v-4a3 3 0 0 0 -3-3l6-13 6 13a3 3 0 0 0 -3 3v4z" fill="#e5e5e5"/><path d="m38 21-6-13v20h3v-4a3 3 0 0 1 3-3z" fill="#f2f2f2"/><circle cx="32" cy="19" fill="#9c9d9e" r="2"/><path d="m35 28-1 8h-4l-1-8z" fill="#ffc239"/><path d="m15 3h34v1h-34z" fill="#e5e5e5"/><path d="m31 18h2v-7.833l-1-2.167-1 2.167z" fill="#9c9d9e"/><path d="m30 28 1 8h3l1-8z" fill="#ffd55d"/><path d="m49 3h-34v2h10.066a12.983 12.983 0 0 0 -5.886 8.835l-.027.165 2 .166a10.986 10.986 0 0 1 8.933-9h3.83a10.986 10.986 0 0 1 8.933 9l2-.166-.026-.165a12.983 12.983 0 0 0 -5.889-8.835h10.066z" fill="#bdbdbe"/><path d="m26 27h12v2h-12z" fill="#bdbdbe"/><path d="m32 27h6v2h-6z" fill="#d7d7d8"/><path d="m42 14h4v4h-4z" fill="#3997d4"/><path d="m18 14h4v4h-4z" fill="#3997d4"/><path d="m15 3h34v1h-34z" fill="#e5e5e5"/><circle cx="50" cy="4" fill="#c64635" r="2"/><circle cx="14" cy="4" fill="#c64635" r="2"/><path d="m30 2h4v4h-4z" fill="#3997d4"/><path d="m53 30a4 4 0 0 0 -4 4v10a4 4 0 0 0 8 0c0-.137-.021-.27-.034-.405a4.995 4.995 0 0 0 0-9.187 3.937 3.937 0 0 0 .034-.408 4 4 0 0 0 -4-4zm5 9a3 3 0 0 1 -4.5 2.6l-1 1.73a4.988 4.988 0 0 0 2.5.67 2 2 0 0 1 -4 0v-10a2 2 0 1 1 2.667 1.887l.666 1.884a3.983 3.983 0 0 0 1.944-1.483 3 3 0 0 1 1.723 2.712z"/><path d="m50 26a13.016 13.016 0 0 0 -13 12.76l-3.9 7.793a1 1 0 0 0 .9 1.447h3v8a1 1 0 0 0 1 1h5v6h2v-6h2v-2h-8v-8a1 1 0 0 0 -1-1h-2.382l3.282-6.553a1 1 0 0 0 .1-.447 11 11 0 0 1 22 0v1.075a22.07 22.07 0 0 1 -1.914 9.019 24.063 24.063 0 0 0 -2.086 9.831v4.075h2v-4.075a22.07 22.07 0 0 1 1.914-9.019 24.063 24.063 0 0 0 2.086-9.831v-1.075a13.015 13.015 0 0 0 -13-13z"/><path d="m11 48a4 4 0 0 0 4-4v-10a4 4 0 0 0 -8 0 3.937 3.937 0 0 0 .032.408 4.995 4.995 0 0 0 0 9.187c-.011.135-.032.268-.032.405a4 4 0 0 0 4 4zm-5-9a3 3 0 0 1 1.723-2.712 3.983 3.983 0 0 0 1.944 1.483l.666-1.884a2 2 0 1 1 2.667-1.887v10a2 2 0 0 1 -4 0 4.988 4.988 0 0 0 2.5-.67l-1-1.73a3 3 0 0 1 -4.5-2.6z"/><path d="m5 58.925v4.075h2v-4.075a24.063 24.063 0 0 0 -2.086-9.831 22.07 22.07 0 0 1 -1.914-9.019v-1.075a11 11 0 0 1 22 0 1 1 0 0 0 .105.447l3.277 6.553h-2.382a1 1 0 0 0 -1 1v8h-8v2h2v6h2v-6h5a1 1 0 0 0 1-1v-8h3a1 1 0 0 0 .895-1.447l-3.895-7.793a13 13 0 0 0 -26 .24v1.075a24.063 24.063 0 0 0 2.086 9.831 22.07 22.07 0 0 1 1.914 9.019z"/><path d="m31.092 7.581-6 13a1 1 0 0 0 .908 1.419 2 2 0 0 1 2 2v3h-2v2h2.117l.891 7.124 1.984-.248-.859-6.876h3.734l-.859 6.876 1.984.248.891-7.124h2.117v-2h-2v-3a2 2 0 0 1 2-2 1 1 0 0 0 .908-1.419l-6-13a1 1 0 0 0 -1.816 0zm1.908 11.419a1 1 0 1 1 -1-1 1 1 0 0 1 1 1zm1 5v3h-4v-3a4.005 4.005 0 0 0 -2.561-3.732l3.561-7.715v3.631a3 3 0 1 0 2 0v-3.631l3.561 7.715a4.005 4.005 0 0 0 -2.561 3.732z"/><path d="m14 1a3 3 0 1 0 2.816 4h8.25a12.979 12.979 0 0 0 -5.712 8h-1.354a1 1 0 0 0 -1 1v4a1 1 0 0 0 1 1h4a1 1 0 0 0 1-1v-4a1 1 0 0 0 -1-1h-.578a10.976 10.976 0 0 1 7.578-7.578v.578a1 1 0 0 0 1 1h4a1 1 0 0 0 1-1v-.578a10.976 10.976 0 0 1 7.578 7.578h-.578a1 1 0 0 0 -1 1v4a1 1 0 0 0 1 1h4a1 1 0 0 0 1-1v-4a1 1 0 0 0 -1-1h-1.354a12.979 12.979 0 0 0 -5.712-8h8.25a3 3 0 1 0 0-2h-12.184v-1a1 1 0 0 0 -1-1h-4a1 1 0 0 0 -1 1v1h-12.184a3 3 0 0 0 -2.816-2zm7 16h-2v-2h2zm24 0h-2v-2h2zm-31-12a1 1 0 1 1 1-1 1 1 0 0 1 -1 1zm36-2a1 1 0 1 1 -1 1 1 1 0 0 1 1-1zm-19 0h2v2h-2z"/></svg>