<?xml version="1.0" encoding="iso-8859-1"?>
<!-- Generator: Adobe Illustrator 19.0.0, SVG Export Plug-In . SVG Version: 6.00 Build 0)  -->
<svg version="1.1" id="Capa_1" xmlns="http://www.w3.org/2000/svg" xmlns:xlink="http://www.w3.org/1999/xlink" x="0px" y="0px"
	 viewBox="0 0 491.3 491.3" style="enable-background:new 0 0 491.3 491.3;" xml:space="preserve">
<circle style="fill:#41D3BD;" cx="61.661" cy="433.106" r="40"/>
<path style="fill:#11222B;" d="M117.661,433.106c0-17.608-8.184-33.32-20.928-43.592c14.376-26.552,40.416-41.6,68.048-57.328
	c19.944-11.352,40.568-23.088,56.816-39.704c5.384-5.512,10.576-10.96,14.936-16.976c20.512-28.296,32.688-62.712,34.264-96.896
	c0.512-11.096,0.12-25.552-7.048-39.512l26.336,13.168l7.16-14.312l-48-24c-2.08-1.04-4.496-1.12-6.64-0.232s-3.8,2.664-4.52,4.856
	l-16,48l15.168,5.064l9.944-29.84c0.76,1.52,1.456,2.896,2.032,3.968c4.56,8.52,6.232,18.128,5.584,32.104
	c-1.44,31.104-12.528,62.44-31.232,88.24c-3.728,5.136-8.48,10.112-13.432,15.176c-14.672,15.016-33.424,25.688-53.28,36.984
	c-28.256,16.08-57.256,32.856-73.864,63.072c-6.592-2.72-13.792-4.24-21.344-4.24c-30.872,0-56,25.128-56,56s25.128,56,56,56
	S117.661,463.978,117.661,433.106z M61.661,393.106c22.056,0,40,17.944,40,40s-17.944,40-40,40s-40-17.944-40-40
	S39.605,393.106,61.661,393.106z"/>
<circle style="fill:#41D3BD;" cx="285.661" cy="353.106" r="40"/>
<path style="fill:#11222B;" d="M285.661,297.106c-30.872,0-56,25.128-56,56s25.128,56,56,56s56-25.128,56-56
	S316.533,297.106,285.661,297.106z M285.661,393.106c-22.056,0-40-17.944-40-40s17.944-40,40-40s40,17.944,40,40
	S307.717,393.106,285.661,393.106z"/>
<circle style="fill:#41D3BD;" cx="381.661" cy="209.106" r="40"/>
<path style="fill:#11222B;" d="M381.661,265.106c30.872,0,56-25.128,56-56s-25.128-56-56-56s-56,25.128-56,56
	S350.789,265.106,381.661,265.106z M381.661,169.106c22.056,0,40,17.944,40,40s-17.944,40-40,40s-40-17.944-40-40
	S359.605,169.106,381.661,169.106z"/>
<circle style="fill:#41D3BD;" cx="101.661" cy="193.106" r="40"/>
<g>
	<path style="fill:#11222B;" d="M101.661,249.106c30.872,0,56-25.128,56-56s-25.128-56-56-56s-56,25.128-56,56
		S70.789,249.106,101.661,249.106z M101.661,153.106c22.056,0,40,17.944,40,40s-17.944,40-40,40s-40-17.944-40-40
		S79.605,153.106,101.661,153.106z"/>
	<path style="fill:#11222B;" d="M177.613,11.802c2.256,3.016,5.2,7.376,8.512,12.624l13.528-8.544
		c-3.584-5.68-6.704-10.288-9.264-13.688L177.613,11.802z"/>
	<path style="fill:#11222B;" d="M194.325,37.914c2.576,4.384,5.232,9.008,7.888,13.744l13.952-7.832
		c-2.704-4.832-5.424-9.56-8.064-14.04L194.325,37.914z"/>
	<path style="fill:#11222B;" d="M209.837,65.562c2.536,4.768,5.016,9.504,7.336,14.064l14.264-7.248
		c-2.368-4.656-4.888-9.488-7.496-14.344L209.837,65.562z"/>
	<path style="fill:#11222B;" d="M245.157,102.306c-1.536-4.128-3.744-9.272-6.552-15.312l-14.496,6.768
		c2.632,5.648,4.672,10.408,6.072,14.144L245.157,102.306z"/>
</g>
<g>
	<g transform="matrix(0.7071 -0.7071 0.7071 0.7071 -15.832 53.778)">
		<rect x="101.009" y="487.071" style="fill:#E07A5F;" width="16" height="113.12"/>
		<rect x="52.441" y="535.639" style="fill:#E07A5F;" width="113.12" height="16"/>
	</g>
	<g transform="matrix(0.7071 -0.7071 0.7071 0.7071 -2.9 7)">
		<rect x="-3.439" y="7.54" style="fill:#E07A5F;" width="16" height="113.12"/>
		<rect x="-52.007" y="56.108" style="fill:#E07A5F;" width="113.12" height="16"/>
	</g>
	<g transform="matrix(0.7071 -0.7071 0.7071 0.7071 7.04 40.991)">
		<rect x="245.513" y="264.99" style="fill:#E07A5F;" width="16" height="113.12"/>
		<rect x="196.945" y="313.558" style="fill:#E07A5F;" width="113.12" height="16"/>
	</g>
</g>
<g>
</g>
<g>
</g>
<g>
</g>
<g>
</g>
<g>
</g>
<g>
</g>
<g>
</g>
<g>
</g>
<g>
</g>
<g>
</g>
<g>
</g>
<g>
</g>
<g>
</g>
<g>
</g>
<g>
</g>
</svg>
