<svg id="Capa_1" enable-background="new 0 0 512 512" height="512" viewBox="0 0 512 512" width="512" xmlns="http://www.w3.org/2000/svg"><g><g><path d="m88.279 457.48h27.258c3.694 0 7.063-2.108 8.679-5.43l36.508-75.058h-39.467l-36.45 74.938c-1.247 2.565.621 5.55 3.472 5.55z" fill="#aa7a63"/></g><g><path d="m142.415 376.992-36.508 75.058c-1.616 3.322-4.985 5.43-8.679 5.43h18.31c3.694 0 7.063-2.108 8.679-5.43l36.508-75.058z" fill="#8b5e5e"/></g><g><path d="m409.514 457.48h-27.258c-3.694 0-7.063-2.108-8.679-5.43l-36.508-75.058h39.467l36.45 74.938c1.247 2.565-.621 5.55-3.472 5.55z" fill="#aa7a63"/></g><g><path d="m412.986 451.931-36.45-74.938h-17.824l36.45 74.938c1.247 2.564-.62 5.549-3.472 5.549h17.824c2.851 0 4.719-2.985 3.472-5.549z" fill="#8b5e5e"/></g><g><path d="m462.872 382.18h-413.744c-13.807 0-25-11.193-25-25v-260.776c0-13.807 11.193-25 25-25h413.744c13.807 0 25 11.193 25 25v260.776c0 13.807-11.193 25-25 25z" fill="#f6f1f1"/></g><g><path d="m462.872 71.404h-34.923v226.725c0 13.325-10.802 24.128-24.128 24.128h-379.693v34.923c0 13.807 11.193 25 25 25h413.744c13.807 0 25-11.193 25-25v-260.776c0-13.807-11.193-25-25-25z" fill="#e7ecf6"/></g><g><g><path d="m463.745 399.069h-415.49c-22.617 0-41.017-18.4-41.017-41.017v-262.52c0-22.617 18.4-41.017 41.017-41.017h415.489c22.617 0 41.017 18.4 41.017 41.017v262.52c.001 22.617-18.4 41.017-41.016 41.017zm-415.49-310.776c-3.991 0-7.238 3.247-7.238 7.238v262.52c0 3.991 3.247 7.238 7.238 7.238h415.489c3.991 0 7.238-3.247 7.238-7.238v-262.519c0-3.991-3.247-7.238-7.238-7.238h-415.489z" fill="#8b5e5e"/></g></g><g><path d="m483.447 59.569c2.544 5.339 3.971 11.312 3.971 17.619v278.792c0 13.666-11.079 24.745-24.745 24.745h-431.761c-7.13 0-13.833-1.822-19.675-5.021 6.61 13.806 20.718 23.365 37.018 23.365h415.489c22.617 0 41.017-18.4 41.017-41.017v-262.52c.001-15.481-8.622-28.982-21.314-35.963z" fill="#664545"/></g><g><circle cx="256" cy="221.292" fill="#e7a52e" r="80.872"/></g><g><path d="m470.983 307.842c3.998 0 7.238-3.24 7.238-7.238v-205.072c0-7.983-6.494-14.477-14.477-14.477h-415.489c-7.982 0-14.477 6.494-14.477 14.477v262.52c0 7.983 6.494 14.477 14.477 14.477h415.489c7.983 0 14.477-6.494 14.477-14.477v-25.541c0-3.998-3.24-7.238-7.238-7.238s-7.238 3.24-7.238 7.238v25.541h-415.49v-262.52h415.489v205.072c.001 3.998 3.241 7.238 7.239 7.238z"/><path d="m288.457 391.831h-240.202c-18.625 0-33.779-15.153-33.779-33.779v-262.52c0-18.625 15.153-33.779 33.779-33.779h59.97c3.998 0 7.238-3.24 7.238-7.238s-3.241-7.238-7.238-7.238h-59.97c-26.608 0-48.255 21.647-48.255 48.255v262.52c0 26.608 21.647 48.255 48.255 48.255h50.695l-20.652 42.458c-3.7 7.037 2.035 16.203 9.981 15.953h27.258c6.419 0 12.381-3.729 15.188-9.502l23.789-48.909h133.942c3.998 0 7.238-3.24 7.238-7.238.002-3.998-3.238-7.238-7.237-7.238zm-170.75 57.054c-.401.825-1.253 1.357-2.17 1.357h-21.859l21.37-43.934h23.369z"/><path d="m463.745 47.277h-322.276c-3.998 0-7.238 3.24-7.238 7.238s3.241 7.238 7.238 7.238h322.275c18.625 0 33.779 15.153 33.779 33.779v262.52c0 18.625-15.153 33.779-33.779 33.779h-142.559c-3.998 0-7.238 3.24-7.238 7.238s3.24 7.238 7.238 7.238h22.093l23.789 48.909c2.807 5.773 8.769 9.502 15.188 9.502h27.258c7.948.25 13.682-8.916 9.981-15.954l-20.651-42.457h64.901c26.608 0 48.255-21.647 48.255-48.255v-262.52c.001-26.608-21.646-48.255-48.254-48.255zm-59.63 402.965h-21.859c-.917 0-1.769-.533-2.171-1.357l-20.709-42.577h23.37z"/><path d="m439.588 168.797-18.964-18.964c-2.697-2.803-7.541-2.804-10.237.001l-18.963 18.964c-2.827 2.827-2.827 7.41.001 10.236 2.827 2.826 7.41 2.826 10.236-.001l6.606-6.606v41.225c0 1.331-1.082 2.413-2.413 2.413h-37.358c-3.998 0-7.238 3.24-7.238 7.238s3.24 7.238 7.238 7.238h37.358c9.313 0 16.889-7.577 16.889-16.889v-41.225l6.607 6.607c1.414 1.413 3.267 2.12 5.119 2.12s3.705-.707 5.119-2.12c2.826-2.827 2.826-7.409 0-10.237z"/><path d="m401.661 304.168c-2.827-2.827-7.41-2.827-10.236-.001-2.827 2.827-2.827 7.41-.001 10.236l18.963 18.964c2.696 2.805 7.541 2.804 10.237.001l18.964-18.964c2.827-2.827 2.827-7.41 0-10.237-2.827-2.826-7.41-2.826-10.237 0l-6.607 6.607v-41.224c0-9.313-7.577-16.889-16.889-16.889h-37.358c-3.998 0-7.238 3.24-7.238 7.238s3.24 7.238 7.238 7.238h37.358c1.331 0 2.413 1.082 2.413 2.413v41.225z"/><path d="m368.585 146.238c2.828 2.826 7.409 2.826 10.237 0 2.827-2.827 2.827-7.41 0-10.237l-8.881-8.881 8.881-8.881c2.827-2.827 2.827-7.41 0-10.237-2.827-2.826-7.41-2.826-10.237 0l-8.881 8.881-8.881-8.881c-2.827-2.826-7.41-2.826-10.237 0-2.827 2.827-2.827 7.41 0 10.237l8.881 8.881-8.881 8.881c-2.827 2.827-2.827 7.41 0 10.237 2.828 2.826 7.409 2.826 10.237 0l8.881-8.881z"/><path d="m105.888 256.715c-2.827-2.826-7.41-2.826-10.236 0l-8.882 8.882-8.882-8.882c-2.827-2.826-7.41-2.826-10.236 0-2.827 2.827-2.827 7.41 0 10.237l8.881 8.881-8.881 8.881c-2.827 2.827-2.827 7.41 0 10.237 2.827 2.826 7.41 2.826 10.236 0l8.882-8.882 8.882 8.882c2.827 2.826 7.41 2.826 10.236 0 2.827-2.827 2.827-7.41 0-10.237l-8.881-8.881 8.881-8.881c2.827-2.827 2.827-7.41 0-10.237z"/><path d="m147.429 329.009h43.547c3.998 0 7.238-3.24 7.238-7.238s-3.241-7.238-7.238-7.238h-43.547c-1.33 0-2.413-1.082-2.413-2.413v-79.167c0-9.313-7.577-16.889-16.889-16.889h-23.497c-1.33 0-2.413-1.082-2.413-2.413v-55.055c0-1.331 1.082-2.413 2.413-2.413h34.637l-6.607 6.607c-2.827 2.827-2.827 7.41 0 10.236 2.826 2.828 7.41 2.827 10.236.001l18.964-18.963c2.804-2.696 2.804-7.541 0-10.237l-18.964-18.964c-2.827-2.826-7.41-2.826-10.236 0-2.827 2.827-2.827 7.41 0 10.237l6.606 6.606h-34.636c-9.313 0-16.889 7.577-16.889 16.889v55.055c0 9.313 7.577 16.889 16.889 16.889h23.496c1.33 0 2.413 1.082 2.413 2.413v79.167c.001 9.314 7.577 16.89 16.89 16.89z"/><path d="m319.689 344.733c3.575 3.57 9.389 3.567 12.964-.004l24.075-24.076c2.827-2.827 2.827-7.41-.001-10.236-2.826-2.826-7.409-2.827-10.236.001l-20.321 20.322-8.661-8.661c-2.827-2.827-7.411-2.827-10.236-.001-2.827 2.827-2.827 7.41-.001 10.236z"/><path d="m344.111 221.291c0-48.584-39.526-88.111-88.111-88.111s-88.111 39.526-88.111 88.111 39.526 88.111 88.111 88.111 88.111-39.526 88.111-88.111zm-161.745 0c0-40.602 33.032-73.634 73.634-73.634s73.634 33.032 73.634 73.634-33.032 73.634-73.634 73.634-73.634-33.032-73.634-73.634z"/><circle cx="256.12" cy="273.89" r="7.716"/><path d="m271.976 196.263c.231 4.433-1.32 8.641-4.367 11.849-3.048 3.211-7.161 4.979-11.58 4.979-3.998 0-7.238 3.24-7.238 7.238v24.266c0 3.998 3.241 7.238 7.238 7.238 3.998 0 7.239-3.24 7.239-7.238v-17.91c5.618-1.385 10.806-4.357 14.84-8.606 5.806-6.116 8.762-14.131 8.325-22.567-.823-15.846-13.904-28.509-29.779-28.829-15.389-.347-28.648 10.954-30.776 26.199-1.267 5.124.812 11.526 6.944 11.478 3.998 0 7.238-3.24 7.238-7.238 0-.749.052-1.501.155-2.237 1.114-7.989 8.031-13.914 16.147-13.728 8.325.168 15.184 6.804 15.614 15.106z"/></g></g></svg>