<?xml version="1.0" encoding="iso-8859-1"?>
<!-- Generator: Adobe Illustrator 19.0.0, SVG Export Plug-In . SVG Version: 6.00 Build 0)  -->
<svg version="1.1" id="Capa_1" xmlns="http://www.w3.org/2000/svg" xmlns:xlink="http://www.w3.org/1999/xlink" x="0px" y="0px"
	 viewBox="0 0 485.656 485.656" style="enable-background:new 0 0 485.656 485.656;" xml:space="preserve">
<g>
	<circle style="fill:#17AFDC;" cx="240" cy="132" r="32"/>
	<path style="fill:#17AFDC;" d="M168,208.274V276h32v112h80V276h32v-67.726C312,183.822,292.178,164,267.727,164c0,0,0,0,0,0
		h-55.453C187.822,164,168,183.822,168,208.274C168,208.274,168,208.274,168,208.274L168,208.274z"/>
</g>
<circle style="fill:#5358A1;" cx="448" cy="36" r="24"/>
<circle style="fill:#F4393D;" cx="200" cy="36" r="24"/>
<circle style="fill:#FF7F00;" cx="384" cy="388" r="24"/>
<circle style="fill:#24DB6A;" cx="32" cy="444" r="24"/>
<circle style="fill:#FCCC38;" cx="88" cy="220" r="24"/>
<path d="M271.632,156.198c5.392-6.917,8.335-15.428,8.368-24.198c0-22.091-17.909-40-40-40s-40,17.909-40,40
	c0.033,8.77,2.976,17.281,8.368,24.198c-27.25,2.06-48.323,24.748-48.368,52.076V276c-0.003,4.416,3.575,7.997,7.991,8
	c0.003,0,0.006,0,0.009,0h24v104c-0.003,4.416,3.575,7.997,7.991,8c0.003,0,0.006,0,0.009,0h80c4.416,0.003,7.997-3.575,8-7.991
	c0-0.003,0-0.006,0-0.009V284h24c4.416,0.003,7.997-3.575,8-7.991c0-0.003,0-0.006,0-0.009v-67.727
	C319.955,180.946,298.882,158.258,271.632,156.198z M240,108c13.255,0,24,10.745,24,24c0,13.255-10.745,24-24,24s-24-10.745-24-24
	C216.014,118.751,226.751,108.014,240,108z M304,268h-16v-72h-16v184h-24V276h-16v104h-24V196h-16v72h-16v-59.727
	c0.023-20.024,16.25-36.25,36.273-36.273h55.453c20.024,0.023,36.25,16.25,36.273,36.273V268z"/>
<path d="M448,68c-17.673,0-32-14.327-32-32s14.327-32,32-32s32,14.327,32,32C479.982,53.666,465.666,67.982,448,68z M448,20
	c-8.837,0-16,7.163-16,16s7.163,16,16,16s16-7.163,16-16C463.989,27.168,456.832,20.011,448,20z"/>
<path d="M200,68c-17.673,0-32-14.327-32-32s14.327-32,32-32s32,14.327,32,32C231.982,53.666,217.666,67.982,200,68z M200,20
	c-8.837,0-16,7.163-16,16s7.163,16,16,16s16-7.163,16-16C215.989,27.168,208.832,20.011,200,20z"/>
<path d="M384,420c-17.673,0-32-14.327-32-32s14.327-32,32-32s32,14.327,32,32C415.982,405.666,401.666,419.982,384,420z M384,372
	c-8.837,0-16,7.163-16,16s7.163,16,16,16s16-7.163,16-16C399.989,379.168,392.832,372.011,384,372z"/>
<path d="M32,476c-17.673,0-32-14.327-32-32s14.327-32,32-32s32,14.327,32,32C63.982,461.666,49.666,475.982,32,476z M32,428
	c-8.837,0-16,7.163-16,16s7.163,16,16,16s16-7.163,16-16C47.989,435.168,40.832,428.011,32,428z"/>
<path d="M88,252c-17.673,0-32-14.327-32-32s14.327-32,32-32s32,14.327,32,32C119.982,237.666,105.666,251.982,88,252z M88,204
	c-8.837,0-16,7.163-16,16s7.163,16,16,16s16-7.163,16-16C103.989,211.168,96.832,204.011,88,204z"/>
<g>
	<path style="fill:#F4393D;" d="M485.656,118.344l-32-32c-3.122-3.124-8.186-3.125-11.309-0.003
		c-0.001,0.001-0.002,0.002-0.003,0.003l-32,32l11.312,11.312L440,111.312V116c-0.066,57.41-46.59,103.934-104,104v16
		c66.172,0,120-60.078,120-120v-4.688l18.344,18.344L485.656,118.344z"/>
	<path style="fill:#F4393D;" d="M107.669,147.668c8.652-30.157,29.541-55.312,57.596-69.355L158.109,64
		c-31.843,15.9-55.643,44.322-65.704,78.462l-13.546-22.579l-13.719,8.234l24,40c2.274,3.788,7.188,5.016,10.977,2.742l40-24
		l-8.234-13.719L107.669,147.668z"/>
	<path style="fill:#F4393D;" d="M340.203,412.953c-65.503,35.231-141.352,46.17-214.141,30.883l-19.138-4.028l17.872-13.41
		l-9.594-12.797l-32,24c-3.533,2.641-4.255,7.645-1.615,11.178c0.004,0.006,0.009,0.012,0.013,0.017l24,32l12.797-9.594
		l-11.244-14.997l15.611,3.286c76.489,16.083,156.201,4.59,225.031-32.445L340.203,412.953z"/>
</g>
<path d="M50.344,4L32,22.344L13.656,4L2.344,15.312l18.344,18.344L2.344,52l11.312,11.312L32,44.968l18.344,18.344L61.656,52
	L43.312,33.656l18.344-18.344L50.344,4z"/>
<path d="M378.344,86.344L360,104.688l-18.344-18.344l-11.312,11.312L348.688,116l-18.344,18.344l11.312,11.312L360,127.312
	l18.344,18.344l11.312-11.312L371.312,116l18.344-18.344L378.344,86.344z"/>
<path d="M450.344,305.656l11.312-11.312L443.312,276l18.344-18.344l-11.312-11.312L432,264.688l-18.344-18.344l-11.312,11.312
	L420.688,276l-18.344,18.344l11.312,11.312L432,287.312L450.344,305.656z"/>
<path d="M154.344,324L136,342.344L117.656,324l-11.312,11.312l18.344,18.344L106.344,372l11.312,11.312L136,364.968l18.344,18.344
	L165.656,372l-18.344-18.344l18.344-18.344L154.344,324z"/>
<path d="M477.656,433.656l-11.312-11.312L448,440.688l-18.344-18.344l-11.312,11.312L436.688,452l-18.344,18.344l11.312,11.312
	L448,463.312l18.344,18.344l11.312-11.312L459.312,452L477.656,433.656z"/>
<path d="M50.344,260L32,278.344L13.656,260L2.344,271.312l18.344,18.344L2.344,308l11.312,11.312L32,300.968l18.344,18.344
	L61.656,308l-18.344-18.344l18.344-18.344L50.344,260z"/>
<g>
</g>
<g>
</g>
<g>
</g>
<g>
</g>
<g>
</g>
<g>
</g>
<g>
</g>
<g>
</g>
<g>
</g>
<g>
</g>
<g>
</g>
<g>
</g>
<g>
</g>
<g>
</g>
<g>
</g>
</svg>
