<svg height="480pt" viewBox="0 0 480.23973 480" width="480pt" xmlns="http://www.w3.org/2000/svg"><path d="m168.121094 76.398438v23.679687c-.003906 1.941406-1.4375 3.582031-3.359375 3.839844l-22.640625 2.800781c-.742188 2.277344-1.652344 4.5-2.722656 6.640625l14 18c1.191406 1.515625 1.054687 3.6875-.320313 5.039063l-8.398437 8.402343-8.398438 8.398438c-1.355469 1.375-3.523438 1.511719-5.042969.320312l-18-14c-2.140625 1.070313-4.359375 1.980469-6.636719 2.71875l-2.800781 22.640625c-.261719 1.921875-1.902343 3.359375-3.839843 3.359375h-23.679688c-1.941406 0-3.582031-1.4375-3.839844-3.359375l-2.800781-22.640625c-2.277344-.738281-4.5-1.648437-6.640625-2.71875l-18 14c-1.515625 1.191407-3.6875 1.054688-5.039062-.320312l-16.800782-16.800781c-1.371094-1.351563-1.511718-3.523438-.320312-5.039063l14-18c-1.070313-2.140625-1.980469-4.363281-2.71875-6.640625l-22.640625-2.800781c-1.921875-.257813-3.359375-1.898438-3.359375-3.839844v-23.679687c0-1.9375 1.4375-3.578126 3.359375-3.839844l22.640625-2.800782c.738281-2.277343 1.648437-4.496093 2.71875-6.636718l-14-18c-1.191406-1.519532-1.050782-3.6875.320312-5.042969l16.800782-16.796875c1.351562-1.375 3.523437-1.511719 5.039062-.320312l18 14c2.140625-1.070313 4.363281-1.980469 6.640625-2.722657l2.800781-22.636719c.257813-1.925781 1.898438-3.359374 3.839844-3.363281h23.679688c1.9375.003907 3.578124 1.4375 3.839843 3.363281l2.800781 22.636719c2.277344.742188 4.496094 1.652344 6.636719 2.722657l18-14c1.519531-1.191407 3.6875-1.054688 5.042969.320312l16.796875 16.796875c1.375 1.355469 1.511719 3.523437.320313 5.042969l-14 18c1.070312 2.140625 1.980468 4.359375 2.722656 6.636718l22.640625 2.800782c1.921875.261718 3.355469 1.902344 3.359375 3.839844zm0 0" fill="#a78966"/><path d="m472.121094 76.398438v23.679687c-.003906 1.941406-1.4375 3.582031-3.359375 3.839844l-22.640625 2.800781c-.742188 2.277344-1.652344 4.5-2.722656 6.640625l14 18c1.191406 1.515625 1.054687 3.6875-.320313 5.039063l-16.796875 16.800781c-1.355469 1.375-3.523438 1.511719-5.042969.320312l-18-14c-2.140625 1.070313-4.359375 1.980469-6.636719 2.71875l-2.800781 22.640625c-.261719 1.921875-1.902343 3.359375-3.839843 3.359375h-23.679688c-1.941406 0-3.582031-1.4375-3.839844-3.359375l-2.800781-22.640625c-2.277344-.738281-4.5-1.648437-6.640625-2.71875l-18 14c-1.515625 1.191407-3.6875 1.054688-5.039062-.320312l-8.402344-8.398438-8.398438-8.402343c-1.371094-1.351563-1.511718-3.523438-.320312-5.039063l14-18c-1.070313-2.140625-1.980469-4.363281-2.71875-6.640625l-22.640625-2.800781c-1.921875-.257813-3.359375-1.898438-3.359375-3.839844v-23.679687c0-1.9375 1.4375-3.578126 3.359375-3.839844l22.640625-2.800782c.738281-2.277343 1.648437-4.496093 2.71875-6.636718l-14-18c-1.191406-1.519532-1.050782-3.6875.320312-5.042969l16.800782-16.796875c1.351562-1.375 3.523437-1.511719 5.039062-.320312l18 14c2.140625-1.070313 4.363281-1.980469 6.640625-2.722657l2.800781-22.636719c.257813-1.925781 1.898438-3.359374 3.839844-3.363281h23.679688c1.9375.003907 3.578124 1.4375 3.839843 3.363281l2.800781 22.636719c2.277344.742188 4.496094 1.652344 6.636719 2.722657l18-14c1.519531-1.191407 3.6875-1.054688 5.042969.320312l16.796875 16.796875c1.375 1.355469 1.511719 3.523437.320313 5.042969l-14 18c1.070312 2.140625 1.980468 4.359375 2.722656 6.636718l22.640625 2.800782c1.921875.261718 3.355469 1.902344 3.359375 3.839844zm0 0" fill="#a78966"/><path d="m472.121094 240.238281c0 13.257813-10.746094 24-24 24-13.257813 0-24-10.742187-24-24 0-13.253906 10.742187-24 24-24 13.253906 0 24 10.746094 24 24zm0 0" fill="#898890"/><path d="m432.121094 432.238281c.019531 13.449219-1.402344 26.859375-4.242188 40h-375.519531c-2.839844-13.140625-4.261719-26.550781-4.238281-40 .019531-73.183593 41.617187-140 107.277344-172.320312h.082031l19.839843 2.480469c.878907 2.75 1.976563 5.425781 3.28125 8l-16.800781 21.601562c-1.449219 1.828125-1.273437 4.457031.398438 6.078125l20.082031 20.082031c1.621094 1.671875 4.25 1.847656 6.078125.398438l21.601563-16.800782c2.574218 1.308594 5.25 2.402344 8 3.28125l3.359374 27.199219c.289063 2.296875 2.246094 4.011719 4.558594 4h28.480469c2.3125.011719 4.269531-1.703125 4.558594-4l3.363281-27.199219c2.75-.878906 5.421875-1.972656 8-3.28125l21.597656 16.800782c1.828125 1.449218 4.457032 1.273437 6.082032-.398438l20.078124-20.082031c1.675782-1.621094 1.847657-4.25.402344-6.078125l-16.800781-21.601562c1.304687-2.574219 2.402344-5.25 3.277344-8l19.84375-2.480469h.078125c65.660156 32.320312 107.257812 99.136719 107.28125 172.320312zm0 0" fill="#ffdaaa"/><path d="m424.121094 88.238281c0 17.675781-14.328125 32-32 32-17.675782 0-32-14.324219-32-32 0-17.671875 14.324218-32 32-32 17.671875 0 32 14.328125 32 32zm0 0" fill="#898890"/><path d="m120.121094 88.238281c0 17.675781-14.328125 32-32 32-17.675782 0-32-14.324219-32-32 0-17.671875 14.324218-32 32-32 17.671875 0 32 14.328125 32 32zm0 0" fill="#898890"/><path d="m336.121094 226v28.480469c.007812 2.3125-1.707032 4.269531-4 4.558593l-7.28125.878907h-.078125l-19.84375 2.480469c-.875 2.75-1.972657 5.425781-3.277344 8l16.800781 21.601562c1.445313 1.828125 1.273438 4.457031-.402344 6.078125l-20.078124 20.082031c-1.625 1.671875-4.253907 1.847656-6.082032.398438l-21.597656-16.800782c-2.578125 1.308594-5.25 2.402344-8 3.28125l-3.363281 27.199219c-.289063 2.296875-2.246094 4.011719-4.558594 4h-28.480469c-2.3125.011719-4.269531-1.703125-4.558594-4l-3.359374-27.199219c-2.75-.878906-5.425782-1.972656-8-3.28125l-21.601563 16.800782c-1.828125 1.449218-4.457031 1.273437-6.078125-.398438l-20.082031-20.082031c-1.671875-1.621094-1.847657-4.25-.398438-6.078125l16.800781-21.601562c-1.304687-2.574219-2.402343-5.25-3.28125-8l-19.839843-2.480469h-.082031l-7.277344-.878907c-2.296875-.289062-4.011719-2.246093-4-4.558593v-28.480469c-.011719-2.3125 1.703125-4.269531 4-4.558594l27.199218-3.363281c.878907-2.75 1.976563-5.421875 3.28125-8l-16.800781-21.597656c-1.449219-1.828125-1.273437-4.457031.398438-6.082031l10.082031-10 10-10.078126c1.621094-1.675781 4.25-1.847656 6.078125-.402343l21.601563 16.800781c2.574218-1.304688 5.25-2.402344 8-3.277344l3.359374-27.203125c.289063-2.292969 2.246094-4.007812 4.558594-4h28.480469c2.3125-.007812 4.269531 1.707031 4.558594 4l3.363281 27.203125c2.75.875 5.421875 1.972656 8 3.277344l21.597656-16.800781c1.828125-1.445313 4.457032-1.273438 6.082032.402343l20.078124 20.078126c1.675782 1.625 1.847657 4.253906.402344 6.082031l-16.800781 21.597656c1.304687 2.578125 2.402344 5.25 3.277344 8l27.203125 3.363281c2.292968.289063 4.007812 2.246094 4 4.558594zm0 0" fill="#a78966"/><g fill="#898890"><path d="m280.121094 240.238281c0 22.09375-17.910156 40-40 40-22.09375 0-40-17.90625-40-40 0-22.089843 17.90625-40 40-40 22.089844 0 40 17.910157 40 40zm0 0"/><path d="m264.121094 32.238281c0 13.257813-10.746094 24-24 24-13.257813 0-24-10.742187-24-24 0-13.253906 10.742187-24 24-24 13.253906 0 24 10.746094 24 24zm0 0"/><path d="m56.121094 240.238281c0 13.257813-10.746094 24-24 24-13.257813 0-24-10.742187-24-24 0-13.253906 10.742187-24 24-24 13.253906 0 24 10.746094 24 24zm0 0"/></g><path d="m240.121094 192.238281c-26.511719 0-48 21.492188-48 48 0 26.511719 21.488281 48 48 48 26.507812 0 48-21.488281 48-48-.027344-26.496093-21.503906-47.972656-48-48zm0 80c-17.675782 0-32-14.324219-32-32 0-17.671875 14.324218-32 32-32 17.671875 0 32 14.328125 32 32 0 17.675781-14.328125 32-32 32zm0 0"/><path d="m88.121094 48.238281c-22.09375 0-40 17.910157-40 40 0 22.09375 17.90625 40 40 40 22.089844 0 40-17.90625 40-40-.027344-22.078125-17.921875-39.972656-40-40zm0 64c-13.257813 0-24-10.742187-24-24 0-13.253906 10.742187-24 24-24 13.253906 0 24 10.746094 24 24 0 13.257813-10.746094 24-24 24zm0 0"/><path d="m480.121094 100.113281v-23.746093c-.015625-5.949219-4.441406-10.96875-10.34375-11.71875l-15.90625-2.007813 9.839844-12.648437c3.648437-4.707032 3.234374-11.390626-.96875-15.609376l-16.796876-16.800781c-4.21875-4.183593-10.890624-4.589843-15.585937-.949219l-12.640625 9.847657-1.992188-15.898438c-.746093-5.910156-5.773437-10.34375-11.734374-10.34375h-23.746094c-5.953125.007813-10.972656 4.4375-11.71875 10.34375l-2.007813 15.898438-12.640625-9.832031c-4.703125-3.648438-11.386718-3.234376-15.605468.96875l-16.800782 16.796874c-4.203125 4.222657-4.617187 10.902344-.96875 15.609376l9.863282 12.617187-15.902344 1.984375c-5.914063.75-10.34375 5.78125-10.34375 11.742188v23.746093c.011718 5.949219 4.4375 10.964844 10.34375 11.71875l15.902344 1.984375-9.839844 12.648438c-3.648438 4.703125-3.234375 11.386718.96875 15.605468l2.742187 2.738282-16.214843 16.230468-4.449219-4.457031c-4.488281-4.464843-11.601563-4.90625-16.605469-1.023437l-17.394531 13.5625-2.734375-21.867188c-.789063-6.289062-6.132813-11.007812-12.472656-11.015625h-6.246094v-73.132812c15.601562-4.03125 25.773437-19.03125 23.742187-35.019531-2.027343-15.984376-15.628906-27.964844-31.742187-27.964844-16.117188 0-29.714844 11.980468-31.746094 27.964844-2.03125 15.988281 8.140625 30.988281 23.746094 35.019531v73.132812h-6.25c-6.335938.007813-11.679688 4.726563-12.472656 11.015625l-2.734376 21.867188-17.398437-13.539063c-5.015625-3.863281-12.117187-3.417969-16.609375 1.042969l-4.417969 4.421875-16.238281-16.238281 2.742188-2.738282c4.203124-4.21875 4.617187-10.902343.96875-15.605468l-9.839844-12.625 15.921875-1.984375c5.90625-.761719 10.328125-5.789063 10.328125-11.742188v-23.746093c-.011719-5.945313-4.433594-10.960938-10.328125-11.71875l-15.921875-2.007813 9.839844-12.648437c3.648437-4.707032 3.234374-11.390626-.96875-15.609376l-16.796876-16.800781c-4.21875-4.183593-10.890624-4.589843-15.585937-.949219l-12.640625 9.847657-1.992188-15.898438c-.746093-5.910156-5.773437-10.34375-11.734374-10.34375h-23.746094c-5.953125.007813-10.972656 4.4375-11.71875 10.34375l-2.007813 15.898438-12.625-9.832031c-4.703125-3.648438-11.386719-3.234376-15.605469.96875l-16.800781 16.796874c-4.203125 4.222657-4.617187 10.902344-.96875 15.609376l9.847657 12.617187-15.917969 1.984375c-5.90625.757812-10.328125 5.789062-10.328125 11.742188v23.746093c.011718 5.949219 4.4375 10.964844 10.34375 11.71875l15.902344 1.984375-9.839844 12.648438c-3.648438 4.703125-3.234375 11.386718.96875 15.605468l16.800781 16.800782c4.21875 4.183594 10.886719 4.589844 15.582031.953125l12.640625-9.824219 1.992188 15.894531c.746093 5.914063 5.777343 10.347657 11.734375 10.34375h23.746094c5.953124-.003906 10.972656-4.4375 11.71875-10.34375l2.007812-15.894531 12.640625 9.832031c4.707031 3.648438 11.390625 3.234375 15.609375-.96875l2.734375-2.742187 16.242187 16.238281-4.425781 4.417969c-4.472656 4.492187-4.914062 11.605468-1.03125 16.613281l13.527344 17.386719-21.878906 2.734375c-6.289063.800781-11.003907 6.144531-11.015625 12.480469v6.246093h-73.136719c-4.027344-15.601562-19.03125-25.773437-35.015625-23.742187-15.988281 2.027344-27.96875 15.628906-27.96875 31.742187 0 16.117188 11.980469 29.714844 27.96875 31.746094 15.984375 2.03125 30.988281-8.140625 35.015625-23.746094h73.136719v6.25c.050781 2.097657.640625 4.148438 1.71875 5.953125-70.574219 41.929688-108.308594 122.773438-95.128906 203.796875h-34.589844v16h464v-16h-34.59375c13.183594-81.023437-24.546875-161.863281-95.121094-203.796875 1.070312-1.804687 1.660156-3.855468 1.714844-5.953125v-6.25h73.136718c4.027344 15.605469 19.027344 25.777344 35.015626 23.746094 15.984374-2.03125 27.964843-15.628906 27.964843-31.746094 0-16.113281-11.980469-29.714843-27.964843-31.742187-15.988282-2.03125-30.988282 8.140625-35.015626 23.742187h-73.136718v-6.246093c-.015625-6.332032-4.722656-11.671876-11-12.480469l-21.875-2.734375 13.539062-17.394532c3.875-5.011718 3.429688-12.117187-1.042968-16.605468l-4.398438-4.394532c5.433594-5.457031 10.839844-10.875 16.214844-16.253906l2.753906 2.75c4.21875 4.183594 10.886719 4.589844 15.582031.953125l12.625-9.832031 1.992188 15.894531c.746093 5.914063 5.777343 10.347657 11.734375 10.34375h23.746094c5.953124-.003906 10.972656-4.4375 11.71875-10.34375l2.007812-15.894531 12.640625 9.832031c4.707031 3.648438 11.390625 3.234375 15.609375-.96875l16.800781-16.800781c4.199219-4.21875 4.613281-10.902344.964844-15.605469l-9.863281-12.617187 15.921875-1.984375c5.90625-.761719 10.328125-5.789063 10.328125-11.742188zm-256-67.875c0-8.835937 7.164062-16 16-16 8.835937 0 16 7.164063 16 16 0 8.839844-7.164063 16-16 16-8.835938 0-16-7.160156-16-16zm-90.863282 112.699219-15.105468-11.746094c-2.417969-1.878906-5.695313-2.214844-8.441406-.863281-1.855469.914063-3.765626 1.71875-5.71875 2.398437-2.882813.996094-4.949219 3.542969-5.328126 6.570313l-2.398437 18.957031h-16.320313l-2.402343-18.957031c-.378907-3.027344-2.445313-5.574219-5.328125-6.570313-1.953125-.679687-3.863282-1.484374-5.71875-2.398437-2.746094-1.351563-6.023438-1.015625-8.441406.863281l-15.070313 11.746094-11.550781-11.5625 11.734375-15.09375c1.882812-2.417969 2.21875-5.691406.871093-8.441406-.917968-1.855469-1.71875-3.765625-2.398437-5.71875-.992187-2.894532-3.542969-4.964844-6.578125-5.34375l-18.941406-2.363282v-16.351562l18.964844-2.398438c3.035156-.378906 5.585937-2.453124 6.578124-5.34375.679688-1.957031 1.480469-3.867187 2.398438-5.71875 1.347656-2.75 1.007812-6.019531-.871094-8.433593l-11.757812-15.0625 11.550781-11.5625 15.101563 11.746093c2.417968 1.878907 5.695312 2.214844 8.441406.863282 1.847656-.921875 3.75-1.722656 5.695312-2.402344 2.894532-.988281 4.972656-3.539062 5.351563-6.574219l2.402343-18.960937h16.351563l2.398437 18.960937c.382813 3.035157 2.457032 5.585938 5.351563 6.574219 1.949219.679688 3.851563 1.480469 5.699219 2.402344 2.746094 1.351562 6.023437 1.015625 8.4375-.863282l15.105468-11.746093 11.550782 11.5625-11.800782 15.09375c-1.878906 2.414062-2.21875 5.691406-.871093 8.441406.921875 1.851563 1.722656 3.765625 2.402343 5.71875.988282 2.890625 3.542969 4.964844 6.574219 5.34375l18.96875 2.402344v16.351562l-18.96875 2.398438c-3.03125.378906-5.585937 2.453125-6.574219 5.34375-.679687 1.957031-1.480468 3.867187-2.402343 5.71875-1.34375 2.75-1.003907 6.019531.871093 8.433593l11.738282 15.097657zm-101.136718 111.300781c-8.835938 0-16-7.160156-16-16 0-8.835937 7.164062-16 16-16 8.835937 0 16 7.164063 16 16 0 8.839844-7.164063 16-16 16zm416-32c8.835937 0 16 7.164063 16 16 0 8.839844-7.164063 16-16 16-8.835938 0-16-7.160156-16-16 0-8.835937 7.164062-16 16-16zm-24 208c-.011719 10.730469-.972656 21.441407-2.863282 32h-362.273437c-14.277344-79.820312 25.570313-159.542969 97.984375-196.039062l12 1.503906-13.535156 17.394531c-3.875 5.007813-3.429688 12.117188 1.039062 16.605469l20.160156 20.160156c4.488282 4.472657 11.601563 4.910157 16.605469 1.023438l17.394531-13.527344 2.734376 21.863281c.792968 6.300782 6.152343 11.027344 12.503906 11.015625h28.496094c6.339843-.003906 11.683593-4.726562 12.472656-11.015625l2.734375-21.863281 17.402343 13.535156c5.011719 3.875 12.117188 3.429688 16.605469-1.039062l20.152344-20.152344c4.472656-4.492187 4.914063-11.605469 1.035156-16.617187l-13.53125-17.382813 12.042969-1.503906c62.019531 31.113281 101.078125 94.65625 100.839844 164.039062zm-96-203.199219v22.402344l-24.160156 3.015625c-3.035157.378907-5.589844 2.457031-6.578126 5.351563-.824218 2.402344-1.800781 4.753906-2.925781 7.03125-1.347656 2.75-1.011719 6.023437.871094 8.441406l14.953125 19.199219-15.875 15.878906-19.199219-14.96875c-2.417969-1.882813-5.699219-2.214844-8.445312-.863281-2.273438 1.128906-4.617188 2.105468-7.019531 2.929687-2.894532.988281-4.96875 3.539063-5.351563 6.574219l-3.070313 24.207031h-22.402343l-3.015625-24.160156c-.378906-3.035156-2.457032-5.585937-5.351563-6.574219-2.398437-.820312-4.742187-1.800781-7.015625-2.929687-2.75-1.351563-6.027344-1.015625-8.449218.867187l-19.199219 14.964844-15.925781-15.878906 14.949218-19.199219c1.882813-2.414063 2.222656-5.691406.875-8.441406-1.128906-2.277344-2.105468-4.625-2.929687-7.03125-.988281-2.894531-3.539063-4.972657-6.574219-5.351563l-24.160156-3.0625v-22.402344l24.160156-3.015624c3.035156-.378907 5.585938-2.457032 6.574219-5.351563.824219-2.40625 1.800781-4.753906 2.929687-7.03125 1.347656-2.75 1.007813-6.027344-.875-8.441406l-14.949218-19.199219 15.871093-15.878906 19.199219 14.964844c2.417969 1.882812 5.699219 2.21875 8.449219.867187 2.273437-1.128906 4.617187-2.109375 7.015625-2.929687 2.894531-.988282 4.972656-3.539063 5.351562-6.574219l3.070313-24.210938h22.402343l3.015626 24.160157c.378906 3.035156 2.457031 5.589843 5.351562 6.578124 2.402344.820313 4.746094 1.800782 7.015625 2.925782 2.75 1.355468 6.03125 1.019531 8.449219-.863282l19.199218-14.96875 15.871094 15.882813-14.949218 19.199219c-1.882813 2.414062-2.222657 5.691406-.875 8.4375 1.128906 2.28125 2.105468 4.628906 2.929687 7.035156.988281 2.894531 3.539063 4.96875 6.574219 5.351562zm136-132.625-18.96875 2.402344c-3.035156.378906-5.585938 2.453125-6.578125 5.34375-.675781 1.953125-1.480469 3.867188-2.398438 5.71875-1.34375 2.746094-1.007812 6.019532.871094 8.433594l11.738281 15.09375-11.554687 11.5625-15.101563-11.746094c-2.417968-1.878906-5.695312-2.214844-8.441406-.863281-1.855469.917969-3.765625 1.71875-5.71875 2.398437-2.882812.996094-4.949219 3.542969-5.328125 6.570313l-2.402344 18.960937h-16.292969l-2.402343-18.960937c-.378907-3.027344-2.445313-5.574219-5.328125-6.570313-1.953125-.675781-3.859375-1.476562-5.710938-2.398437-2.75-1.351563-6.03125-1.019531-8.449218.863281l-15.101563 11.746094-11.554687-11.5625 11.738281-15.09375c1.902343-2.417969 2.253906-5.710938.902343-8.472656-.917968-1.855469-1.71875-3.765625-2.398437-5.71875-.992187-2.894532-3.542969-4.964844-6.578125-5.34375l-18.941406-2.363282v-16.351562l18.964844-2.398438c3.035156-.378906 5.585937-2.453124 6.578124-5.34375.679688-1.957031 1.480469-3.867187 2.398438-5.71875 1.347656-2.75 1.007812-6.019531-.871094-8.433593l-11.757812-15.0625 11.550781-11.5625 15.101563 11.746093c2.417968 1.878907 5.695312 2.214844 8.441406.863282 1.847656-.921875 3.75-1.722656 5.695312-2.402344 2.894532-.988281 4.972656-3.539062 5.351563-6.574219l2.402343-18.960937h16.351563l2.398437 18.960937c.382813 3.035157 2.457032 5.585938 5.351563 6.574219 1.945313.679688 3.847656 1.480469 5.691406 2.402344 2.746094 1.351562 6.027344 1.015625 8.445313-.863282l15.105468-11.746093 11.550782 11.5625-11.800782 15.09375c-1.878906 2.414062-2.21875 5.691406-.871093 8.441406.921875 1.851563 1.722656 3.765625 2.402343 5.71875.988282 2.890625 3.542969 4.964844 6.574219 5.34375l18.96875 2.402344zm0 0"/><path d="m392.121094 48.238281c-22.09375 0-40 17.910157-40 40 0 22.09375 17.90625 40 40 40 22.089844 0 40-17.90625 40-40-.027344-22.078125-17.921875-39.972656-40-40zm0 64c-13.257813 0-24-10.742187-24-24 0-13.253906 10.742187-24 24-24 13.253906 0 24 10.746094 24 24 0 13.257813-10.746094 24-24 24zm0 0"/><path d="m112.121094 432.238281h72v16h-72zm0 0"/><path d="m143.519531 384.238281c-18.71875 1.839844-35.632812 11.960938-46.09375 27.59375l13.390625 8.800781c7.769532-11.4375 20.167969-18.890624 33.910156-20.394531 16.269532-1.011719 31.824219 6.800781 40.730469 20.449219l13.328125-8.847656c-12.078125-18.515625-33.207031-29.070313-55.265625-27.601563zm0 0"/><path d="m296.121094 432.238281h72v16h-72zm0 0"/><path d="m281.457031 411.816406 13.328125 8.847656c8.910156-13.644531 24.46875-21.445312 40.734375-20.425781 13.746094 1.507813 26.136719 8.96875 33.90625 20.410157l13.390625-8.800782c-10.457031-15.636718-27.367187-25.765625-46.089844-27.609375-22.050781-1.46875-43.183593 9.074219-55.269531 27.578125zm0 0"/></svg>