<svg id="Layer_35" enable-background="new 0 0 64 64" height="512" viewBox="0 0 64 64" width="512" xmlns="http://www.w3.org/2000/svg"><path d="m17 28h6l2 3.33c-1.33.88-2.39 2.15-3.01 3.7l-.99 2.47c0-1.72-.48-3.4-1.38-4.86l-1.62-2.64h-1l-5.43 14.47c-.34.92-1.22 1.53-2.21 1.53-1.3 0-2.36-1.06-2.36-2.36v-.23c0-.27.05-.54.14-.8l4.86-13.61v-1z" fill="#838f9b"/><path d="m35.31 2.69c-.42-.43-1.01-.69-1.65-.69h-.41c-.78 0-1.51.39-1.94 1.04l-4.94 7.4c-1.48 2.22-3.98 3.56-6.65 3.56h-1.39l.67 10-2 2-2-2 .67-10h-2.25c-3.27 0-6.22 1.99-7.43 5.03l-3.82 9.54c-.11.28-.17.59-.17.89v.14c0 1.33 1.07 2.4 2.4 2.4.97 0 1.84-.58 2.22-1.48l4.38-10.52h1v8h5 6v-9c1.6-.32 3.09-.96 4.39-1.87 1.31-.91 2.43-2.09 3.28-3.47l4.98-8.1c.23-.36.35-.79.35-1.22 0-.64-.26-1.23-.69-1.65z" fill="#b4dd7f"/><path d="m18.33 14 .67 10-2 2-2-2 .67-10h1.33z" fill="#e6e9ed"/><path d="m33 44h6l2.43 4.05c.37.62.57 1.33.57 2.06v9.39c0 .69-.28 1.32-.73 1.77s-1.08.73-1.77.73c-1.38 0-2.5-1.12-2.5-2.5v-8.34c0-.19-.05-.37-.15-.53l-2.85-4.63h-1l-5.43 14.47c-.34.92-1.22 1.53-2.21 1.53-1.3 0-2.36-1.06-2.36-2.36v-.23c0-.27.05-.54.14-.8l4.86-13.61v-1z" fill="#838f9b"/><path d="m51.31 18.69c-.42-.43-1.01-.69-1.65-.69h-.41c-.78 0-1.51.39-1.94 1.04l-4.94 7.4c-1.48 2.22-3.98 3.56-6.65 3.56h-1.39l.67 10-2 2-2-2 .67-10h-2.25c-1.61 0-3.14.48-4.42 1.33-1.33.88-2.39 2.15-3.01 3.7l-.99 2.47-2.83 7.07c-.11.28-.17.59-.17.89v.14c0 1.33 1.07 2.4 2.4 2.4.97 0 1.84-.58 2.22-1.48l4.38-10.52h1v8h5 6v-9c1.6-.32 3.09-.96 4.39-1.87 1.31-.91 2.43-2.09 3.28-3.47l4.98-8.1c.23-.36.35-.79.35-1.22 0-.64-.26-1.23-.69-1.65z" fill="#fcd770"/><path d="m33 30h1.33l.67 10-2 2-2-2 .67-10z" fill="#e6e9ed"/><circle cx="33" cy="24" fill="#f0d0b4" r="6"/><circle cx="17" cy="8" fill="#f0d0b4" r="6"/><g fill="#d3a06c"><path d="m62 2v6h-4-2v-6z"/><path d="m58 8v6h-2-4v-6h4z"/><path d="m58 14h4v6h-4-2v-6z"/><path d="m58 20v6h-2-4v-5.66-.34h4z"/><path d="m58 26h4v6h-4-2v-6z"/><path d="m58 32v6h-2-4v-6h4z"/><path d="m58 38h4v6h-4-2v-6z"/><path d="m58 44v6h-2-4v-6h4z"/><path d="m58 50h4v6h-4-2v-6z"/><path d="m58 56v6h-6v-6h4z"/></g><path d="m58 56h4v6h-4z" fill="#b27946"/><path d="m52 50h4v6h-4z" fill="#b27946"/><path d="m58 44h4v6h-4z" fill="#b27946"/><path d="m52 38h4v6h-4z" fill="#b27946"/><path d="m58 32h4v6h-4z" fill="#b27946"/><path d="m52 26h4v6h-4z" fill="#b27946"/><path d="m58 20h4v6h-4z" fill="#b27946"/><path d="m52 14h4v6h-4z" fill="#b27946"/><path d="m58 8h4v6h-4z" fill="#b27946"/><path d="m52 2h4v6h-4z" fill="#b27946"/><path d="m51 1v16.285c-.41-.181-.862-.285-1.338-.285h-.41c-1.118 0-2.157.556-2.778 1.486l-4.931 7.396c-.785 1.177-1.891 2.061-3.158 2.583 1.008-1.212 1.615-2.769 1.615-4.465 0-3.86-3.14-7-7-7s-7 3.14-7 7c0 2.006.853 3.813 2.21 5.09-1.012.135-1.973.437-2.859.884l-1.351-2.251v-7.931c3.114-.838 5.826-2.85 7.524-5.611l4.981-8.094c.324-.525.495-1.13.495-1.749 0-1.84-1.498-3.338-3.338-3.338h-.41c-1.118 0-2.157.556-2.778 1.486l-4.931 7.396c-.785 1.177-1.891 2.061-3.158 2.583 1.008-1.212 1.615-2.769 1.615-4.465 0-3.86-3.14-7-7-7s-7 3.14-7 7c0 2.006.853 3.813 2.21 5.09-3.194.426-5.927 2.51-7.15 5.567l-3.816 9.542c-.162.403-.244.828-.244 1.263v.138c0 1.875 1.525 3.4 3.4 3.4 1.377 0 2.609-.821 3.138-2.092l3.462-8.308v6.227l-4.804 13.45c-.13.364-.196.744-.196 1.132v.229c0 1.853 1.508 3.362 3.363 3.362 1.394 0 2.659-.877 3.148-2.182l5.086-13.564 1.174 1.906c.775 1.259 1.188 2.7 1.217 4.176l-2.745 6.862c-.161.404-.243.828-.243 1.264v.138c0 1.875 1.525 3.4 3.4 3.4 1.376 0 2.608-.821 3.138-2.092l3.462-8.308v6.228l-4.804 13.451c-.13.364-.196.743-.196 1.13v.229c0 1.853 1.508 3.362 3.363 3.362 1.394 0 2.659-.877 3.148-2.182l5.086-13.564 2.403 3.902v8.344c0 1.93 1.57 3.5 3.5 3.5s3.5-1.57 3.5-3.5v-9.392c0-.905-.246-1.795-.712-2.573l-2.288-3.812v-7.931c3.114-.839 5.826-2.85 7.524-5.611l3.476-5.648v38.467h12v-62zm10 6h-4v-4h4zm-4 2v4h-4v-4zm-2 6v4h-2v-4zm2 6v4h-4v-4zm-4 6h2v4h-2zm0 6h4v4h-4zm0 6h2v4h-2zm0 6h4v4h-4zm0 6h2v4h-2zm4 4v-4h4v4zm2-6v-4h2v4zm-2-6v-4h4v4zm2-6v-4h2v4zm-2-6v-4h4v4zm2-6v-4h2v4zm-2-6v-4h4v4zm2-6v-4h2v4zm-4-10v4h-2v-4zm-21.028 36.613-.972.973-.972-.973.574-8.613h.796zm-5.972-15.613c0-2.757 2.243-5 5-5s5 2.243 5 5-2.243 5-5 5-5-2.243-5-5zm-.793-13.008 4.93-7.396c.25-.373.666-.596 1.114-.596h.41c.738 0 1.339.601 1.339 1.338 0 .248-.068.49-.198.701l-4.981 8.094c-1.553 2.524-4.111 4.305-7.017 4.886l-.804.161v8.82h-4.586l2.614-2.614-.626-9.386h.317c3.015 0 5.815-1.498 7.488-4.008zm-10.605 4.008h.796l.574 8.614-.972.972-.972-.972zm-4.602-7c0-2.757 2.243-5 5-5s5 2.243 5 5-2.243 5-5 5-5-2.243-5-5zm-1.667 11-4.641 11.139c-.218.523-.725.861-1.292.861-.772 0-1.4-.628-1.4-1.4v-.138c0-.179.034-.354.101-.52l3.816-9.542c1.069-2.673 3.62-4.4 6.5-4.4h1.181l-.626 9.386 2.614 2.614h-3.586v-8zm.305 25.115c-.198.53-.711.885-1.275.885-.752 0-1.363-.611-1.363-1.362v-.229c0-.157.027-.312.08-.459l4.92-13.777v-.173h3.307zm7.921-15.115h3.875l1.248 2.08c-.956.793-1.743 1.788-2.313 2.945-.238-.662-.522-1.308-.895-1.913zm7.774 6-4.641 11.139c-.218.523-.725.861-1.292.861-.772 0-1.4-.628-1.4-1.4v-.138c0-.179.034-.353.101-.52l3.816-9.542c1.069-2.673 3.62-4.4 6.5-4.4h1.181l-.626 9.387 2.614 2.613h-3.586v-8zm.305 25.115c-.198.53-.711.885-1.275.885-.752 0-1.363-.611-1.363-1.362v-.229c0-.156.027-.311.08-.459l4.92-13.777v-.173h3.307zm13.934-11.552c.28.468.428 1.002.428 1.545v9.392c0 .827-.673 1.5-1.5 1.5s-1.5-.673-1.5-1.5v-8.344c0-.37-.103-.732-.297-1.049l-3.144-5.107h3.875zm10.23-27.523-4.981 8.094c-1.553 2.524-4.111 4.305-7.017 4.886l-.804.161v8.819h-4.586l2.614-2.613-.626-9.387h.317c3.016 0 5.815-1.498 7.488-4.008l4.93-7.396c.25-.373.666-.596 1.114-.596h.41c.738 0 1.339.601 1.339 1.338 0 .248-.068.491-.198.702zm2.198 35.96h4v4h-4zm6 4v-4h2v4z"/></svg>