<?xml version="1.0"?>
<svg xmlns="http://www.w3.org/2000/svg" id="filled_outline" data-name="filled outline" viewBox="0 0 512 512" width="512" height="512"><title>vision-strategy-mission-objective-forecast</title><path d="M264,282.6001V488H24V282.6001a48.00122,48.00122,0,0,1,22.56006-40.7002l22.52-14.06982L88,216H200l18.91992,11.83008,22.52,14.06982A48.00122,48.00122,0,0,1,264,282.6001Z" style="fill:#f07f2f"/><polygon points="218.92 227.83 160 312 128 312 69.08 227.83 88 216 200 216 218.92 227.83" style="fill:#e5e7e9"/><polygon points="120.632 301.474 128 272 120 248 120 232 168 232 168 248 160 272 167.368 301.474 160 312 128 312 120.632 301.474" style="fill:#f6bb00"/><path d="M72,80v88.00023A71.99976,71.99976,0,0,0,143.99977,240h.00014a71.99977,71.99977,0,0,0,71.99977-72.00009L215.99932,80,192,48H104Z" style="fill:#f5c99d"/><path d="M216,88H148a36,36,0,0,1-36-36V48a24,24,0,0,1,24-24h24a56,56,0,0,1,56,56Z" style="fill:#b1792c"/><path d="M72,88V56A24,24,0,0,1,96,32h0a16,16,0,0,1,16,16v9.37A30.63,30.63,0,0,1,81.37,88Z" style="fill:#956625"/><path d="M233.00006,120H176a24,24,0,0,0-24,24v0a24,24,0,0,0,24,24h57.00008Z" style="fill:#0078d1"/><path d="M160,392H285.1162a104,104,0,0,0,89.17926-50.49244L416,272l-40-32-48.05528,54.06219A53.44419,53.44419,0,0,1,288,312H160Z" style="fill:#d45d13"/><path d="M96,312h77.58067A48,48,0,0,0,205.691,299.67812L272,240l40,32-41.70454,69.50756A104,104,0,0,1,181.1162,392H112a88,88,0,0,1-88-88Z" style="fill:#f07f2f"/><path d="M24,304V488H264V392H112A88,88,0,0,1,24,304Z" style="fill:#de6a1e"/><path d="M368,200l-56,72-40-32-1.86429-7.45714A86.87551,86.87551,0,0,1,272,184v0h96Z" style="fill:#f5c99d"/><path d="M456,192v0a74.89106,74.89106,0,0,1-13.9497,43.52956L416,272l-40-32-8-40V184h88Z" style="fill:#f5c99d"/><path d="M321.00006,104H264a40,40,0,0,0-40,40V144a40,40,0,0,0,40,40h57Z" style="fill:#008ee6"/><path d="M432,88H360a55.99994,55.99994,0,0,0-55.99994,55.99994v.00012A55.99994,55.99994,0,0,0,360,200h72Z" style="fill:#009ff5"/><circle cx="432" cy="144" r="56" style="fill:#84d8e8"/><rect x="104" y="112" width="32" height="16"/><circle cx="120" cy="144" r="8"/><path d="M432,80H360a63.71946,63.71946,0,0,0-42.26465,16H264a47.8869,47.8869,0,0,0-35.73828,16H224V80a64.07207,64.07207,0,0,0-64-64H136a31.9704,31.9704,0,0,0-25.59546,12.81689A23.87319,23.87319,0,0,0,96,24,32.03667,32.03667,0,0,0,64,56V168a79.53984,79.53984,0,0,0,13.8374,44.91724l-35.51806,22.199A55.68073,55.68073,0,0,0,16,282.60352V488a8.00039,8.00039,0,0,0,8,8H264a8.00039,8.00039,0,0,0,8-8V400h13.11621a112.56992,112.56992,0,0,0,96.04-54.376l41.5415-69.23681,25.8628-36.20752a82.35522,82.35522,0,0,0,15.08252-40.58423A63.97805,63.97805,0,0,0,432,80ZM360,96h29.73535a63.86889,63.86889,0,0,0,0,96H360a48,48,0,0,1,0-96ZM113.32983,79.04321A43.936,43.936,0,0,0,148,96h59.999v16H176a31.98859,31.98859,0,0,0-16,59.69482V176a8.00917,8.00917,0,0,1-8,8h-8v16h8a24.0275,24.0275,0,0,0,24-24h31.48218A63.99158,63.99158,0,0,1,80,168V96h1.37012A38.61872,38.61872,0,0,0,113.32983,79.04321ZM176,160a16,16,0,0,1,0-32h42.75244a47.88041,47.88041,0,0,0,0,32H176Zm-5.12549,122.51465-2.54834-10.19336,7.26367-21.791A8.0151,8.0151,0,0,0,176,248v-6.69971a80.26685,80.26685,0,0,0,23.76221-16.01465l7.77221,4.85767ZM133.76562,264,128,246.70215v-.312a80.31495,80.31495,0,0,0,32,0v.312L154.23438,264ZM112,241.30029V248a8.0151,8.0151,0,0,0,.41016,2.53027l7.26367,21.791-2.54834,10.19336L80.46558,230.14331l7.77221-4.85767A80.26685,80.26685,0,0,0,112,241.30029ZM132.16528,304l-2.88794-4.12549L134.24585,280h19.5083l4.96851,19.87451L155.83472,304Zm88.95557-65.36523,16.07935,10.0498a39.88312,39.88312,0,0,1,7.00854,5.56494l-43.8689,39.48194a39.93213,39.93213,0,0,1-24.94531,10.22705Zm34.988,4.90478a55.77941,55.77941,0,0,0-10.42823-8.42334l-35.51806-22.199A79.50675,79.50675,0,0,0,223.59912,176h4.6626A47.90012,47.90012,0,0,0,261.582,191.93872a94.698,94.698,0,0,0,.793,42.54468l.69727,2.78882Zm22.99707-8.09961-1.20948-4.8374A78.73584,78.73584,0,0,1,277.98389,192h39.75146A63.75292,63.75292,0,0,0,352.042,207.48755L310.66479,260.687Zm39.51025,41.0835L363.583,218.7085l3.791,18.95434-45.40918,51.08521a45.44681,45.44681,0,0,1-18.11206,12.38086ZM264,112h40.60986a63.77163,63.77163,0,0,0,0,64H264a32,32,0,0,1,0-64ZM136,32h24a48.05375,48.05375,0,0,1,48,48H148a28.03146,28.03146,0,0,1-28-28V48A16.01833,16.01833,0,0,1,136,32ZM96,40a8.00917,8.00917,0,0,1,8,8v9.37012A22.65506,22.65506,0,0,1,81.37012,80H80V56A16.01833,16.01833,0,0,1,96,40ZM32,282.60352a39.77155,39.77155,0,0,1,18.7998-33.91895l16.07935-10.0498L112.63477,304H96v16h77.58105A55.91424,55.91424,0,0,0,211.043,305.624l61.26172-55.13574L301.543,273.87891,263.43652,337.3916A96.48877,96.48877,0,0,1,181.11621,384H112a80.09041,80.09041,0,0,1-80-80ZM256,480H32V357.00342A95.98547,95.98547,0,0,0,112,400H256ZM367.43652,337.3916A96.48877,96.48877,0,0,1,285.11621,384H238.62305a111.93483,111.93483,0,0,0,38.5332-38.376l15.49268-25.82177a61.48409,61.48409,0,0,0,41.2749-20.4253l43.00976-48.38574,28.60938,22.8877ZM435.541,230.87891,414.40063,260.4751,383.27319,235.573,377.75854,208H432a63.91509,63.91509,0,0,0,14.44922-1.665A66.55965,66.55965,0,0,1,435.541,230.87891ZM432,192a48,48,0,1,1,48-48A48.05375,48.05375,0,0,1,432,192Z"/><rect x="416" y="152" width="16" height="16"/><rect x="448" y="152" width="16" height="16"/></svg>
