<svg id="Capa_1" enable-background="new 0 0 512 512" height="512" viewBox="0 0 512 512" width="512" xmlns="http://www.w3.org/2000/svg"><g><g><g><path d="m262.308 365.056-31.84-82.382c-1.542-3.989-.897-8.503 1.734-11.874 14.315-18.346 22.926-41.359 23.155-66.378.553-60.412-48.477-110.276-108.889-110.696-60.929-.423-110.453 48.84-110.453 109.67 0 6.319.537 12.513 1.564 18.539.36 2.111-.239 4.271-1.646 5.886l-26.82 30.794c-3.053 3.506-1.805 8.969 2.468 10.8l22.121 9.48c1.237.53 1.906 1.879 1.58 3.185l-2.526 10.102c-.688 2.751.383 5.641 2.697 7.28l4.414 3.126c.86.609 1.084 1.761.574 2.683-1.318 2.383-1.8 5.292-1.027 8.342 1.256 4.952 5.845 8.333 10.954 8.328.927-.001 1.713.681 1.843 1.598l.775 5.47c.421 2.974.311 5.999-.327 8.934l-2.434 11.197c-.884 4.065-.15 8.315 2.045 11.849 3.583 5.769 10.415 8.65 17.047 7.189l49.402-10.883c1.653-.364 3.323.533 3.933 2.111l20.049 51.874c1.299 3.362 5.078 5.034 8.439 3.734l107.432-41.521c3.364-1.297 5.036-5.076 3.736-8.437z" fill="#c6865c"/></g><g><g><path d="m262.308 365.056-31.84-82.382c-1.539-3.981-.907-8.492 1.719-11.856 14.324-18.349 22.94-41.369 23.17-66.397.466-50.881-34.243-94.278-81.3-106.955 30.686 19.745 50.992 54.339 50.635 93.333-.199 21.744-6.729 41.973-17.833 58.94-5.732 8.758-6.89 19.741-3.116 29.504l27.9 72.19c1.299 3.362-.373 7.14-3.734 8.439l-91.42 35.332 6.213 16.076c1.299 3.362 5.078 5.034 8.439 3.734l107.432-41.521c3.363-1.297 5.035-5.076 3.735-8.437z" fill="#c17d4f"/></g></g></g><g><g><g><g><path d="m155.047 117.667-68.736 68.933c-1.14 1.143-.33 3.094 1.284 3.094h22.499c1.467 0 2.435 1.528 1.807 2.854l-25.617 54.104c-.669 1.414 1.14 2.689 2.246 1.582l69.059-69.059c1.143-1.143.333-3.096-1.282-3.096h-23.041c-1.471 0-2.438-1.535-1.803-2.862l25.829-53.964c.677-1.415-1.137-2.697-2.245-1.586z" fill="#ffd064"/></g></g></g><g><g><g><g><path d="m116.174 173.217c-.635 1.327.332 2.862 1.803 2.862h15.289c-1.471 0-2.438-1.535-1.803-2.862l25.829-53.964c.677-1.415-1.137-2.697-2.245-1.586l-23.625 23.693z" fill="#ffc250"/></g></g></g><g><g><g><path d="m156.308 176.079h-15.289c1.616 0 2.425 1.954 1.282 3.096l-45.71 45.71-10.306 21.766c-.669 1.414 1.14 2.689 2.246 1.582l69.059-69.059c1.143-1.141.334-3.095-1.282-3.095z" fill="#ffc250"/></g></g></g></g></g><g><g><path d="m377.825 367.862-31.84-82.382c-1.542-3.989-.897-8.503 1.734-11.874 14.315-18.346 22.926-41.359 23.155-66.378.553-60.411-48.477-110.275-108.889-110.695-60.929-.423-110.453 48.84-110.453 109.67 0 6.319.537 12.513 1.564 18.539.36 2.111-.239 4.271-1.646 5.886l-26.82 30.794c-3.053 3.505-1.805 8.969 2.468 10.8l22.121 9.48c1.237.53 1.906 1.879 1.58 3.185l-2.525 10.102c-.688 2.751.383 5.641 2.697 7.28l4.414 3.126c.86.609 1.084 1.761.574 2.683-1.318 2.383-1.8 5.292-1.027 8.342 1.256 4.952 5.845 8.333 10.954 8.328.927-.001 1.713.681 1.843 1.598l.775 5.47c.421 2.974.311 5.999-.327 8.934l-2.434 11.197c-.884 4.065-.15 8.315 2.045 11.849 3.583 5.769 10.415 8.65 17.047 7.189l49.402-10.883c1.653-.364 3.323.533 3.933 2.111l20.049 51.874c1.299 3.362 5.078 5.034 8.439 3.734l107.432-41.521c3.362-1.298 5.034-5.076 3.735-8.438z" fill="#ffcbbe"/></g><g><g><path d="m377.825 367.862-31.84-82.382c-1.539-3.981-.907-8.492 1.719-11.856 14.324-18.349 22.94-41.369 23.17-66.397.466-50.881-34.243-94.278-81.3-106.955 30.686 19.745 50.992 54.339 50.635 93.333-.199 21.744-6.729 41.973-17.833 58.94-5.732 8.758-6.89 19.741-3.116 29.504l27.901 72.19c1.299 3.362-.373 7.14-3.734 8.439l-91.42 35.332 6.213 16.076c1.299 3.362 5.078 5.034 8.439 3.734l107.432-41.521c3.361-1.297 5.033-5.075 3.734-8.437z" fill="#eaac9d"/></g></g></g><g><path d="m297.335 172.882c-1.263-4.726 3.958-12.143 1.564-16.28-2.428-4.197-11.484-3.368-14.89-6.774-3.406-3.407-2.577-12.462-6.774-14.891-4.138-2.394-11.555 2.826-16.281 1.563-4.568-1.221-8.369-9.487-13.321-9.487-4.953 0-8.753 8.266-13.321 9.487-4.726 1.263-12.143-3.958-16.28-1.564-4.197 2.428-3.368 11.484-6.774 14.89-3.407 3.406-12.462 2.577-14.891 6.774-2.394 4.138 2.826 11.555 1.563 16.281-1.221 4.568-9.487 8.369-9.487 13.321 0 4.953 8.266 8.753 9.487 13.321 1.263 4.726-3.958 12.143-1.564 16.28 2.428 4.197 11.484 3.368 14.89 6.774 3.406 3.407 2.577 12.462 6.774 14.891 4.138 2.394 11.555-2.826 16.281-1.563 4.568 1.221 8.369 9.487 13.321 9.487 4.953 0 8.753-8.266 13.321-9.487 4.726-1.263 12.142 3.958 16.28 1.564 4.197-2.428 3.368-11.484 6.774-14.89 3.407-3.406 12.462-2.577 14.891-6.774 2.394-4.138-2.826-11.555-1.563-16.281 1.221-4.568 9.487-8.369 9.487-13.321s-8.266-8.753-9.487-13.321zm-49.703 35.086c-12.02 0-21.765-9.744-21.765-21.765s9.744-21.765 21.765-21.765 21.765 9.744 21.765 21.765-9.745 21.765-21.765 21.765z" fill="#5e54ac"/></g><g><g><path d="m297.335 172.882c-1.263-4.726 3.958-12.143 1.564-16.28-2.428-4.197-11.484-3.368-14.89-6.774-3.406-3.407-2.577-12.462-6.774-14.891-1.778-1.029-4.163-.649-6.678.015 9.216 10.161 14.833 23.647 14.833 38.445 0 31.614-25.628 57.242-57.242 57.242-4.895 0-9.645-.617-14.179-1.773.869 3.498 1.605 7.184 4.06 8.604 4.138 2.394 11.555-2.826 16.281-1.563 4.568 1.221 8.369 9.487 13.321 9.487 4.953 0 8.753-8.266 13.321-9.487 4.726-1.263 12.142 3.958 16.28 1.564 4.197-2.429 3.368-11.484 6.774-14.89 3.407-3.406 12.462-2.577 14.891-6.774 2.394-4.138-2.826-11.555-1.563-16.281 1.221-4.568 9.487-8.369 9.487-13.321.001-4.954-8.265-8.755-9.486-13.323z" fill="#524798"/></g></g><g><g><path d="m504.122 365.056-31.84-82.382c-1.542-3.989-.897-8.503 1.734-11.874 14.315-18.346 22.926-41.359 23.155-66.378.553-60.411-48.477-110.275-108.889-110.695-60.929-.423-110.453 48.84-110.453 109.67 0 6.319.537 12.513 1.564 18.539.36 2.111-.239 4.271-1.646 5.886l-26.82 30.794c-3.053 3.506-1.805 8.969 2.468 10.8l22.121 9.48c1.237.53 1.906 1.879 1.58 3.185l-2.525 10.102c-.688 2.751.383 5.641 2.697 7.28l4.414 3.126c.86.609 1.084 1.761.574 2.683-1.318 2.383-1.8 5.292-1.027 8.342 1.256 4.952 5.845 8.333 10.954 8.328.927-.001 1.713.681 1.843 1.598l.775 5.47c.421 2.974.311 5.999-.327 8.934l-2.434 11.197c-.884 4.065-.15 8.315 2.045 11.849 3.583 5.769 10.415 8.65 17.047 7.189l49.402-10.883c1.653-.364 3.323.533 3.934 2.111l20.049 51.874c1.299 3.362 5.078 5.034 8.439 3.734l107.432-41.521c3.362-1.298 5.034-5.077 3.734-8.438z" fill="#a55e4d"/></g><g><g><path d="m504.122 365.056-31.84-82.382c-1.539-3.981-.907-8.492 1.719-11.856 14.324-18.349 22.94-41.369 23.17-66.397.466-50.881-34.243-94.278-81.3-106.955 30.686 19.745 50.992 54.339 50.635 93.333-.199 21.744-6.729 41.973-17.833 58.94-5.732 8.758-6.89 19.741-3.116 29.504l27.901 72.19c1.299 3.362-.373 7.14-3.734 8.439l-91.42 35.332 6.213 16.076c1.299 3.362 5.078 5.034 8.439 3.734l107.432-41.521c3.362-1.297 5.034-5.076 3.734-8.437z" fill="#904f40"/></g></g></g><g><g><g><path d="m421.514 171.678c0-22.814-18.653-41.272-41.541-40.953-22.219.309-40.284 18.564-40.373 40.786-.051 12.859 5.824 24.346 15.051 31.889 3.087 2.524 4.892 6.289 4.892 10.276v.396c0 7.891 2.15 15.634 6.22 22.395l5.937 9.864c3.873 6.435 13.176 6.513 17.157.144l6.113-9.78c4.314-6.902 6.602-14.878 6.602-23.018 0-4.004 1.831-7.769 4.928-10.307 9.165-7.511 15.014-18.918 15.014-31.692z" fill="#ffe07d"/></g></g><g><path d="m379.973 130.725c-4.467.062-8.761.861-12.779 2.26 16.014 5.564 27.511 20.784 27.511 38.693 0 12.774-5.849 24.181-15.015 31.692-3.097 2.538-4.928 6.303-4.928 10.307 0 8.14-2.288 16.116-6.602 23.018l-1.151 1.842 4.691 7.794c3.873 6.435 13.176 6.513 17.157.144l6.113-9.78c4.314-6.902 6.602-14.878 6.602-23.018 0-4.004 1.831-7.769 4.928-10.307 9.165-7.511 15.015-18.918 15.015-31.692-.001-22.814-18.654-41.272-41.542-40.953z" fill="#ffd064"/></g><g><g><path d="m380.557 267.865c-9.898 0-17.921-8.024-17.921-17.921v-13.698c0-.848.687-1.535 1.535-1.535h32.773c.848 0 1.535.687 1.535 1.535v13.698c0 9.898-8.024 17.921-17.922 17.921z" fill="#5e54ac"/></g></g><g><path d="m396.944 234.711h-16.72c.848 0 1.535.687 1.535 1.535v13.698c0 6.877-3.878 12.841-9.561 15.846 2.497 1.32 5.339 2.075 8.36 2.075 9.898 0 17.921-8.024 17.921-17.921v-13.698c0-.848-.688-1.535-1.535-1.535z" fill="#524798"/></g></g><g><path d="m209.251 384.591-59.944 23.168-19.722-51.032c-1.949-5.035-7.189-7.848-12.463-6.687l-49.402 10.883c-3.546.781-7.219-.766-9.136-3.853-1.183-1.905-1.572-4.16-1.096-6.351l2.433-11.197c.827-3.808.97-7.696.424-11.554l-.776-5.474c-.647-4.552-4.601-7.982-9.197-7.982-.006 0-.012-.001-.014 0-1.768 0-3.34-1.145-3.741-2.723-.268-1.059-.158-2.042.324-2.914 2.353-4.248 1.16-9.556-2.779-12.349l-4.105-2.908 2.432-9.731c1.22-4.872-1.244-9.843-5.861-11.82l-21.392-9.168 26.3-30.196c2.879-3.304 4.106-7.684 3.368-12.014-.969-5.684-1.459-11.501-1.459-17.292 0-26.739 10.254-52.027 28.874-71.208 2.858-2.945 2.789-7.649-.157-10.508s-7.65-2.788-10.508.156c-21.326 21.969-33.072 50.934-33.072 81.56 0 6.579.554 13.192 1.648 19.657l-26.719 30.681c-2.989 3.431-4.168 8.128-3.154 12.563 1.013 4.436 4.115 8.155 8.299 9.949l18.449 7.907-1.557 6.229c-1.441 5.767.762 11.712 5.612 15.145l.998.706c-.731 2.98-.724 6.133.056 9.207 1.671 6.591 6.812 11.582 13.231 13.292l.187 1.319c.298 2.108.221 4.233-.232 6.314l-2.433 11.197c-1.3 5.984-.237 12.145 2.994 17.348 5.236 8.431 15.266 12.659 24.959 10.526l46.045-10.144 18.809 48.668c2.137 5.53 7.433 8.925 13.035 8.925 1.669 0 3.366-.302 5.015-.939l60.789-23.494c3.828-1.479 5.732-5.782 4.252-9.61-1.484-3.827-5.787-5.734-9.614-4.252z"/><path d="m511.054 362.377-31.84-82.382c-.603-1.559-.349-3.331.661-4.625 15.939-20.426 24.489-44.937 24.727-70.881.285-31.217-11.695-60.744-33.734-83.143-22.029-22.386-51.339-34.834-82.534-35.051-23.948-.187-46.86 6.812-66.281 19.962-18.099-11.087-38.75-17.007-60.016-17.155-19.946-.144-39.175 4.686-56.269 13.898-17.907-10.78-38.338-16.559-59.248-16.704-19.557-.159-38.919 4.636-56.035 13.801-3.618 1.937-4.981 6.44-3.044 10.058 1.938 3.618 6.44 4.982 10.059 3.043 14.934-7.996 31.81-12.186 48.918-12.041 15.717.109 31.127 3.87 45.086 10.923-4.489 3.339-8.773 7.016-12.814 11.029-13.098 13.008-22.735 28.556-28.464 45.538h-8.337l22.106-46.188c1.863-3.893.656-8.527-2.869-11.017-3.524-2.49-8.295-2.08-11.341.976l-68.736 68.933c-2.647 2.655-3.429 6.609-1.991 10.071 1.438 3.463 4.789 5.7 8.538 5.7h13.918l-21.946 46.351c-1.839 3.889-.621 8.51 2.896 10.988 3.501 2.469 8.268 2.078 11.324-.975l50.355-50.355c-.026 1.021-.041 2.045-.041 3.07 0 6.586.554 13.199 1.648 19.657l-26.723 30.682c-2.988 3.431-4.166 8.128-3.152 12.564s4.116 8.154 8.299 9.947l18.449 7.907-1.557 6.227c-1.442 5.767.761 11.713 5.612 15.147l.997.706c-.731 2.98-.723 6.133.057 9.207 1.671 6.59 6.812 11.581 13.23 13.291l.187 1.322c.299 2.107.222 4.231-.231 6.312l-2.433 11.197c-1.3 5.984-.237 12.145 2.994 17.348 5.236 8.431 15.267 12.66 24.959 10.526l46.044-10.143 18.811 48.668c2.558 7.054 11.113 10.836 18.049 7.986l97.809-37.802 10.438 27.009c2.137 5.529 7.434 8.925 13.035 8.925 1.67 0 3.367-.302 5.016-.939l107.432-41.521c3.477-1.344 6.223-3.961 7.732-7.37 1.503-3.407 1.594-7.2.25-10.677zm-403.146-144.028 10.71-22.62c1.391-2.938 1.184-6.332-.554-9.079-1.739-2.747-4.718-4.387-7.969-4.387h-8.965l34.165-34.263-10.533 22.006c-1.409 2.939-1.212 6.34.524 9.099 1.737 2.759 4.72 4.405 7.98 4.405h9.48zm156.915 192.216-19.722-51.029c-1.946-5.039-7.19-7.856-12.463-6.69l-49.401 10.883c-3.544.782-7.219-.766-9.136-3.853-1.183-1.905-1.572-4.16-1.096-6.351l2.433-11.197c.827-3.81.969-7.698.423-11.554l-.774-5.467c-.644-4.557-4.598-7.99-9.198-7.99-.008 0-.012 0-.014 0-1.768 0-3.34-1.145-3.741-2.723-.268-1.059-.159-2.042.327-2.919 2.35-4.25 1.153-9.556-2.783-12.343l-4.104-2.908 2.432-9.731c1.22-4.872-1.244-9.843-5.861-11.82l-21.392-9.168 26.301-30.197c2.878-3.306 4.105-7.684 3.367-12.014-.969-5.677-1.459-11.494-1.459-17.29 0-27.444 10.725-53.209 30.199-72.548 19.3-19.167 44.857-29.694 72.04-29.694.243 0 .49.001.732.003 16.665.116 32.894 4.308 47.473 12.17-1.502 1.348-2.977 2.737-4.419 4.169-6.395 6.351-11.962 13.309-16.656 20.742-.003-.012-.007-.026-.009-.039-.991-4.05-2.347-9.597-7.366-12.501-4.972-2.878-10.42-1.301-14.397-.149-1.128.326-2.756.797-3.623.896-.663-.512-1.763-1.662-2.527-2.462-2.909-3.042-6.892-7.207-12.777-7.207s-9.867 4.166-12.776 7.207c-.765.8-1.865 1.949-2.527 2.462-.867-.099-2.494-.57-3.622-.896-3.98-1.151-9.426-2.728-14.397.149-5.019 2.904-6.375 8.45-7.366 12.5-.273 1.114-.666 2.719-1 3.509-.79.334-2.395.727-3.509 1-4.05.991-9.596 2.347-12.501 7.367-2.877 4.973-1.299 10.42-.148 14.397.326 1.128.797 2.755.896 3.622-.513.663-1.662 1.763-2.462 2.528-3.042 2.909-7.207 6.893-7.207 12.777 0 5.885 4.165 9.868 7.207 12.777.8.764 1.95 1.864 2.462 2.527-.099.867-.569 2.493-.896 3.62-1.151 3.978-2.729 9.427.15 14.399 2.903 5.018 8.45 6.375 12.5 7.366 1.114.272 2.719.665 3.508.999.335.79.727 2.395.999 3.509.991 4.05 2.347 9.597 7.366 12.501 4.971 2.876 10.42 1.3 14.398.149 1.128-.327 2.755-.797 3.622-.896.663.512 1.763 1.663 2.527 2.462 2.665 2.787 6.238 6.508 11.345 7.113l-.874 1.004c-2.989 3.431-4.168 8.128-3.154 12.563 1.013 4.436 4.115 8.155 8.299 9.949l18.45 7.907-1.558 6.229c-1.44 5.765.762 11.71 5.612 15.145l.998.706c-.731 2.98-.724 6.132.056 9.207 1.671 6.591 6.812 11.582 13.231 13.292l.187 1.319c.298 2.11.221 4.235-.232 6.315l-2.433 11.197c-1.3 5.984-.237 12.145 2.994 17.348 5.236 8.431 15.267 12.659 24.959 10.526l46.045-10.144 3.013 7.797zm9.295-236.625c-4.643-9.988-14.766-16.932-26.486-16.932-16.098 0-29.196 13.097-29.196 29.196s13.097 29.196 29.196 29.196c9.211 0 17.434-4.292 22.789-10.975.055 6.24.59 12.501 1.626 18.63l-5.017 5.76c-2.576-.565-5.254-.819-7.995-.086-4.082 1.09-6.89 4.027-9.367 6.618-.594.621-1.38 1.443-2.036 2.045-.656-.602-1.442-1.424-2.036-2.045-2.477-2.591-5.285-5.527-9.366-6.618-4.18-1.119-8.325.083-11.655 1.047-.743.215-1.708.494-2.517.685-.246-.812-.492-1.818-.68-2.589-.819-3.348-1.838-7.516-4.868-10.545-3.029-3.03-7.197-4.05-10.545-4.869-.772-.189-1.777-.435-2.59-.681.191-.809.469-1.774.685-2.516.964-3.331 2.163-7.476 1.047-11.654-1.09-4.082-4.027-6.89-6.617-9.367-.621-.594-1.443-1.38-2.045-2.035.603-.656 1.424-1.441 2.045-2.035 2.59-2.477 5.527-5.285 6.617-9.367 1.118-4.178-.082-8.325-1.047-11.656-.215-.743-.494-1.707-.684-2.516.812-.246 1.817-.492 2.589-.68 3.348-.819 7.515-1.838 10.545-4.868s4.05-7.197 4.87-10.545c.189-.772.434-1.777.68-2.59.808.191 1.773.47 2.515.685 3.332.965 7.478 2.164 11.655 1.047 4.082-1.091 6.89-4.027 9.367-6.618.594-.621 1.38-1.442 2.035-2.044.656.602 1.442 1.424 2.036 2.045 2.477 2.591 5.285 5.527 9.366 6.618 4.177 1.116 8.324-.083 11.655-1.047.743-.215 1.708-.494 2.517-.685.246.813.492 1.819.68 2.591.82 3.347 1.838 7.514 4.87 10.546.462.461.953.861 1.456 1.235-2.499 5.689-4.536 11.577-6.094 17.619zm-12.152 12.263c0 7.904-6.431 14.334-14.335 14.334-7.903 0-14.334-6.43-14.334-14.334s6.43-14.334 14.334-14.334 14.335 6.43 14.335 14.334zm129.155 221.556-19.722-51.033c-1.932-5.072-7.325-7.856-12.462-6.687l-49.402 10.883c-3.545.781-7.219-.766-9.136-3.853-1.183-1.905-1.572-4.16-1.096-6.351l2.432-11.195c.828-3.806.971-7.694.425-11.556l-.776-5.474c-.647-4.552-4.601-7.982-9.197-7.982-.008 0-.012-.001-.014 0-1.768 0-3.34-1.145-3.741-2.723-.268-1.059-.158-2.041.328-2.919 2.35-4.25 1.153-9.556-2.783-12.343l-4.105-2.908 2.434-9.736c1.216-4.87-1.249-9.839-5.863-11.816l-21.392-9.168 26.3-30.196c2.879-3.305 4.106-7.684 3.368-12.015-.969-5.684-1.459-11.501-1.459-17.292 0-27.444 10.725-53.209 30.199-72.548 19.3-19.167 44.857-29.694 72.04-29.694.243 0 .489.001.732.003 27.218.189 52.803 11.061 72.043 30.614 19.252 19.564 29.716 45.341 29.466 72.582-.207 22.65-7.671 44.046-21.583 61.875-4.206 5.391-5.282 12.719-2.807 19.124l31.514 81.538z"/><path d="m417.629 152.713c-3.929 1.185-6.154 5.33-4.969 9.26.944 3.133 1.423 6.398 1.423 9.705 0 10.086-4.481 19.542-12.293 25.944-4.861 3.984-7.65 9.836-7.65 16.055 0 4.651-.932 9.295-2.687 13.603h-3.465v-34.111l12.906-19.429c2.271-3.418 1.341-8.031-2.078-10.301-3.417-2.271-8.03-1.341-10.301 2.078l-7.958 11.98-7.958-11.98c-2.272-3.42-6.885-4.349-10.301-2.078-3.419 2.27-4.349 6.883-2.078 10.301l12.906 19.429v34.111h-3.625c-1.651-4.195-2.528-8.707-2.528-13.208v-.396c0-6.228-2.777-12.07-7.619-16.029-7.873-6.436-12.365-15.951-12.323-26.107.072-18.156 14.896-33.133 33.045-33.385 4.819-.076 9.448.857 13.803 2.746 3.766 1.631 8.141-.096 9.774-3.861s-.096-8.141-3.861-9.774c-6.301-2.732-13.011-4.051-19.924-3.972-26.198.365-47.596 21.981-47.699 48.186-.059 14.656 6.421 28.387 17.777 37.672 1.376 1.124 2.164 2.773 2.164 4.523v.396c0 6.473 1.279 12.962 3.693 18.978-.381.994-.599 2.069-.599 3.196v13.698c0 13.979 11.373 25.352 25.352 25.352s25.352-11.373 25.352-25.352v-13.698c0-1.209-.244-2.361-.679-3.414 2.463-6.068 3.771-12.606 3.771-19.155 0-1.748.805-3.41 2.208-4.56 11.27-9.236 17.735-22.883 17.735-37.439 0-4.762-.692-9.471-2.056-13.995-1.183-3.929-5.33-6.154-9.258-4.969zm-26.581 97.231c0 5.785-4.706 10.49-10.49 10.49s-10.49-4.706-10.49-10.49v-7.802h20.981v7.802z"/></g></g></svg>