<svg height="512" viewBox="0 0 512 512" width="512" xmlns="http://www.w3.org/2000/svg"><g id="Filled_outline" data-name="Filled outline"><path d="m416 24a57.661 57.661 0 0 0 -54.7 75.9l22.7 68.1h-248v320h256a96 96 0 0 0 96-96v-224z" fill="#fdbf92"/><path d="m240 88h32v56h-32z" fill="#2f9ccb"/><path d="m192 160-50.343-50.343a8 8 0 0 0 -11.314 0l-20.686 20.686a8 8 0 0 0 0 11.314l50.343 50.343z" fill="#4db6e4"/><path d="m315.314 164.686 50.343-50.343a8 8 0 0 1 11.314 0l20.686 20.686a8 8 0 0 1 0 11.314l-50.343 50.343z" fill="#4db6e4"/><circle cx="256" cy="288" fill="#348ed8" r="168"/><circle cx="256" cy="288" fill="#d6513c" r="136"/><circle cx="256" cy="288" fill="#e25740" r="120"/><path d="m232 56h48v32h-48z" fill="#4db6e4"/><path d="m336 264v56a16 16 0 0 1 -16 16h-16v40h-96v-40h-16a16 16 0 0 1 -16-16v-56a80 80 0 0 1 80-80 80 80 0 0 1 80 80z" fill="#ffb431"/><circle cx="296" cy="272" fill="#e25740" r="32"/><circle cx="216" cy="272" fill="#e25740" r="32"/><path d="m269.657 314.343-8-8a8 8 0 0 0 -11.314 0l-8 8a8 8 0 0 0 5.657 13.657h16a8 8 0 0 0 5.657-13.657z" fill="#f4970c"/><path d="m147 313.839a112.714 112.714 0 0 1 2.406-60.3l15.226 4.918a96.716 96.716 0 0 0 -2.061 51.7z" fill="#dd4a34"/><path d="m362.6 322.459-15.226-4.918a96.716 96.716 0 0 0 2.061-51.7l15.565-3.68a112.714 112.714 0 0 1 -2.406 60.3z" fill="#dd4a34"/><g fill="#fdc8a2"><rect height="80" rx="40" width="136" x="24" y="168"/><rect height="80" rx="40" width="128" x="24" y="248"/><rect height="80" rx="40" width="128" x="40" y="328"/><rect height="80" rx="40" width="128" x="64" y="408"/></g><path d="m423.155 20.422a8 8 0 0 0 -7.155-4.422 65.656 65.656 0 0 0 -62.29 86.42l3.139 9.417-19.87 19.871c-1.423-.74-2.854-1.47-4.3-2.17-1.887-.913-3.811-1.8-5.71-2.636a174.2 174.2 0 0 0 -35.757-11.368 56 56 0 1 0 -70.442-.009 173.3 173.3 0 0 0 -45.747 16.187l-27.706-27.712a16.023 16.023 0 0 0 -22.634 0l-20.683 20.683a16 16 0 0 0 0 22.634l12.687 12.683h-52.687a47.6 47.6 0 0 0 -28.809 9.6l9.609 12.8a31.712 31.712 0 0 1 19.2-6.4h56a32 32 0 0 1 0 64h-56a32.02 32.02 0 0 1 -29.341-44.8l-14.659-6.4a48 48 0 0 0 17.507 59.2 47.975 47.975 0 0 0 9.725 84.972 47.955 47.955 0 0 0 22.15 81.83 47.963 47.963 0 0 0 34.618 81.198h288a104.118 104.118 0 0 0 104-104v-48h-16v48a88.1 88.1 0 0 1 -88 88h-204.261a47.842 47.842 0 0 0 11.78-25.272 175.149 175.149 0 0 0 56.481 9.272c97.047 0 176-78.953 176-176a174.692 174.692 0 0 0 -46.027-118.66l17.344-17.34a16.017 16.017 0 0 0 0-22.624l-20.691-20.69a15.935 15.935 0 0 0 -11.519-4.668l-2.218-6.656a49.666 49.666 0 0 1 42.28-65.132l68.831 137.659v158.111h16v-160a7.994 7.994 0 0 0 -.845-3.578zm-207.155 51.578a40 40 0 1 1 64 32v-8a8 8 0 0 0 8-8v-32a8 8 0 0 0 -8-8h-48a8 8 0 0 0 -8 8v32a8 8 0 0 0 8 8v8a40.091 40.091 0 0 1 -16-32zm24 8v-16h32v16zm24 16v16.186c-5.311-.236-10.7-.236-16 0v-16.186zm-126.659 62.026-22.024-22.026 20.683-20.683 24.709 24.708a176.441 176.441 0 0 0 -23.368 18.001zm30.659 49.974a47.909 47.909 0 0 0 -1.421-11.58c1.413-1.376 2.86-2.729 4.336-4.041.08-.07.158-.143.234-.216a127.761 127.761 0 0 1 84.851-32.163 129.2 129.2 0 0 1 24.04 2.25 128.062 128.062 0 0 1 103.96 125.75 128.025 128.025 0 0 1 -193.027 110.271c-1.121-.654-2.22-1.326-3.31-2.024a128.4 128.4 0 0 1 -14.882-11 47.962 47.962 0 0 0 -28.013-62.224 47.906 47.906 0 0 0 -2.714-72.416 48.039 48.039 0 0 0 25.946-42.607zm-136 80a32.036 32.036 0 0 1 32-32h48a32 32 0 0 1 0 64h-48a32.036 32.036 0 0 1 -32-32zm16 80a32.036 32.036 0 0 1 32-32h48a32 32 0 0 1 0 64h-48a32.036 32.036 0 0 1 -32-32zm104 112h-48a32 32 0 0 1 0-64h48a32 32 0 0 1 0 64zm264-192c0 88.224-71.776 160-160 160a159.042 159.042 0 0 1 -57.176-10.524 47.983 47.983 0 0 0 -13.6-24.071 143.85 143.85 0 0 0 70.776 18.595c79.4 0 144-64.6 144-144a144.058 144.058 0 0 0 -116.978-141.469 145.221 145.221 0 0 0 -27.022-2.531 143.74 143.74 0 0 0 -95.463 36.188c-.036.031-.084.077-.122.111-.061.054-.125.111-.185.168s-.093.081-.147.134c-.144.128-.285.26-.428.389a48.414 48.414 0 0 0 -11.088-11.537 160.381 160.381 0 0 1 28.947-20.907 157.983 157.983 0 0 1 63.256-19.823 161.483 161.483 0 0 1 30.48 0 158.549 158.549 0 0 1 49.268 12.817c1.735.764 3.485 1.572 5.188 2.4 2.977 1.445 5.928 2.994 8.785 4.612a160.427 160.427 0 0 1 33.494 25.179c.386.376.762.753 1.149 1.14a158.912 158.912 0 0 1 46.866 113.129zm-44.687-168 20.687 20.683-17.344 17.345a176.484 176.484 0 0 0 -23.371-18zm-179.313 224h8v32a8 8 0 0 0 8 8h96a8 8 0 0 0 8-8v-32h8a24.028 24.028 0 0 0 24-24v-56a88 88 0 0 0 -176 0v56a24.028 24.028 0 0 0 24 24zm-8-40.022a40 40 0 1 0 5.436-67.393 71.981 71.981 0 0 1 133.128 0 40 40 0 1 0 5.436 67.393v16.022a8.009 8.009 0 0 1 -8 8h-16a8 8 0 0 0 -8 8v32h-16v-24h-16v24h-16v-24h-16v24h-16v-32a8 8 0 0 0 -8-8h-16a8.009 8.009 0 0 1 -8-8zm0-31.978a24 24 0 1 1 24 24 24.028 24.028 0 0 1 -24-24zm144 0a24 24 0 1 1 -24-24 24.028 24.028 0 0 1 24 24zm-87.391 51.062a8 8 0 0 1 1.734-8.719l8-8a8 8 0 0 1 11.314 0l8 8a8 8 0 0 1 -5.657 13.657h-16a8 8 0 0 1 -7.391-4.938zm-194.952-288.719-11.314 11.314-16-16 11.314-11.314zm52.686 75.314-56-56 11.314-11.314 56 56zm29.847-19.922-16-72 15.62-3.47 16 72zm-110.455 14.455 72 16-3.47 15.62-72-16z"/></g></svg>