<svg id="Layer_5" enable-background="new 0 0 64 64" height="512" viewBox="0 0 64 64" width="512" xmlns="http://www.w3.org/2000/svg"><g><g><g><path d="m43.48 4.28-2.3 5.55c-2.83-1.18-5.93-1.83-9.18-1.83v-6c4.07 0 7.94.81 11.48 2.28z" fill="#fc6e51"/></g><g><path d="m59.72 20.52-5.55 2.3c-1.21-2.93-2.99-5.58-5.2-7.79l4.24-4.24c2.76 2.76 4.99 6.06 6.51 9.73z" fill="#fc6e51"/></g><g><path d="m53.21 10.79-4.24 4.24c-2.21-2.21-4.86-3.99-7.79-5.2l2.3-5.55c3.67 1.52 6.97 3.74 9.73 6.51z" fill="#ff826e"/></g><g><path d="m62 32h-6c0-3.25-.65-6.35-1.83-9.18l5.55-2.3c1.47 3.54 2.28 7.41 2.28 11.48z" fill="#ff826e"/></g><g><path d="m48.97 48.97 4.24 4.24c-2.81 2.83-6.13 5.02-9.73 6.51l-2.3-5.55c2.87-1.18 5.53-2.93 7.79-5.2z" fill="#fcd770"/></g><g><path d="m52.78 44 5.2 3c-1.34 2.32-2.94 4.4-4.77 6.21l-4.24-4.24c1.45-1.44 2.74-3.11 3.81-4.97z" fill="#fcd770"/></g><g><path d="m41.18 54.17 2.3 5.55c-8.31 3.44-18.08 3.11-26.48-1.74l3-5.2c6.72 3.88 14.53 4.14 21.18 1.39z" fill="#ffeaa7"/></g><g><path d="m17 6.02 3 5.2c-11.48 6.62-15.41 21.3-8.78 32.78l-5.2 3c-8.29-14.35-3.37-32.7 10.98-40.98z" fill="#ffeaa7"/></g><g><path d="m43.99 18.01c-.14.29-2.4 4.94-3.46 11.04-2.43 2.66-4.53 6.52-4.53 11.95v3h-3.97v-10c.58-11.97 11.54-15.85 11.96-15.99z" fill="#b4dd7f"/></g><g><path d="m32.03 34v10h-4.03v-3c0-5.43-2.1-9.29-4.53-11.95-1.06-6.1-3.32-10.75-3.46-11.04.43.14 11.99 4.23 11.99 16.99 0-.34.01-.67.03-1z" fill="#a0d468"/></g><g><path d="m48 24s-4 8-4 17v3h-8v-3c0-5.43 2.1-9.29 4.53-11.95 3.4-3.69 7.47-5.05 7.47-5.05z" fill="#a0d468"/></g><g><path d="m28 41v3h-8v-3c0-9-4-17-4-17s4.07 1.36 7.47 5.05c2.43 2.66 4.53 6.52 4.53 11.95z" fill="#b4dd7f"/></g></g><g><path d="m15 43v2h34v-2h-4v-2c0-8.646 3.855-16.475 3.895-16.553l1.076-2.158-2.287.762c-.058.019-2.682.931-5.528 3.187 1.139-4.546 2.72-7.753 2.739-7.792l1.076-2.158-2.287.762c-.105.036-8.707 3.011-11.684 11.707-2.977-8.697-11.579-11.671-11.684-11.706l-2.287-.762 1.076 2.158c.019.038 1.6 3.246 2.739 7.792-2.846-2.256-5.47-3.168-5.528-3.187l-2.29-.763 1.079 2.159c.04.077 3.895 7.888 3.895 16.552v2zm28-2v2h-6v-2c0-8.798 5.739-13.206 9.05-15.017-1.219 3.098-3.05 8.789-3.05 15.017zm-.947-21.018c-.782 1.991-1.815 5.064-2.459 8.667-2.492 2.799-4.594 6.803-4.594 12.351v2h-1.975v-8.622c.268-8.379 5.799-12.631 9.028-14.396zm-11.053 15.018h.025v8h-2.025v-2c0-5.548-2.102-9.552-4.593-12.351-.644-3.603-1.678-6.675-2.459-8.667 3.309 1.809 9.052 6.217 9.052 15.018zm-13.05-9.017c3.311 1.811 9.05 6.219 9.05 15.017v2h-6v-2c0-6.228-1.831-11.919-3.05-15.017z"/><path d="m29.901 52.896.197-1.99c-.636-.063-1.275-.16-1.9-.286l-.396 1.96c.689.14 1.396.247 2.099.316z"/><path d="m32 1h-1v8h1c12.683 0 23 10.318 23 23v1h8v-1c0-17.093-13.906-31-31-31zm21.187 11.227c2.126 2.276 3.89 4.894 5.2 7.761l-3.698 1.531c-1.104-2.38-2.569-4.56-4.329-6.466zm-20.187-9.21c3.215.109 6.296.75 9.166 1.828l-1.532 3.699c-2.396-.885-4.96-1.419-7.634-1.524zm9.481 6.294 1.532-3.698c2.867 1.311 5.484 3.074 7.761 5.2l-2.827 2.827c-1.906-1.76-4.086-3.225-6.466-4.329zm14.499 21.689c-.106-2.674-.639-5.238-1.524-7.634l3.699-1.532c1.078 2.869 1.718 5.951 1.828 9.166z"/><path d="m9.783 26.047c1.59-5.935 5.396-10.894 10.717-13.966l.866-.5-4-6.929-.866.5c-14.803 8.548-19.894 27.545-11.347 42.348l.5.866 6.929-4-.5-.866c-3.072-5.32-3.889-11.519-2.299-17.453zm-3.383 19.578c-7.15-13.419-2.66-30.178 10.243-38.225l2.001 3.466c-5.335 3.365-9.15 8.536-10.792 14.663-1.642 6.128-.924 12.514 2.014 18.095z"/><path d="m51.918 43.5c-3.071 5.32-8.031 9.126-13.965 10.716-5.933 1.59-12.132.775-17.453-2.298l-.866-.5-4 6.929.866.5c4.87 2.812 10.191 4.147 15.447 4.147 10.722 0 21.164-5.561 26.899-15.494l.5-.866-6.929-4zm-2.965 6.867 2.83 2.83c-2.319 2.162-4.95 3.899-7.774 5.18l-1.529-3.691c2.385-1.095 4.562-2.55 6.473-4.319zm-30.578 7.233 2.001-3.466c5.581 2.938 11.967 3.655 18.095 2.014.736-.197 1.457-.43 2.164-.689l1.527 3.686c-7.545 2.817-16.199 2.498-23.787-1.545zm38.225-10.243c-1.004 1.61-2.144 3.09-3.397 4.432l-2.83-2.831c1.017-1.106 1.945-2.307 2.761-3.602z"/><path d="m32 53c5.122 0 10.055-1.865 13.891-5.25l-1.324-1.499c-3.47 3.062-7.933 4.749-12.567 4.749z"/></g></g></svg>