<svg id="Capa_1" enable-background="new 0 0 512.734 512.734" height="512" viewBox="0 0 512.734 512.734" width="512" xmlns="http://www.w3.org/2000/svg"><g><path d="m264.777 36.59c0-5.758-2.197-11.517-6.59-15.91s-10.152-6.59-15.91-6.59c-4.072-4.072-9.697-6.59-15.91-6.59s-11.838 2.519-15.91 6.59c-5.758 0-11.516 2.197-15.91 6.59-4.393 4.394-6.59 10.152-6.59 15.91-4.072 4.072-6.59 9.697-6.59 15.91v45h90v-45c0-6.214-2.518-11.839-6.59-15.91z" fill="#ebebeb"/><circle cx="106.367" cy="118.233" fill="#ff4128" r="15"/><path d="m406.367 293.232h30v-30l-15-15h-30z" fill="#eb1b00"/><path d="m391.367 263.232h45v-30l-15-15h-30z" fill="#ffe2a8"/><path d="m391.367 233.232h45v-30l-15-15h-30z" fill="#eb1b00"/><path d="m406.367 173.232-15 15 15 15h30v-30z" fill="#ffe2a8"/><path d="m406.367 203.232-30-30h-30l-30 30v30l15 15-15 15v30h30l15-15 15 15h30v-30l-15-15 15-15z" fill="#fff0d3"/><g fill="#ff4128"><path d="m376.367 173.232h30v30h-30z"/><path d="m316.367 173.232h30v30h-30z"/><path d="m376.367 233.232h30v30h-30z"/><path d="m346.367 203.232h30v30h-30z"/><path d="m316.367 233.232h30v30h-30z"/><path d="m346.367 263.232h30v30h-30z"/></g><path d="m226.367 53.232v90c24.853 0 45-20.147 45-45s-20.147-45-45-45z" fill="#60312c"/><path d="m241.367 98.232c0-24.853-6.716-45-15-45-24.853 0-45 20.147-45 45s20.147 45 45 45c8.284 0 15-20.147 15-45z" fill="#85453d"/><path d="m196.367 263.232 30 75c24.853 0 45-20.147 45-45v-30z" fill="#353535"/><path d="m181.367 293.232c0 24.853 20.147 45 45 45v-75h-45z" fill="#4f4f4f"/><path d="m256.367 173.232h-30l-25 60 25 60h45v-105z" fill="#fff0d3"/><path d="m196.367 173.232-15 15v105h45v-120z" fill="#fff"/><path d="m166.367 193.232v130c16.569 0 30-13.431 30-30v-120h-10c-11.045 0-20 8.955-20 20z" fill="#c27749"/><path d="m266.367 173.232h-10v120c0 16.569 13.431 30 30 30v-130c0-11.045-8.954-20-20-20z" fill="#a45e43"/><path d="m106.367 140.732c12.406 0 22.5-10.094 22.5-22.5s-10.094-22.5-22.5-22.5-22.5 10.094-22.5 22.5 10.094 22.5 22.5 22.5zm0-30c4.136 0 7.5 3.364 7.5 7.5s-3.364 7.5-7.5 7.5-7.5-3.364-7.5-7.5 3.364-7.5 7.5-7.5z"/><path d="m436.367 165.732h-120c-4.143 0-7.5 3.357-7.5 7.5v120c0 4.143 3.357 7.5 7.5 7.5h120c4.143 0 7.5-3.357 7.5-7.5v-120c0-4.142-3.357-7.5-7.5-7.5zm-7.5 30h-15v-15h15zm-45 0v-15h15v15zm15 15v15h-15v-15zm-30-15h-15v-15h15zm0 15v15h-15v-15zm-30 15h-15v-15h15zm0 15v15h-15v-15zm15 0h15v15h-15zm15 30v15h-15v-15zm15 0h15v15h-15zm0-15v-15h15v15zm30-15h15v15h-15zm0-15v-15h15v15zm-75-45v15h-15v-15zm-15 90h15v15h-15zm90 15v-15h15v15z"/><path d="m226.367 150.732c28.948 0 52.5-23.552 52.5-52.5v-45.732c0-6.99-2.374-13.615-6.741-18.954-.688-6.862-3.693-13.227-8.636-18.169-4.941-4.943-11.305-7.948-18.169-8.636-5.339-4.366-11.964-6.741-18.954-6.741s-13.615 2.375-18.954 6.741c-6.863.688-13.227 3.692-18.17 8.636-4.942 4.943-7.947 11.307-8.635 18.169-4.367 5.339-6.741 11.964-6.741 18.954v45.732c0 28.949 23.552 52.5 52.5 52.5zm-37.5-98.232c0-4.007 1.561-7.773 4.394-10.606 1.406-1.407 2.196-3.314 2.196-5.304 0-4.006 1.561-7.773 4.394-10.606s6.6-4.394 10.606-4.394c1.989 0 3.896-.79 5.304-2.196 2.833-2.833 6.6-4.394 10.606-4.394s7.773 1.561 10.606 4.394c1.407 1.406 3.314 2.196 5.304 2.196 4.007 0 7.773 1.56 10.605 4.394 2.834 2.833 4.395 6.601 4.395 10.606 0 1.989.79 3.896 2.196 5.304 2.833 2.833 4.394 6.6 4.394 10.606v9.041c-9.537-9.745-22.821-15.808-37.5-15.808s-27.963 6.063-37.5 15.808zm37.5 8.232c20.678 0 37.5 16.822 37.5 37.5s-16.822 37.5-37.5 37.5-37.5-16.822-37.5-37.5 16.822-37.5 37.5-37.5z"/><path d="m288.739 498.117-24.872-8.29v-159.863c1.323-1.349 2.574-2.778 3.753-4.275 5.52 3.2 11.92 5.043 18.747 5.043 4.143 0 7.5-3.357 7.5-7.5v-130c0-15.163-12.337-27.5-27.5-27.5h-80c-12.563 0-23.178 8.472-26.452 20h-68.548c-4.136 0-7.5-3.364-7.5-7.5s3.364-7.5 7.5-7.5h15c4.143 0 7.5-3.357 7.5-7.5s-3.357-7.5-7.5-7.5h-15c-12.406 0-22.5 10.094-22.5 22.5s10.094 22.5 22.5 22.5h67.5v122.5c0 4.143 3.357 7.5 7.5 7.5 6.827 0 13.227-1.843 18.747-5.043 1.179 1.497 2.43 2.925 3.753 4.275v159.863l-24.872 8.29c-3.93 1.31-6.053 5.558-4.743 9.487 1.048 3.143 3.974 5.13 7.114 5.13.786 0 1.586-.125 2.373-.387l30-10c3.063-1.021 5.128-3.887 5.128-7.115v-154.58c6.919 3.287 14.581 5.08 22.5 5.08s15.581-1.793 22.5-5.08v154.58c0 3.229 2.065 6.095 5.128 7.115l30 10c.787.262 1.587.387 2.373.387 3.141 0 6.066-1.987 7.114-5.13 1.31-3.929-.813-8.177-4.743-9.487zm-24.872-317.385h2.5c6.893 0 12.5 5.607 12.5 12.5v121.215c-8.73-3.096-15-11.437-15-21.215zm-45 0v82.5c0 4.143 3.357 7.5 7.5 7.5s7.5-3.357 7.5-7.5v-82.5h15v105h-45v-105zm-45 12.5c0-6.893 5.607-12.5 12.5-12.5h2.5v112.5c0 9.778-6.27 18.119-15 21.215zm22.494 122.482c3.275-4.359 5.624-9.45 6.751-14.981h46.509c1.127 5.531 3.476 10.623 6.751 14.981-7.03 9.37-18.117 15.019-30.006 15.019s-22.975-5.649-30.005-15.019z"/></g></svg>