<svg id="Capa_1" enable-background="new 0 0 512 512" height="512" viewBox="0 0 512 512" width="512" xmlns="http://www.w3.org/2000/svg"><g><g><g><g><path d="m134.601 95.748c4.468 5.264 8.412 10.906 12.434 16.487 20.361-15.456 44.106-26.682 69.926-32.382-7.97-13.042-10.913-30.694-5.334-44.882-35.46 7.081-67.919 22.476-95.254 44.074 6.179 5.454 12.772 10.274 18.228 16.703z" fill="#c09fde"/></g><g><path d="m216.961 79.854c-3.919-6.413-6.614-13.941-7.686-21.623-20.57 4.879-39.774 13.275-56.948 24.52-5.228-7.374-13.574-12.382-23.119-13.103-.625.426-9.268 6.581-12.835 9.398 6.179 5.453 12.771 10.273 18.228 16.702 4.468 5.264 8.412 10.906 12.434 16.487 1.896-1.437 31.922-27.19 69.926-32.381z" fill="#a070ce"/></g><g><circle cx="458.66" cy="255.903" fill="#f5d9ab" r="45"/></g><g><path d="m295.342 79.921c40.548 9.02 75.953 31.688 101.151 62.931 8.225-.879 16.203-6.834 22.766-11.376 3.74-2.588 7.313-5.441 10.313-8.877 1.523-1.744 2.732-3.645 3.876-5.584-32.565-41.514-79.377-71.322-133.081-82.043 2.587 8.367 4.878 17.041 3.677 25.831-.971 7.112-4.199 13.622-8.702 19.118z" fill="#c09fde"/></g><g><path d="m477.388 213.473c-6.513-34.089-20.701-65.454-40.702-92.226-1.197 1.908-2.482 3.766-4.05 5.494-3.175 3.497-6.958 6.415-10.831 9.093-6.466 4.471-13.868 9.704-21.805 11.517 15.354 20.315 26.502 43.981 32.167 69.705 13.23-8.536 31.428-11.749 45.221-3.583z" fill="#faef93"/></g><g><path d="m472.137 191.946c-4.35-.912-8.856-1.398-13.477-1.398-4.408 0-8.712.442-12.875 1.275-5.764-19.696-14.784-38-26.459-54.277-5.854 4.019-12.385 8.219-19.325 9.805 15.406 20.306 26.65 44.503 32.167 69.705 13.23-8.536 31.428-11.75 45.221-3.583-.329-1.718-4.913-20.38-5.252-21.527z" fill="#f6e23d"/></g><g><path d="m450.091 303.654c-6.38-.746-13.406-2.928-18.22-7.354-9.311 40.801-32.46 76.329-64.24 101.401 0 0-.969 14.695 7.406 24.669s18.007 12.59 18.007 12.59c42.721-32.77 73.373-80.491 84.129-135.345-8.431 3.738-17.474 5.162-27.082 4.039z" fill="#faef93"/></g><g><path d="m408.835 421.654c34.447-31.801 58.958-74.207 68.337-122.04-5.564 2.467-11.397 3.919-17.482 4.304-12.697 41.533-37.06 77.967-69.273 105.484-7.134-6.997-8.78-19.698-8.648-24.099-4.493 4.371-9.212 8.511-14.14 12.398-1.237 18.967 11.931 33.006 25.413 37.259 2.711-2.075 13.245-10.946 15.793-13.306z" fill="#f6e23d"/></g><g><path d="m211.853 458.427c-.321-9.288 1.837-18.059 5.951-26.1-42.668-9.2-79.716-33.494-105.295-67.011-14.902 5.678-28.31 18.32-31.213 33.099 33.147 40.609 80.165 69.451 133.834 79.282-.125-.502-.25-1.002-.376-1.495-1.496-5.832-2.693-11.737-2.901-17.775z" fill="#c4e5f9"/></g><g><path d="m59.46 302.988c-7.669.873-16.524 1.029-24.24-1.397 7.004 34.093 21.697 65.38 42.201 91.958 4.544-14.29 17.377-26.48 31.92-32.495-13.338-18.584-23.228-39.81-28.741-62.74-6.751 2.785-14.688 3.94-21.14 4.674z" fill="#d15573"/></g><g><path d="m112.399 82.256c-39.389 32.592-67.497 78.325-77.639 130.477 3.271-1.754 6.569-3.44 10.198-4.343 5.771-1.436 12.094-1.315 17.943-.511 5.584.768 11.26 2.432 15.911 5.718.532.376 1.029.787 1.525 1.2 9.32-39.879 31.872-74.667 62.771-99.492 0 0 1.544-9.445-8.37-21.546s-22.339-11.503-22.339-11.503z" fill="#d15573"/></g><g><path d="m303.64 458.068c.517 5.829.203 12.382-1.268 18.552 31.851-6.663 61.234-20.042 86.591-38.6-4.35-4.073-8.263-8.663-12.041-13.197-5.992-7.19-8.96-15.914-13.339-24.013-20.015 14.895-43.227 25.732-68.415 31.31 4.381 8.08 7.648 16.658 8.472 25.948z" fill="#c4e5f9"/></g><g><path d="m127.252 86.983c-7.75-5.064-14.853-4.728-14.853-4.728-33.825 27.988-59.318 65.672-72.271 108.784-2.143 7.135-3.935 14.378-5.367 21.693 6.489-3.866 13.927-5.827 21.493-5.42 8.456.344 17.423 1.917 24.083 7.484 1.344-5.752 2.972-11.393 4.853-16.919-7.396-4.068-15.654-6.76-24.43-7.741 12.313-40.36 35.641-75.913 66.492-103.153z" fill="#c21d44"/></g><g><circle cx="256" cy="256" fill="#c4e5f9" r="127.34"/></g><g><path d="m273.3 368.042c-70.328 0-127.341-57.012-127.341-127.34 0-33.825 13.193-64.566 34.708-87.369-31.535 23.177-52.007 60.529-52.007 102.667 0 70.328 57.012 127.34 127.34 127.34 36.503 0 69.414-15.363 92.632-39.971-21.097 15.506-47.142 24.673-75.332 24.673z" fill="#a4d7f5"/></g><g><path d="m334.068 293.944-24.384 22.056h-37.619l-52.342 63.749s51.438 14.55 98.034-12.352c46.597-26.903 59.99-73.453 59.99-73.453z" fill="#8edf78"/></g><g><path d="m332.137 349.752c-45.539 26.292-95.692 12.994-97.947 12.376l-14.468 17.621s51.438 14.55 98.034-12.352c20.004-11.55 33.885-26.719 43.217-40.273-7.772 8.078-17.282 15.957-28.836 22.628z" fill="#6ad34d"/></g><g><path d="m156.889 177.044s-38.55 43.793-25.858 103.523 57.474 84.465 57.474 84.465v-79.032l15.32-30v-30z" fill="#8edf78"/></g><g><path d="m148.244 264.024c-7.445-35.035 2.74-64.58 12.434-83.028l-3.789-3.952s-38.55 43.792-25.858 103.523 57.474 84.465 57.474 84.465v-29.659c-14.049-12.971-32.759-36.046-40.261-71.349z" fill="#6ad34d"/></g><g><path d="m211 136.786v36.019l15 15.686h23.969l14.414 15.127h20.931 15.686v-66.831s-20.298-8.127-45-8.127-45 8.126-45 8.126z" fill="#8edf78"/></g><g><path d="m276.813 181.073-14.414-15.127h-13.963l-15-14.685v-20.507c-13.374 2.408-22.436 6.031-22.436 6.031v36.019l15 15.686h23.969l14.414 15.127h20.931 15.686v-22.543h-24.187z" fill="#6ad34d"/></g><g><path d="m241 233.4v30.2l15 15h21.978l23.022-25.081v-5.119l-15-15z" fill="#8edf78"/></g><g><path d="m267.138 257.456-4.994-4.994v-19.062h-21.144v30.2l15 15h21.978l19.408-21.144z" fill="#6ad34d"/></g><g><path d="m77.421 393.549c4.916-14.933 17.675-26.506 31.92-32.495-2.879-4.012-5.587-8.153-8.136-12.402-.193-.003-.384-.015-.577-.015-8.042 0-15.43 2.782-21.266 7.431-9.426-16.437-16.849-34.168-21.915-52.874-7.179.672-15.177.613-22.228-1.604 12.76 58.623 40.688 89.992 42.202 91.959z" fill="#c21d44"/></g><g><path d="m233.5 151h15v15h-15z" fill="#fff"/></g><g><path d="m150.989 233.5h15v15h-15z" fill="#fff"/></g><g><path d="m278.5 338.5h15v15h-15z" fill="#fff"/></g><g><path d="m215.13 477.698c-1.979-7.605-3.629-15.395-3.255-23.298.334-7.801 2.415-15.203 5.929-22.072-7.023-1.514-13.89-3.446-20.583-5.752-3.568 6.522-6.082 13.703-7.314 21.313-38.722-13.668-72.587-37.615-98.33-68.564-5.152 5.538-8.902 12.072-10.281 19.09 43.527 61.231 127.882 78.181 133.834 79.283z" fill="#a4d7f5"/></g><g><path d="m307.677 475.435c29.431-6.9 57.403-19.885 81.286-37.415-5.054-4.838-9.706-10.131-13.927-15.65-16.687 10.399-34.835 18.67-54.062 24.451-1.288-7.104-3.706-13.814-7.071-19.933-6.124 2.064-12.412 3.812-18.735 5.233 3.307 6.105 6.014 12.579 7.472 19.384 1.72 8.225 1.685 16.566-.268 25.115 1.778-.372 3.544-.771 5.305-1.185z" fill="#a4d7f5"/></g><g><path d="m429.373 111.987c-1.335 7.506-15.713 17.166-22.021 10.858-22.172-27.491-52.248-48.337-86.775-59.095.543-3.39.828-6.867.828-10.411 0-4.635-.49-9.154-1.406-13.516-1.613-.477-14.67-3.853-19.63-4.852 2.587 8.367 4.878 17.041 3.677 25.831-.972 7.111-4.2 13.622-8.704 19.118 6.061 1.359 12.051 3.026 17.941 4.99 33.032 11.055 61.804 31.402 83.209 57.942 18.763 6.744 36.144-16.112 36.956-25.838-1.331-1.697-2.696-3.368-4.075-5.027z" fill="#a070ce"/></g><g><circle cx="256" cy="53.34" fill="#fbf2e2" r="45"/></g><g><path d="m270.87 83.47c-24.853 0-45-20.147-45-45 0-8.616 2.425-16.664 6.625-23.505-12.893 7.914-21.495 22.139-21.495 38.375 0 24.853 20.147 45 45 45 16.237 0 30.462-8.602 38.375-21.495-6.841 4.2-14.889 6.625-23.505 6.625z" fill="#f7e0ba"/></g><g><path d="m473.53 285.636c-24.853 0-45-20.147-45-45 0-8.616 2.425-16.664 6.625-23.505-12.893 7.914-21.495 22.139-21.495 38.375 0 24.853 20.147 45 45 45 16.237 0 30.462-8.602 38.375-21.495-6.841 4.2-14.889 6.625-23.505 6.625z" fill="#f0b582"/></g><g><circle cx="256" cy="458.66" fill="#d69660" r="45"/></g><g><circle cx="53.34" cy="255.903" fill="#f5d9ab" r="45"/></g><g><path d="m67.787 285.636c-24.853 0-45-20.147-45-45 0-8.616 2.425-16.664 6.625-23.505-12.893 7.914-21.495 22.139-21.495 38.375 0 24.853 20.147 45 45 45 16.237 0 30.462-8.602 38.375-21.495-6.841 4.2-14.889 6.625-23.505 6.625z" fill="#f0b582"/></g><g><path d="m270.332 488.635c-24.853 0-45-20.147-45-45 0-8.616 2.425-16.664 6.625-23.505-12.893 7.914-21.495 22.139-21.495 38.375 0 24.853 20.147 45 45 45 16.237 0 30.462-8.602 38.375-21.495-6.84 4.2-14.889 6.625-23.505 6.625z" fill="#9e5e28"/></g><g><path d="m31.159 241h15v15h-15z" fill="#fff"/></g><g><path d="m436.096 241h15v15h-15z" fill="#fff"/></g></g></g><g><path d="m371.058 221.045 14.403-4.362c-1.541-5.09-3.403-10.136-5.532-14.999l-13.786 6.037c1.891 4.32 3.545 8.802 4.915 13.324z"/><path d="m351.653 351.661c30.656-30.66 44.813-74.55 37.87-117.405l-14.855 2.406c2.724 16.813 1.789 33.803-2.441 49.882h-40.801l-24.464 22.129h-38.402l-50.485 61.486c-7.743-2.565-15.196-5.926-22.268-10.03v-72.22l15.371-30.099v-34.934l-44.932-46.865c10.423-11.732 23.267-21.432 37.081-28.152v27.689l19.359 20.244h24.04l14.462 15.177h47.486v-30.216h-15.049v15.167h-25.99l-14.462-15.177h-24.056l-10.74-11.232v-27.769c11.983-3.933 24.646-5.978 37.624-5.978s25.641 2.045 37.624 5.978v23.961h15.049v-17.843c11.832 5.777 22.753 13.536 32.338 23.121 7.154 7.155 13.372 15.153 18.48 23.77l12.947-7.674c-5.748-9.698-12.741-18.694-20.784-26.738-25.551-25.552-59.521-39.624-95.653-39.624s-70.103 14.073-95.653 39.624c-52.743 52.747-52.743 138.574 0 191.321 25.55 25.552 59.521 39.624 95.653 39.624s70.1-14.072 95.651-39.623zm-75.978-27.939h37.084l24.464-22.129h29.963c-5.966 14.579-14.783 28.033-26.175 39.426-22.707 22.709-52.898 35.216-85.011 35.216-7.399 0-14.695-.672-21.822-1.972zm-118.812-135.75 39.265 40.954v25.264l-15.371 30.099v65.496c-49.431-39.138-58.919-111.655-23.894-161.813z"/><path d="m233.426 266.742 19.457 19.457h28.474l27.315-29.758v-11.183l-19.457-19.457h-55.79v40.941zm15.049-25.892h34.507l10.205 10.206-18.443 20.094h-15.628l-10.641-10.641z"/><path d="m512 256c0-19.852-11.043-37.168-27.305-46.144-9.035-45.062-31.023-86.071-63.751-118.8s-73.738-54.717-118.8-63.752c-8.976-16.261-26.293-27.304-46.144-27.304s-37.167 11.042-46.144 27.304c-50.596 9.949-96.297 37.132-130.42 76.051l.091.091c-26.393 30.453-44.303 66.87-52.23 106.413-16.257 8.978-27.297 26.292-27.297 46.141 0 19.858 11.05 37.179 27.32 46.153 12.502 62.211 50.364 117.186 104.359 151.258l8.031-12.727c-9.615-6.068-21.358-15.782-27.146-20.239s-15.866-16.014-15.866-16.014c-2.848-3.959-4.417-6.636-4.417-10.664-.406-11.529 13.704-19.238 23.181-12.715 2.444 2.743 4.971 4.421 7.585 7.033 23.666 23.641 52.826 41.391 84.847 49.826-4.103 8.985-5.602 20.056-3.843 30.086-17.787-4.342-34.939-10.915-51.135-19.612l-7.119 13.259c20.147 10.818 41.679 18.56 64.057 23.051 8.978 16.262 26.294 27.305 46.146 27.305 19.851 0 37.167-11.042 46.144-27.304 90.261-17.108 165.459-92.392 182.552-182.552 16.261-8.977 27.304-26.292 27.304-46.144zm-15.049 0c0 20.746-16.878 37.624-37.624 37.624s-37.624-16.878-37.624-37.624 16.878-37.624 37.624-37.624 37.624 16.878 37.624 37.624zm-37.624-52.673c-7.624 0-14.868 1.641-21.417 4.568-5.821-22.098-15.6-42.831-28.87-61.336 10.256-1.947 19.342-10.023 22.531-19.974 16.915 22.862 29.477 49.104 36.421 77.466-2.821-.468-5.713-.724-8.665-.724zm-61.506-113.004-.109.109 15.94 15.94c2.848 2.849 4.417 6.636 4.417 10.664.367 10.93-12.442 18.717-21.972 13.413-2.306-2.569-4.689-5.083-7.145-7.537-23.665-23.642-52.825-40.388-84.847-48.822 4.103-8.983 5.601-20.052 3.844-30.082 33.641 8.237 64.3 24.38 89.872 46.315zm-141.821-75.274c20.746 0 37.624 16.878 37.624 37.624s-16.878 37.623-37.624 37.623-37.624-16.878-37.624-37.624 16.878-37.623 37.624-37.623zm-48.104 59.041c-22.207 5.85-43.037 15.699-61.614 29.072-1.625-10.034-9.778-19.646-19.564-22.848 22.825-16.855 49.017-29.376 77.334-36.307-1.757 10.032-.259 21.098 3.844 30.083zm-114.832 36.921 12.953-12.954c12.943-12.551 32.851 3.782 23.32 18.863-6.431 5.662-17.784 18.552-17.784 18.552-17.69 21.153-30.451 45.797-37.465 72.423-8.983-4.102-20.05-5.6-30.079-3.844 8.581-35.047 25.72-66.853 49.055-93.04zm-78.015 144.989c0-20.746 16.878-37.624 37.624-37.624s37.624 16.878 37.624 37.624-16.878 37.624-37.624 37.624-37.624-16.878-37.624-37.624zm71.01 116.46c-3.196 3.195-5.585 6.982-7.066 11.113-16.314-22.613-28.28-48.279-34.974-75.624 10.028 1.754 21.088.256 30.07-3.845 5.682 21.572 15.143 41.84 27.935 60.008-6.015 1.071-11.554 3.938-15.965 8.348zm58.431 16.059c-26.477-22.254-49.46-57.216-57.027-93.02 10.953-9.659 17.882-23.781 17.882-39.499s-6.929-29.84-17.882-39.499c7.816-33.786 25.658-63.444 50.526-86.473 22.365-20.711 49.925-35.904 78.512-42.564 9.659 10.953 23.781 17.881 39.498 17.881s29.839-6.929 39.498-17.882c26.363 6.142 56.369 23.239 70.243 34.939 36.59 30.856 47.212 52.349 58.795 94.098-10.953 9.659-17.882 23.781-17.882 39.499 0 15.717 6.929 29.839 17.882 39.499-6.379 27.382-18.432 49.739-36.648 72.763-18.216 23.023-63.839 49.623-92.389 56.274-9.659-10.953-23.781-17.881-39.498-17.881s-29.839 6.928-39.498 17.882c-27.046-6.302-51.57-18.826-72.012-36.017zm111.51 108.432c-20.746 0-37.624-16.878-37.624-37.624s16.878-37.624 37.624-37.624 37.624 16.878 37.624 37.624-16.878 37.624-37.624 37.624zm48.104-59.041c21.931-5.777 42.517-15.454 60.916-28.572 1.033 5.885 3.81 11.521 8.347 16.057 3.146 3.146 6.868 5.507 10.925 6.993-22.598 16.5-48.443 28.774-76.344 35.605 1.757-10.032.259-21.099-3.844-30.083zm114.836-37.07c-7.011 7.272-14.921 19.102-24.267 18.329-11.98.402-20.578-15.539-12.207-23.909 5.358-5.358 10.478-10.084 15.229-15.524 0 0 29.613-33.44 40.215-75.633 8.984 4.103 20.053 5.601 30.083 3.844-8.581 35.046-25.206 64.878-49.053 92.893z"/></g></g></svg>