<svg height="512" viewBox="0 0 256 256" width="512" xmlns="http://www.w3.org/2000/svg"><path d="m150.993 182.906 37.5 37.5a6.439 6.439 0 0 0 9.107 0 6 6 0 0 0 0-8.485 6 6 0 0 0 7.481.8l-58.333-58.331a24.222 24.222 0 0 0 4.245 28.516z" fill="#ede49d"/><path d="m214.566 194.945a6 6 0 0 0 8.481-8.481l-37.808-37.808a24.2 24.2 0 0 0 -27.621-4.677l57.988 57.988a5.98 5.98 0 0 0 -1.04-7.022z" fill="#d3ba2a"/><path d="m206.081 211.916a6 6 0 0 0 0-8.485 6 6 0 0 0 8.485 0 5.914 5.914 0 0 0 1.042-1.461l-57.988-57.988a24.113 24.113 0 0 0 -6.627 4.677 24.187 24.187 0 0 0 -4.245 5.731l58.328 58.328a6.037 6.037 0 0 0 1-.8z" fill="#eee045"/><path d="m193.042 225.283a9.413 9.413 0 0 1 -6.675-2.76l-37.495-37.5a27.217 27.217 0 0 1 38.49-38.49l37.808 37.809a8.992 8.992 0 0 1 -5.86 15.34 9 9 0 0 1 -8.49 8.489 8.986 8.986 0 0 1 -8.485 8.481 8.959 8.959 0 0 1 -2.619 5.866 9.406 9.406 0 0 1 -6.674 2.765zm-24.925-80.707a21.206 21.206 0 0 0 -15 36.209l37.494 37.5a3.444 3.444 0 0 0 4.865 0 3 3 0 0 0 0-4.243l-16.826-16.826a3 3 0 0 1 4.243-4.242l16.823 16.826a3.073 3.073 0 0 0 4.243 0 3 3 0 0 0 0-4.243l-16.825-16.826a3 3 0 0 1 4.242-4.242l16.824 16.821a3 3 0 0 0 4.243-4.244l-16.826-16.825a3 3 0 0 1 4.244-4.241l16.828 16.828a3 3 0 0 0 4.239-4.239l-37.808-37.809a21.154 21.154 0 0 0 -15.003-6.204z" fill="#1c2d6b"/><path d="m73.195 33.713c5.622 0 10.64 6.017 13.941 15.438a30 30 0 0 1 14.6 35.793l-10.588-6.356a90.8 90.8 0 0 1 -1.322 13.2l6 3.6a30.146 30.146 0 0 1 -8.682 6.856c-3.3 9.437-8.324 15.467-13.951 15.467a42 42 0 0 0 0-84z" fill="#4b67b0"/><path d="m59.244 102.246a30.119 30.119 0 0 1 -8.682-6.856l6-3.6a90.8 90.8 0 0 1 -1.322-13.2l-10.591 6.354a30 30 0 0 1 14.6-35.793c3.3-9.421 8.32-15.438 13.942-15.438a42 42 0 0 0 0 84c-5.624 0-10.647-6.03-13.947-15.467z" fill="#89aadb"/><path d="m89.826 91.789a90.8 90.8 0 0 0 1.322-13.2l-5.1-3.06-6.853-4.112v-25.1a29.772 29.772 0 0 1 7.941 2.836c-3.3-9.421-8.319-15.438-13.941-15.438s-10.641 6.015-13.942 15.436a29.791 29.791 0 0 1 7.942-2.836v25.1l-6.853 4.112-5.1 3.06a90.8 90.8 0 0 0 1.322 13.2l10.631-6.378v19.7a29.723 29.723 0 0 1 -7.951-2.865c3.3 9.437 8.323 15.467 13.951 15.467s10.65-6.03 13.951-15.467a29.735 29.735 0 0 1 -7.951 2.865v-19.7z" fill="#6287c5"/><path d="m73.195 120.713a45 45 0 1 1 45-45 45.051 45.051 0 0 1 -45 45zm0-84a39 39 0 1 0 39 39 39.044 39.044 0 0 0 -39-39zm6 71.4a3 3 0 0 1 -3-3v-19.7a3 3 0 0 1 4.543-2.573l16.634 9.98a3 3 0 0 1 .719 4.542 33.153 33.153 0 0 1 -18.3 10.691 3.015 3.015 0 0 1 -.596.058zm3-17.4v10.457a27.241 27.241 0 0 0 8.805-5.176zm-15 17.4a3.015 3.015 0 0 1 -.6-.06 33.152 33.152 0 0 1 -18.295-10.693 3 3 0 0 1 .72-4.542l16.633-9.98a3 3 0 0 1 4.544 2.573v19.7a3 3 0 0 1 -3 3zm-11.807-12.119a27.213 27.213 0 0 0 8.807 5.176v-10.461zm-10.739-8.05a3 3 0 0 1 -2.855-2.078 33.01 33.01 0 0 1 24.806-42.491 3 3 0 0 1 3.6 2.939v25.1a3 3 0 0 1 -1.457 2.572l-22.551 13.53a3 3 0 0 1 -1.543.428zm19.546-37.694a27.014 27.014 0 0 0 -17.611 30.034l17.611-10.567zm37.545 37.694a2.991 2.991 0 0 1 -1.543-.428l-22.546-13.528a3 3 0 0 1 -1.456-2.572v-25.1a3 3 0 0 1 3.6-2.939 33.011 33.011 0 0 1 24.8 42.492 3 3 0 0 1 -2.855 2.077zm-19.54-18.227 17.61 10.567a27.015 27.015 0 0 0 -17.61-30.034z" fill="#1c2d6b"/><path d="m172.728 115.134-12.21-29.947c-2.047-4.9-3.253-12.333-2.949-20.5.3-8.123 2.138-15.123 4.7-18.781a23.989 23.989 0 0 0 -26.941 39.277l33.163 29.947a9.976 9.976 0 0 0 6.7 2.579c-.878.004-1.762-.856-2.463-2.575z" fill="#ef7f72"/><path d="m223.07 64.691a23.973 23.973 0 0 0 -34.95-18.781c2.565 3.658 4.4 10.658 4.7 18.781.3 8.163-.9 15.593-2.949 20.5l-12.21 29.947c-.7 1.719-1.585 2.579-2.468 2.579a9.976 9.976 0 0 0 6.7-2.579l33.163-29.947a23.961 23.961 0 0 0 8.014-20.5z" fill="#e8383b"/><path d="m177.664 115.134 12.21-29.947c2.047-4.9 3.253-12.333 2.949-20.5-.3-8.123-2.138-15.123-4.7-18.781a24.047 24.047 0 0 0 -11.968 14.547.991.991 0 0 1 -1.912 0 24.047 24.047 0 0 0 -11.971-14.543c-2.565 3.658-4.4 10.658-4.7 18.781-.3 8.163.9 15.593 2.949 20.5l12.21 29.947c.7 1.719 1.585 2.579 2.468 2.579s1.764-.864 2.465-2.583z" fill="#e95947"/><path d="m175.2 120.725a12.961 12.961 0 0 1 -8.713-3.364l-33.167-29.948a26.778 26.778 0 0 1 -8.983-23.024 27.012 27.012 0 0 1 50.859-9.6 26.993 26.993 0 0 1 27.4-14.389 27.074 27.074 0 0 1 23.459 23.99 26.8 26.8 0 0 1 -9.009 23.047l-33.137 29.924a12.968 12.968 0 0 1 -8.709 3.364zm-24.033-74.537a21.547 21.547 0 0 0 -2.636.162 21 21 0 0 0 -11.216 36.587l33.19 29.971a6.977 6.977 0 0 0 9.382 0l33.164-29.948a21 21 0 0 0 -11.189-36.61 20.992 20.992 0 0 0 -22.83 14.95 3.991 3.991 0 0 1 -7.672 0 20.957 20.957 0 0 0 -20.193-15.112z" fill="#1c2d6b"/><path d="m187.725 165.24a5.013 5.013 0 0 1 1.238-5.048l3.907-3.9 3.422 3.422 15.424-15.425a24.215 24.215 0 0 0 -27.363 3.571h-.006l-6.869 6.864a9.995 9.995 0 0 0 -2.468 10.076l2.556 8.112a5.95 5.95 0 0 0 2.382 3.15l8.5-8.5z" fill="#ede49d"/><path d="m207.024 170.442 11.531 11.531a24.206 24.206 0 0 0 3.765-26.827z" fill="#d3ba2a"/><path d="m217.712 148.659a24.092 24.092 0 0 0 -6-4.374l-15.42 15.425 10.732 10.732 15.3-15.3a24.052 24.052 0 0 0 -4.612-6.483z" fill="#eee045"/><path d="m185.088 176.818a5.982 5.982 0 0 0 3.912-7.518l-.55-1.746-8.5 8.5a5.7 5.7 0 0 0 .566.368 5.978 5.978 0 0 0 4.572.396z" fill="#eee045"/><path d="m218.555 184.974a3 3 0 0 1 -2.121-.879l-23.565-23.565-1.786 1.783a2.007 2.007 0 0 0 -.5 2.025l1.278 4.057a9 9 0 1 1 -17.159 5.411l-2.556-8.114a12.955 12.955 0 0 1 3.208-13.1l6.872-6.867a2.939 2.939 0 0 1 .281-.247 27.184 27.184 0 0 1 38.273 38.5 3 3 0 0 1 -2.151.99zm-25.685-31.686a2.991 2.991 0 0 1 2.121.879l23.286 23.286a21.185 21.185 0 0 0 -31.909-27.374l-.055.048-6.715 6.71a6.974 6.974 0 0 0 -1.726 7.053l2.555 8.11a3 3 0 1 0 5.717-1.8l-1.28-4.063a7.982 7.982 0 0 1 1.978-8.071l3.907-3.9a2.988 2.988 0 0 1 2.121-.878z" fill="#1c2d6b"/><path d="m163.144 185.942a6 6 0 0 0 -8.477-8.483l-9.01 9a6 6 0 0 0 8.48 8.48 5.971 5.971 0 0 0 -.7 7.625l17.33-17.33a5.994 5.994 0 0 0 -7.623.708z" fill="#ede49d"/><path d="m179.956 203.07.153-.153a5.986 5.986 0 0 0 1.19-6.751l-16.938 16.934a5.965 5.965 0 0 0 6.745-1.191 6.024 6.024 0 0 0 0 8.49 6.452 6.452 0 0 0 9.11 0l8.537-8.53a6.223 6.223 0 0 0 -8.8-8.8z" fill="#d3ba2a"/><path d="m180.111 194.428a6 6 0 0 0 -8.488 0 6 6 0 0 0 0-8.482 6.089 6.089 0 0 0 -.863-.705l-17.33 17.33a6.089 6.089 0 0 0 .7.865 6.011 6.011 0 0 0 8.49 0 5.959 5.959 0 0 0 1.735 9.671l16.945-16.941a5.961 5.961 0 0 0 -1.189-1.738z" fill="#eee045"/><g fill="#1c2d6b"><path d="m166.866 216.676a9.006 9.006 0 0 1 -6.362-15.364l9-9a8.948 8.948 0 0 1 6.366-2.639 9 9 0 0 1 6.362 15.369l-9 9a8.924 8.924 0 0 1 -6.366 2.634zm9-21.006a2.985 2.985 0 0 0 -2.122.88l-9 9a3.011 3.011 0 0 0 0 4.238 3.049 3.049 0 0 0 4.232 0l9.009-9a3 3 0 0 0 -2.121-5.124z"/><path d="m158.384 208.183a9 9 0 0 1 -6.369-15.361l9.009-9a9 9 0 0 1 12.726 12.725l-9 9.009a8.969 8.969 0 0 1 -6.366 2.627zm9-21a2.99 2.99 0 0 0 -2.119.876l-9.008 9a3 3 0 0 0 4.247 4.247l9-9.008a3 3 0 0 0 -2.121-5.116z"/><path d="m175.665 225.282a9.434 9.434 0 0 1 -6.676-2.753 9.023 9.023 0 0 1 -.013-12.728l8.859-8.853a9.223 9.223 0 1 1 13.038 13.052l-8.537 8.529a9.4 9.4 0 0 1 -6.671 2.753zm8.689-21.031a3.208 3.208 0 0 0 -2.277.941l-8.85 8.844a3.023 3.023 0 0 0 0 4.246 3.451 3.451 0 0 0 4.867 0l8.538-8.531a3.221 3.221 0 0 0 -2.278-5.5z"/><path d="m149.9 199.706a9 9 0 0 1 -6.361-15.364l9.01-9a9 9 0 0 1 12.719 12.727l-9.007 9a8.921 8.921 0 0 1 -6.361 2.637zm9.008-21a2.987 2.987 0 0 0 -2.117.875l-9.01 9a3 3 0 0 0 2.119 5.121 2.962 2.962 0 0 0 2.114-.879l9.012-9.006a2.995 2.995 0 0 0 -2.118-5.114z"/></g><path d="m61.2 177.663c.007-20.791 4.33-38.041 10-41.367.019-.011.039-.018.058-.029l.035-.017a2.374 2.374 0 0 1 .242-.121c.1-.047.195-.069.291-.109a24.055 24.055 0 0 0 -5.62.276 42.008 42.008 0 0 0 -35.006 41.367v.1a41.914 41.914 0 0 0 15.475 32.51 20.9 20.9 0 0 1 -3.475-11.56 20.986 20.986 0 0 1 18-20.761c0-.063 0-.125 0-.188z" fill="#ede49d"/><path d="m91.2 156.713a20.908 20.908 0 0 0 -7.455-16.029 19.879 19.879 0 0 0 -8.056-4.06c4.869 3.595 8.648 17.518 9.381 34.916a20.936 20.936 0 0 0 6.13-14.827z" fill="#d3ba2a"/><path d="m75.685 136.624a22.33 22.33 0 0 0 -3.861-.6c-.1.04-.195.062-.291.109a2.374 2.374 0 0 0 -.242.121l-.035.017c-.019.011-.039.018-.058.029-5.673 3.326-10 20.576-10 41.367v.1.188a21.028 21.028 0 0 1 3-.239h6a20.933 20.933 0 0 0 14.87-6.173c-.735-17.401-4.514-31.324-9.383-34.919z" fill="#eee045"/><path d="m65.695 210.252v.022c-2.654-7.659-4.354-19.3-4.373-32.342a20.987 20.987 0 0 0 -18.122 20.781 20.888 20.888 0 0 0 3.463 11.539 41.8 41.8 0 0 0 26.537 9.461c-2.851 0-5.46-3.552-7.505-9.461z" fill="#a4d4a0"/><path d="m85.066 177.713q0-3.085-.125-6.056a20.924 20.924 0 0 1 -14.741 6.056h-6a21.044 21.044 0 0 0 -2.869.219c.019 13.046 1.719 24.683 4.373 32.342v-.022c2.045 5.909 4.654 9.461 7.5 9.461 6.547 0 11.862-18.804 11.862-42z" fill="#65bc49"/><path d="m115.2 177.713a42 42 0 0 0 -42-42 4.1 4.1 0 0 1 2.449.9 19.868 19.868 0 0 1 8.1 4.072 20.908 20.908 0 0 1 7.451 16.028 20.929 20.929 0 0 1 -6.255 14.944q.121 2.967.125 6.056c0 23.2-5.315 42-11.871 42a42 42 0 0 0 42.001-42z" fill="#419b46"/><path d="m73.195 222.713a45.07 45.07 0 0 1 -28.435-10.138 2.983 2.983 0 0 1 -.606-.672 23.989 23.989 0 0 1 20.041-37.19h6a17.987 17.987 0 0 0 11.611-31.735 18.53 18.53 0 0 0 -14.93-3.748 3 3 0 0 1 -.953-5.923 45 45 0 1 1 7.271 89.406zm-24.275-14.491a38.994 38.994 0 1 0 40.38-66.022 23.991 23.991 0 0 1 -19.1 38.518h-6a17.99 17.99 0 0 0 -15.28 27.504z" fill="#1c2d6b"/><circle cx="73.186" cy="156.988" fill="#1c2d6b" r="5.808"/><circle cx="73.186" cy="198.833" fill="#1c2d6b" r="5.808"/><path d="m46.671 213.274a3 3 0 0 1 -1.9-.675 44.857 44.857 0 0 1 -16.571-34.831v-.1a44.848 44.848 0 0 1 37.512-44.326 24.535 24.535 0 0 1 19.967 5.054 23.987 23.987 0 0 1 -15.479 42.317h-6a17.991 17.991 0 0 0 -15.026 27.907 3 3 0 0 1 -2.5 4.654zm23.552-74.316a21.4 21.4 0 0 0 -3.524.3 38.863 38.863 0 0 0 -32.5 38.411v.1a38.855 38.855 0 0 0 6 20.749 24.028 24.028 0 0 1 24-23.8h6a17.88 17.88 0 1 0 .027-35.755z" fill="#1c2d6b"/></svg>