<svg height="512pt" viewBox="0 0 512 512.004" width="512pt" xmlns="http://www.w3.org/2000/svg"><path d="m252.714844 306.089844-19.214844 19.214844h-22.476562l-39.503907-39.503907 30.457031-30.453125zm0 0" fill="#ffe477"/><path d="m63.921875 41.53125v45.195312h42.3125c7.5625-7.5625 11.800781-11.804687 19.363281-19.367187v-25.828125c0-17.03125-13.804687-30.835938-30.835937-30.835938s-30.839844 13.804688-30.839844 30.835938zm0 0" fill="#ffdaaa"/><g fill="#ffe477"><path d="m19.121094 151.75-11.621094 11.617188v19.867187h40v-31.484375zm0 0"/><path d="m263.71875 38.984375 11.617188-11.621094v-19.863281h-39.996094v31.484375zm0 0"/><path d="m102.96875 485.285156 19.214844 19.214844h22.476562l39.5-39.5-30.453125-30.453125zm0 0"/><path d="m259.253906 485.285156 19.214844 19.214844h22.476562l39.5-39.5-30.453124-30.453125zm0 0"/></g><path d="m448.042969 220.730469v45.191406h-42.308594c-7.5625-7.5625-11.800781-11.800781-19.367187-19.363281v-25.828125c0-17.03125 13.808593-30.839844 30.839843-30.839844s30.835938 13.808594 30.835938 30.839844zm0 0" fill="#ffdaaa"/><path d="m492.847656 330.945312 11.621094 11.621094v19.867188h-40v-31.488282zm0 0" fill="#ffe477"/><path d="m330.988281 257.265625-39.085937-39.082031h-15.273438v-31.488282h28.316406l67.628907 67.628907 13.792969-13.796875v6.03125l15.203124 15.199218-10.78125 10.78125 58.40625 58.40625h15.273438v31.488282h-28.316406l-48.304688-48.308594-61.894531 61.898438 51.734375 51.734374-37.242188 37.242188-30.453124-30.453125 6.789062-6.789063-44.46875-44.46875h-6.441406l-81.710938 81.710938-30.453125-30.453125zm0 0" fill="#ff3f62"/><path d="m248.25 218.183594-11.617188-11.621094v-19.867188h39.996094v31.488282zm0 0" fill="#ffe477"/><path d="m291.902344 218.183594h-31.714844l54.941406 54.941406 15.859375-15.859375zm0 0" fill="#ff3f62"/><path d="m291.902344 218.183594h-31.714844l54.941406 54.941406 15.859375-15.859375zm0 0" fill="#ffe477"/><path d="m171.519531 285.800781 30.457031-30.453125-6.789062-6.789062 41.71875-41.71875-.273438-.277344v-19.867188h52.976563l-108.628906-108.625 39.082031-39.085937h15.277344v-31.484375h-28.316406l-67.628907 67.625-13.796875-13.792969v6.027344l-15.199218 15.203125 10.78125 10.78125-58.40625 58.40625h-15.273438v31.484375h28.316406l48.304688-48.304687 61.894531 61.894531-51.734375 51.734375zm0 0" fill="#ff3f62"/><path d="m201.519531 285.800781 15.453125-15.453125-14.996094-15-30.457031 30.453125 39.503907 39.503907h22.476562l3.761719-3.761719zm0 0" fill="#ffb655"/><path d="m93.921875 41.53125c0-11.585938 6.390625-21.679688 15.839844-26.949219-4.441407-2.476562-9.554688-3.886719-15-3.886719-17.03125 0-30.839844 13.804688-30.839844 30.835938v45.195312h30zm0 0" fill="#fbb984"/><path d="m39.121094 151.75h-20l-11.621094 11.617188v19.867187h20v-19.867187zm0 0" fill="#ffb655"/><path d="m235.339844 7.5h19.996094v31.484375h-19.996094zm0 0" fill="#ffb655"/><path d="m132.964844 485.285156 35.742187-35.738281-15-15-50.738281 50.738281 19.214844 19.214844h22.476562l3.757813-3.757812zm0 0" fill="#ffb655"/><path d="m289.25 485.285156 35.742188-35.738281-15-15-50.738282 50.738281 19.214844 19.214844h22.476562l3.761719-3.757812zm0 0" fill="#ffb655"/><path d="m416.367188 246.558594v-25.828125c0-11.585938 6.390624-21.679688 15.839843-26.949219-4.441406-2.476562-9.554687-3.886719-15-3.886719-17.03125 0-30.839843 13.804688-30.839843 30.835938v25.828125l19.367187 19.363281h29.996094zm0 0" fill="#fbb984"/><path d="m464.46875 330.945312h20v31.488282h-20zm0 0" fill="#ffb655"/><path d="m183.703125 434.546875 177.28125-177.28125-54.355469-54.359375v-14.527344l-1.683594-1.683594h-28.316406v31.488282h15.273438l39.085937 39.082031-177.28125 177.28125 30.453125 30.453125 15-15zm0 0" fill="#c70024"/><path d="m256.628906 186.695312h-19.996094v19.867188l11.617188 11.621094h20l-11.621094-11.621094zm0 0" fill="#ffb655"/><path d="m275.1875 218.183594h-15l54.941406 54.941406 7.5-7.5zm0 0" fill="#ffb655"/><path d="m164.277344 248.558594 51.734375-51.734375-61.894531-61.894531-14.996094 15 46.894531 46.894531-51.734375 51.734375 37.238281 37.242187 15-14.996093zm0 0" fill="#c70024"/><path d="m77.496094 151.75h15.273437l142.570313-142.570312v-1.679688h-28.316406l-67.628907 67.625-13.796875-13.792969v6.027344l-15.199218 15.203125 10.78125 10.78125-58.40625 58.40625h-15.273438v31.484375h28.316406l1.679688-1.683594zm0 0" fill="#c70024"/><path d="m495.953125 323.445312h-43.652344l-50.90625-50.902343.175781-.175781 1.058594 1.054687h52.914063v-52.691406c0-21.140625-17.195313-38.335938-38.335938-38.335938s-38.339843 17.195313-38.339843 38.335938v16.691406l-6.292969 6.296875-54.894531-54.890625h34.683593v-15h-65.136719v5.371094h-58.09375v30.472656l16.011719 16.011719h43.652344l31.585937 31.585937-67.355468 67.351563h-112.605469v15h97.605469l-29.015625 29.015625h-153.011719v15h138.015625l-29.019531 29.015625h-62.027344v15h47.027344l-6.894532 6.898437-50.738281 50.738281 26.710938 26.714844h28.691406l121.210937-121.210937h.230469l36.96875 36.96875-57.527343 57.527343 26.714843 26.714844h28.6875l84.242188-84.242187-51.734375-51.734375 51.289062-51.289063 45.199219 45.199219h78.921875v-30.476562zm-226.824219-112.761718h-17.769531l-7.226563-7.226563v-9.261719h24.996094zm124.738282 10.046875c0-12.867188 10.46875-23.339844 23.339843-23.339844 12.867188 0 23.335938 10.472656 23.335938 23.339844v37.691406h-31.703125l-14.972656-14.972656zm-252.3125 276.269531h-16.265626l-11.71875-11.714844 40.136719-40.132812 19.847657 19.847656zm156.285156 0h-16.265625l-11.714844-11.714844 40.132813-40.132812 19.847656 19.847656zm159.132812-142.066406h-17.710937l-51.414063-51.414063-61.894531 61.898438-13.632813-13.636719-10.609374 10.605469 65.371093 65.371093-26.636719 26.636719-19.847656-19.847656 6.789063-6.789063-51.96875-51.96875h-12.65625l-78.601563 78.605469-19.847656-19.847656 177.28125-177.28125-46.582031-46.585937h-10.882813v-16.484376h17.710938l70.730468 70.734376 10.785157-10.78125 7.609375 7.609374-10.78125 10.785157 65.90625 65.902343h10.878906v16.488282zm39.996094 0h-25v-16.488282h17.773438l7.226562 7.226563zm0 0"/><path d="m274.878906 243.46875 10.605469-10.609375 20.804687 20.800781-10.605468 10.605469zm0 0"/><path d="m124.121094 145.535156 51.289062 51.289063-51.734375 51.734375 37.242188 37.242187 31.621093 31.625 10.605469-10.609375-21.015625-21.011718 19.847656-19.847657 45.433594 45.433594 10.609375-10.605469-47.507812-47.503906-4.71875-4.71875 22.277343-22.277344-10.605468-10.605468-32.882813 32.882812 6.785157 6.789062-19.847657 19.847657-26.632812-26.636719 46.429687-46.433594 13.1875-13.183594-10.609375-10.605468-7.878906 7.878906-61.894531-61.894531-51.410156 51.410156h-17.710938v-16.484375h10.878906l65.90625-65.90625-10.78125-10.78125 7.609375-7.613281 10.78125 10.78125 70.734375-70.730469h17.710938v16.484375h-10.882813l-46.582031 46.585937 93.933594 93.929688 10.605468-10.605469-16.585937-16.582031h141.003906v-15h-156l-29.015625-29.015625h100.59375v-15h-115.59375l-7.726562-7.726563 31.582031-31.585937h43.652344l16.011719-16.011719v-30.472656h-78.917969l-64.523438 64.519531-6.292969-6.296875v-16.691406c0-21.136719-17.199218-38.335938-38.339843-38.335938s-38.335938 17.199219-38.335938 38.335938v52.691406h52.914063l1.058594-1.054687.175781.175781-50.90625 50.90625h-43.652344l-16.01171875 16.011719v30.472656h78.91796875zm118.71875-130.535156h24.996094v9.257812l-7.226563 7.226563h-17.769531zm-171.417969 64.222656v-37.691406c0-12.867188 10.46875-23.335938 23.339844-23.335938 12.867187 0 23.339843 10.46875 23.339843 23.335938v22.722656l-14.976562 14.96875zm-31.421875 96.511719h-25v-9.257813l7.226562-7.230468h17.773438zm0 0"/><path d="m326.578125 350.652344-10.609375-10.605469 18.132812-18.132813 10.609376 10.605469zm25.203125-25.203125-10.609375-10.605469 10.605469-10.605469 10.609375 10.605469zm17.675781-17.675781-10.605469-10.609376 10.605469-10.605468 10.605469 10.609375zm0 0" fill="#fff"/><path d="m211.339844 154.386719-22.574219-22.574219 10.609375-10.605469 22.570312 22.570313zm-29.644532-29.644531-10.605468-10.605469 10.609375-10.605469 10.605469 10.605469zm-17.675781-17.675782-10.605469-10.605468 10.605469-10.605469 10.605469 10.605469zm0 0" fill="#fff"/></svg>