<svg height="512" viewBox="0 0 256 256" width="512" xmlns="http://www.w3.org/2000/svg"><g id="Layer_50"><g><g><g><path d="m212.729 120.532-25.078 43.436c-1.224 2.12-3.935 2.846-6.055 1.622s-2.846-3.935-1.623-6.055l25.083-43.445c-6.625-3.104-14.015-4.847-21.815-4.847-28.443 0-51.5 23.057-51.5 51.5s23.057 51.5 51.5 51.5 51.5-23.057 51.5-51.5c0-17.471-8.708-32.899-22.012-42.211z" fill="#70d6f9"/></g></g><g><g><path d="m206.443 131.418-18.792 32.549c-1.224 2.12-3.935 2.846-6.055 1.622s-2.846-3.935-1.623-6.055l18.797-32.557c-4.762-2.076-10.012-3.234-15.53-3.234-21.505 0-39 17.495-39 39s17.495 39 39 39 39-17.495 39-39c.001-12.819-6.219-24.212-15.797-31.325z" fill="#edf4fc"/></g></g><g><g><path d="m200.135 142.344-12.485 21.624c-1.224 2.12-3.935 2.846-6.055 1.622s-2.846-3.935-1.623-6.055l12.49-21.634c-2.874-1.07-5.981-1.658-9.223-1.658-14.612 0-26.5 11.888-26.5 26.5s11.888 26.5 26.5 26.5 26.5-11.888 26.5-26.5c.002-8.196-3.74-15.534-9.604-20.399z" fill="#f5c84c"/></g></g><g><g><path d="m193.711 153.471-6.06 10.497c-1.224 2.12-3.935 2.846-6.055 1.622s-2.846-3.935-1.623-6.055l6.06-10.497c-5.738-1.165-11.835 1.365-14.92 6.708-3.86 6.686-1.561 15.264 5.125 19.124s15.264 1.561 19.124-5.124c3.085-5.343 2.227-11.889-1.651-16.275z" fill="#fc657e"/></g></g><g><g><path d="m222.38 94.951c-2.12-1.224-4.831-.498-6.055 1.622l-36.351 62.962c-1.224 2.12-.498 4.831 1.622 6.055s4.831.497 6.055-1.623l36.351-62.962c1.224-2.12.498-4.83-1.622-6.054z" fill="#fcdd86"/></g></g><g><g><path d="m235.535 104.831-12.185-2.696-9.308 16.122 13.16 2.912c.673.149 1.365-.156 1.71-.753l7.651-13.251c.533-.926.015-2.103-1.028-2.334z" fill="#fc657e"/></g></g><g><g><path d="m207.246 88.498c-.721-.788-2-.648-2.534.277l-7.651 13.251c-.345.597-.262 1.349.203 1.857l9.101 9.941 9.308-16.122z" fill="#fc657e"/></g></g><g><g><path d="m255.895 176.21c-3.157-.561-5.613-3.017-6.245-6.104 0-.14-.281-.14-.281 0-.631 3.087-3.087 5.543-6.245 6.104-.14 0-.14.21 0 .281 3.157.562 5.613 3.017 6.245 6.104 0 .14.281.14.281 0 .632-3.087 3.087-5.543 6.245-6.104.14-.071.14-.281 0-.281z" fill="#fc657e"/></g></g><g><g><path d="m180.8 43.85c-4.5-.8-8-4.3-8.9-8.7 0-.2-.4-.2-.4 0-.9 4.4-4.4 7.9-8.9 8.7-.2 0-.2.3 0 .4 4.5.8 8 4.3 8.9 8.7 0 .2.4.2.4 0 .9-4.4 4.4-7.9 8.9-8.7.2-.1.2-.4 0-.4z" fill="#f5c84c"/></g></g><g><g><path d="m178.8 67c-1.878 0-3.4 1.522-3.4 3.4s1.522 3.4 3.4 3.4 3.4-1.522 3.4-3.4-1.522-3.4-3.4-3.4z" fill="#87d147"/></g></g><g><g><path d="m14.2 155.1h-2.3v-2.3c0-1.7-1.4-3.2-3.2-3.2s-3.2 1.4-3.2 3.2v2.3h-2.3c-1.7 0-3.2 1.4-3.2 3.2s1.4 3.2 3.2 3.2h2.3v2.3c0 1.7 1.4 3.2 3.2 3.2s3.2-1.4 3.2-3.2v-2.3h2.3c1.7 0 3.2-1.4 3.2-3.2s-1.4-3.2-3.2-3.2z" fill="#70d6f9"/></g></g><g><g><path d="m24.8 130c-1.878 0-3.4 1.522-3.4 3.4s1.522 3.4 3.4 3.4 3.4-1.522 3.4-3.4-1.522-3.4-3.4-3.4z" fill="#f5c84c"/></g></g><g><g><path d="m170.248 224.138-.681-11.744c-21.803-5.992-37.826-25.944-37.826-49.65 0-.836.023-1.667.063-2.494-2.224-.707-4.417-1.511-6.562-2.43-.053.631-.308 1.249-.792 1.731l-14.667 14.667c-1.085 1.085-2.843 1.085-3.928 0l-6.563-6.563c-.613-.613-.867-1.44-.787-2.24h-7.529c.08.8-.174 1.627-.787 2.24l-6.563 6.563c-1.085 1.085-2.843 1.085-3.928 0l-14.667-14.667c-.48-.48-.735-1.094-.79-1.721-3.451 1.477-7.015 2.684-10.657 3.601l-20.936 5.27c-6.101 1.536-10.495 6.86-10.844 13.142l-2.569 44.297c-.176 3.042 2.243 5.605 5.29 5.605h140.435c3.045-.001 5.464-2.565 5.288-5.607z" fill="#edf4fc"/></g></g><g><g><path d="m99.292 167.654c-.613-.613-.867-1.44-.787-2.24h-7.529c.08.8-.174 1.627-.787 2.24l-3.991 3.991 3.042 7.099h11l3.042-7.099z" fill="#fc657e"/></g></g><g><g><path d="m100.241 178.744h-11l-4.989 51h20.978z" fill="#fc657e"/></g></g><g><g><path d="m90.189 163.727-14.667-14.667c-1.085-1.084-2.843-1.084-3.928 0l-6.563 6.563c-1.085 1.085-1.085 2.843 0 3.928l14.667 14.667c1.085 1.085 2.843 1.085 3.928 0l6.563-6.563c1.085-1.085 1.085-2.844 0-3.928z" fill="#edf4fc"/></g></g><g><g><path d="m124.451 155.623-6.563-6.563c-1.085-1.084-2.843-1.084-3.928 0l-14.667 14.667c-1.085 1.085-1.085 2.843 0 3.928l6.563 6.563c1.085 1.085 2.843 1.085 3.928 0l14.667-14.667c1.084-1.085 1.084-2.843 0-3.928z" fill="#edf4fc"/></g></g><g><g><path d="m111.524 143.361v-5.929c-5.031 2.634-10.739 4.134-16.783 4.134-6.044 0-11.752-1.5-16.783-4.134v5.929c0 2.293-.625 4.488-1.747 6.387l13.978 13.978c.472.472.725 1.072.787 1.688h7.529c.062-.616.315-1.216.787-1.688l13.991-13.991c-1.12-1.898-1.759-4.082-1.759-6.374z" fill="#f9d0b4"/></g></g><g><g><path d="m131.165 72.116c-.021-1.033-.848-1.885-1.881-1.915-15.134-.444-23.108-6.442-26.172-9.445-.836-.82-2.187-.733-2.916.183-13.306 16.733-32.934 14.372-39.534 12.99-1.199-.251-2.35.653-2.351 1.878v29.329c0 20.036 16.393 36.43 36.429 36.43 20.036 0 36.429-16.393 36.429-36.43v-32.45c.001-.191-.001-.381-.004-.57z" fill="#f9d0b4"/></g></g><g><g><path d="m123.248 33.474c-3.882 0-7.511 1.097-10.63 2.967-3.643-6.08-10.28-10.185-17.846-10.185h-10.685c-20.682 0-37.603 16.921-37.603 37.603v16.849c2.602-2.082 5.898-3.335 9.49-3.335.796 0 1.575.067 2.338.185v-1.75c.001-1.225 1.152-2.129 2.351-1.878 6.6 1.381 26.228 3.743 39.534-12.99.729-.917 2.079-1.003 2.916-.183 3.064 3.004 11.038 9.001 26.172 9.445 1.033.03 1.86.882 1.881 1.915.004.19.006.379.006.57v4.873c.762-.118 1.542-.185 2.338-.185 4.1 0 7.814 1.63 10.549 4.268v-27.36c-.002-11.445-9.366-20.809-20.811-20.809z" fill="#754e34"/></g></g><g><g><path d="m133.508 77.373c-.796 0-1.575.067-2.338.185v27.579c0 .822-.038 1.635-.092 2.443.793.127 1.6.212 2.429.212 8.4 0 15.209-6.81 15.209-15.209s-6.808-15.21-15.208-15.21z" fill="#f9d0b4"/></g></g><g><g><path d="m58.311 105.137v-27.579c-.763-.118-1.542-.185-2.338-.185-8.4 0-15.209 6.81-15.209 15.21s6.809 15.209 15.209 15.209c.829 0 1.636-.084 2.429-.212v-.001c-.053-.808-.091-1.621-.091-2.442z" fill="#f9d0b4"/></g></g><g><g><path d="m107.24 111.863c-1.056-.885-2.634-.748-3.521.31-1.75 2.088-4.724 3.335-7.954 3.335-3.229 0-6.203-1.247-7.954-3.336-.89-1.059-2.465-1.196-3.522-.309s-1.196 2.464-.31 3.522c2.69 3.208 7.096 5.123 11.786 5.123 4.691 0 9.098-1.916 11.786-5.124.887-1.057.748-2.634-.311-3.521z"/></g></g><g><g><path d="m110.88 89.861c-2.568 0-4.649 2.081-4.649 4.649s2.081 4.649 4.649 4.649c2.567 0 4.649-2.081 4.649-4.649s-2.081-4.649-4.649-4.649z"/></g></g><g><g><circle cx="79.661" cy="94.51" r="4.649"/></g></g><g><g><path d="m145.463 195.588c-1.381 0-2.5 1.119-2.5 2.5v29.285c0 1.381 1.119 2.5 2.5 2.5s2.5-1.119 2.5-2.5v-29.285c0-1.381-1.119-2.5-2.5-2.5z"/></g></g><g><g><path d="m44.549 189.41c-1.381 0-2.5 1.119-2.5 2.5v35.462c0 1.381 1.119 2.5 2.5 2.5s2.5-1.119 2.5-2.5v-35.462c0-1.381-1.119-2.5-2.5-2.5z"/></g></g><g><g><g><path d="m91.957 161.959-14.667-14.667c-2.059-2.057-5.406-2.057-7.463 0l-6.563 6.563c-.997.997-1.546 2.322-1.546 3.732s.549 2.735 1.546 3.731l14.666 14.667c.997.997 2.322 1.546 3.732 1.546 1.409 0 2.734-.549 3.731-1.546l6.563-6.563c.997-.997 1.546-2.322 1.546-3.732s-.548-2.734-1.545-3.731zm-3.535 3.928-6.563 6.563c-.107.108-.285.108-.393 0l-14.667-14.667c-.054-.054-.081-.12-.081-.196s.027-.142.081-.196l6.563-6.563c.054-.054.125-.081.196-.081s.143.027.196.081l14.667 14.667c.054.054.081.12.081.196s-.026.142-.08.196z"/></g></g></g><g><g><g><path d="m126.218 153.855-6.563-6.563c-.997-.997-2.322-1.546-3.732-1.546-1.409 0-2.734.549-3.731 1.546l-14.667 14.667s0 0-.001 0c-2.056 2.058-2.056 5.405.001 7.463l6.563 6.564c.997.997 2.322 1.545 3.731 1.545 1.41 0 2.735-.549 3.731-1.546l14.667-14.667c.997-.997 1.546-2.322 1.546-3.732s-.548-2.734-1.545-3.731zm-3.535 3.928-14.668 14.667c-.105.107-.284.107-.392 0l-6.563-6.563c-.108-.108-.108-.284-.001-.393l14.667-14.667c.107-.108.285-.108.393 0l6.563 6.564c.054.054.081.12.081.196s-.027.142-.08.196z"/></g></g></g><g><g><path d="m115.226 148.092c-.786-1.467-1.202-3.104-1.202-4.731v-5.326c0-1.381-1.119-2.5-2.5-2.5s-2.5 1.119-2.5 2.5v5.326c0 2.449.621 4.902 1.796 7.093.45.841 1.313 1.319 2.205 1.319.398 0 .804-.096 1.18-.297 1.216-.651 1.673-2.167 1.021-3.384z"/></g></g><g><g><path d="m97.653 162.914h-6.185c-1.381 0-2.5 1.119-2.5 2.5s1.119 2.5 2.5 2.5h6.185c1.381 0 2.5-1.119 2.5-2.5s-1.119-2.5-2.5-2.5z"/></g></g><g><g><path d="m77.958 135.854c-1.381 0-2.5 1.119-2.5 2.5v5.007c0 1.61-.394 3.217-1.139 4.646-.639 1.225-.163 2.734 1.062 3.373.369.192.764.284 1.153.284.901 0 1.773-.49 2.219-1.345 1.115-2.14 1.705-4.546 1.705-6.958v-5.007c0-1.381-1.119-2.5-2.5-2.5z"/></g></g><g><g><path d="m131.919 157.674c-1.603-.526-3.217-1.125-4.799-1.777-1.277-.528-2.737.082-3.265 1.358-.526 1.276.082 2.738 1.358 3.264 1.694.699 3.425 1.34 5.143 1.905.26.085.522.125.781.125 1.051 0 2.029-.667 2.375-1.72.432-1.311-.282-2.724-1.593-3.155z"/></g></g><g><g><path d="m172.744 223.994-.656-11.313c-.08-1.379-1.289-2.428-2.641-2.351-1.379.08-2.432 1.262-2.352 2.64l.656 11.313c.045.777-.225 1.517-.759 2.083s-1.257.877-2.035.877h-140.434c-.778 0-1.501-.312-2.035-.878s-.804-1.306-.758-2.083l2.568-44.302c.29-5.218 3.891-9.581 8.959-10.856l20.936-5.27c3.56-.896 7.094-2.075 10.504-3.504 1.273-.534 1.874-1.999 1.34-3.272s-2-1.875-3.271-1.339c-3.181 1.333-6.476 2.432-9.793 3.267l-20.936 5.27c-7.202 1.813-12.317 8.013-12.73 15.421l-2.568 44.296c-.124 2.134.646 4.25 2.113 5.804s3.534 2.446 5.672 2.446h140.435c2.137 0 4.204-.892 5.671-2.446 1.467-1.553 2.237-3.669 2.114-5.803z"/></g></g><g><g><g><path d="m133.664 72.064c-.049-2.377-1.94-4.293-4.307-4.362-14.504-.425-21.962-6.248-24.495-8.731-.902-.885-2.142-1.353-3.399-1.27-1.26.078-2.435.691-3.223 1.682h-.001c-12.217 15.365-29.992 13.578-37.065 12.1-1.319-.279-2.68.054-3.728.904-1.038.842-1.634 2.088-1.635 3.446v29.304c0 21.466 17.464 38.93 38.93 38.93s38.929-17.464 38.929-38.93v-32.451zm-4.994 33.073c0 18.709-15.221 33.93-33.929 33.93-18.709 0-33.93-15.221-33.93-33.93v-28.628c6.904 1.323 27.112 3.392 40.976-13.561 3.833 3.588 12.115 9.173 26.883 9.733z"/></g></g></g><g><g><path d="m123.248 30.974c-3.383 0-6.733.756-9.813 2.203-4.384-5.862-11.337-9.42-18.662-9.42h-10.686c-22.112 0-40.103 17.99-40.103 40.103v16.068c0 1.381 1.119 2.5 2.5 2.5s2.5-1.119 2.5-2.5v-16.069c0-19.355 15.747-35.103 35.103-35.103h10.686c6.369 0 12.386 3.437 15.701 8.97.341.569.894.979 1.537 1.14.643.159 1.324.06 1.894-.281 2.848-1.708 6.079-2.611 9.344-2.611 10.096 0 18.31 8.213 18.31 18.309v26.642c0 1.381 1.119 2.5 2.5 2.5s2.5-1.119 2.5-2.5v-26.642c-.001-12.852-10.458-23.309-23.311-23.309z"/></g></g><g><g><path d="m133.508 74.873c-.493 0-.979.021-1.461.063-1.376.118-2.396 1.328-2.278 2.704s1.334 2.4 2.704 2.278c.341-.029.687-.044 1.035-.044 7.008 0 12.71 5.702 12.71 12.709s-5.702 12.709-12.71 12.709c-.365 0-.753-.021-1.152-.063-1.378-.147-2.603.853-2.745 2.227-.144 1.374.854 2.603 2.228 2.746.57.06 1.133.09 1.67.09 9.766 0 17.71-7.944 17.71-17.709s-7.946-17.71-17.711-17.71z"/></g></g><g><g><path d="m56.946 105.247c-.32.029-.645.045-.973.045-7.008 0-12.71-5.702-12.71-12.709s5.702-12.709 12.71-12.709c.334 0 .664.014.992.041 1.385.113 2.582-.912 2.695-2.288.112-1.376-.912-2.583-2.289-2.695-.461-.038-.928-.058-1.398-.058-9.766 0-17.71 7.944-17.71 17.709s7.944 17.709 17.71 17.709c.479 0 .951-.023 1.418-.065 1.375-.123 2.391-1.337 2.268-2.713-.123-1.375-1.331-2.393-2.713-2.267z"/></g></g><g><g><g><path d="m105.051 169.877-3.99-3.99c-.068-.068-.074-.161-.067-.227.069-.703-.162-1.401-.636-1.925-.474-.523-1.146-.821-1.853-.821h-7.528c-.706 0-1.38.299-1.854.823-.475.523-.704 1.224-.634 1.926.009.094-.014.169-.067.223l-3.991 3.991c-.723.723-.933 1.813-.53 2.753l3.043 7.099c.395.919 1.298 1.515 2.298 1.515h11c1 0 1.904-.596 2.298-1.515l3.042-7.099c.401-.94.191-2.03-.531-2.753zm-6.458 6.367h-7.703l-1.727-4.028 2.793-2.793c.443-.443.797-.954 1.053-1.509h3.465c.255.555.608 1.065 1.051 1.508l2.794 2.794z"/></g></g></g><g><g><g><path d="m102.729 178.5c-.125-1.28-1.202-2.256-2.488-2.256h-11c-1.286 0-2.363.976-2.488 2.256l-4.989 51c-.068.702.162 1.401.637 1.923.474.522 1.146.82 1.852.82h20.979c.705 0 1.378-.298 1.852-.82.475-.522.705-1.221.637-1.923zm-15.72 48.744 4.5-46h6.465l4.5 46z"/></g></g></g><g><g><path d="m214.741 118.895c-1.118-.805-2.683-.551-3.489.569-.807 1.121-.552 2.683.569 3.49 12.786 9.201 20.42 24.076 20.42 39.79 0 27.019-21.981 49-49 49s-49-21.981-49-49 21.981-49 49-49c6.987 0 13.747 1.449 20.092 4.307 1.257.567 2.738.007 3.306-1.252.567-1.259.007-2.739-1.253-3.306-6.993-3.15-14.444-4.748-22.145-4.748-29.775 0-54 24.224-54 54s24.225 54 54 54 54-24.224 54-54c0-17.32-8.411-33.712-22.5-43.85z"/></g></g><g><g><path d="m208.688 129.985c-1.09-.849-2.66-.652-3.508.437-.849 1.089-.652 2.66.438 3.508 8.976 6.987 14.123 17.489 14.123 28.813 0 20.126-16.374 36.5-36.5 36.5s-36.5-16.374-36.5-36.5 16.374-36.5 36.5-36.5c4.73 0 9.344.902 13.71 2.68 1.285.521 2.737-.094 3.259-1.373.521-1.279-.094-2.737-1.372-3.258-4.969-2.023-10.217-3.049-15.597-3.049-22.883 0-41.5 18.617-41.5 41.5s18.617 41.5 41.5 41.5 41.5-18.617 41.5-41.5c-.001-12.877-5.851-24.817-16.053-32.758z"/></g></g><g><g><path d="m202.454 141.04c-1.032-.916-2.613-.82-3.529.213-.916 1.034-.82 2.613.213 3.529 5.149 4.563 8.103 11.11 8.103 17.962 0 13.234-10.767 24-24 24s-24-10.766-24-24 10.767-24 24-24c2.636 0 5.231.429 7.715 1.274 1.307.447 2.728-.255 3.172-1.561.445-1.307-.253-2.727-1.561-3.172-3.003-1.022-6.141-1.541-9.326-1.541-15.99 0-29 13.009-29 29s13.01 29 29 29 29-13.009 29-29c-.001-8.282-3.568-16.193-9.787-21.704z"/></g></g><g><g><path d="m196.136 152.473c-.86-1.081-2.431-1.261-3.513-.401-1.081.859-1.261 2.432-.401 3.513 2.967 3.732 3.35 8.8.976 12.913-3.171 5.491-10.216 7.38-15.709 4.209-5.491-3.17-7.38-10.218-4.21-15.709 2.378-4.118 6.968-6.316 11.684-5.609 1.362.209 2.64-.735 2.845-2.1.205-1.366-.735-2.639-2.101-2.844-6.773-1.02-13.345 2.144-16.758 8.054-4.549 7.879-1.839 17.99 6.04 22.539 2.592 1.497 5.425 2.208 8.222 2.207 5.707 0 11.265-2.959 14.317-8.246 3.408-5.905 2.861-13.176-1.392-18.526z"/></g></g><g><g><g><g><path d="m226.86 96.995c-.479-1.789-1.627-3.284-3.23-4.209-1.604-.925-3.471-1.171-5.261-.692-1.789.479-3.283 1.626-4.209 3.23l-36.352 62.962c-1.911 3.311-.773 7.559 2.537 9.47 1.089.628 2.279.927 3.454.927 2.397 0 4.733-1.244 6.017-3.465l36.351-62.962c.926-1.604 1.172-3.472.693-5.261zm-5.023 2.76-36.351 62.962c-.532.922-1.716 1.24-2.641.708-.923-.533-1.239-1.717-.707-2.64l36.352-62.963c.258-.447.675-.767 1.173-.9.501-.134 1.02-.065 1.467.193s.767.675.9 1.173.066 1.02-.193 1.467z"/></g></g></g></g><g><g><path d="m238.928 104.729c-.521-1.186-1.589-2.06-2.853-2.339l-10.938-2.42c-1.349-.302-2.683.553-2.981 1.901s.554 2.683 1.901 2.981l9.714 2.149-6.688 11.582-11.678-2.584c-1.35-.3-2.682.554-2.981 1.901-.298 1.348.553 2.683 1.901 2.981l12.338 2.73c.297.065.594.097.888.097 1.435 0 2.783-.757 3.525-2.042l7.651-13.251c.648-1.123.723-2.5.201-3.686z"/></g></g><g><g><path d="m216.914 95.356-7.824-8.547c-.875-.956-2.17-1.441-3.453-1.301-1.288.141-2.443.895-3.091 2.017l-7.65 13.251c-.895 1.549-.684 3.477.524 4.795l8.457 9.238c.493.539 1.168.812 1.845.812.603 0 1.207-.217 1.688-.656 1.018-.933 1.088-2.514.155-3.532l-8.002-8.741 6.687-11.582 6.978 7.621c.933 1.019 2.513 1.089 3.532.156 1.016-.931 1.087-2.512.154-3.531z"/></g></g></g></g></svg>