<svg height="496pt" viewBox="0 -40 496 496" width="496pt" xmlns="http://www.w3.org/2000/svg"><path d="m296 408h-88l18.800781-103.519531 12.160157-66.71875 80.800781 20.160156c14.238281 3.597656 24.238281 16.398437 24.238281 31.039063v119.039062zm0 0" fill="#5cd6b3"/><path d="m226.800781 304.480469-18.800781 103.519531-16-88 8-32 24 16zm0 0" fill="#e6e9ed"/><path d="m152 288 8 32-16 88-18.800781-103.519531 2.800781-.480469zm0 0" fill="#e6e9ed"/><path d="m56 408h-48v-119.039062c0-14.640626 10-27.441407 24.238281-31.039063l80.800781-20.160156 12.160157 66.71875 18.800781 103.519531zm0 0" fill="#5cd6b3"/><path d="m192 320 16 88h-64l16-88zm0 0" fill="#ff826e"/><path d="m200 288-8 32h-32l-8-32 24-16zm0 0" fill="#ff826e"/><path d="m238.960938 237.761719-12.160157 66.71875-2.800781-.480469-48-32 40-40zm0 0" fill="#aab2bd"/><path d="m176 272-48 32-2.800781.480469-12.160157-66.71875 22.960938-5.761719zm0 0" fill="#aab2bd"/><path d="m136 232v-24c12.320312 5.199219 25.839844 8 40 8s27.679688-2.878906 40-8v24l-40 40zm0 0" fill="#f0d0b4"/><path d="m456 80c17.679688 0 32 14.320312 32 32 0 8.800781-3.601562 16.800781-9.359375 22.640625-5.839844 5.757813-13.839844 9.359375-22.640625 9.359375h-96v-64zm0 0" fill="#cf9e76"/><path d="m360 80v64h-32v-64zm0 0" fill="#fcd770"/><path d="m328 96v32h-48l-1.199219-.160156c.800781-5.199219 1.199219-10.480469 1.199219-15.839844s-.398438-10.640625-1.199219-15.839844l1.199219-.160156zm0 0" fill="#aab2bd"/><path d="m278.800781 96.160156c.800781 5.199219 1.199219 10.480469 1.199219 15.839844s-.398438 10.640625-1.199219 15.839844c-5.519531 36.320312-29.921875 66.480468-62.800781 80.160156-12.320312 5.121094-25.839844 8-40 8s-27.679688-2.800781-40-8c-37.601562-15.679688-64-52.71875-64-96 0-57.441406 46.558594-104 104-104 52.078125 0 95.199219 38.238281 102.800781 88.160156zm0 0" fill="#ccd1d9"/><path d="m248 112c0 39.765625-32.234375 72-72 72s-72-32.234375-72-72 32.234375-72 72-72 72 32.234375 72 72zm0 0" fill="#69d6f4"/><path d="m456 72h-136v16h-34.65625c-11.023438-50.257812-55.832031-88-109.34375-88-61.761719 0-112 50.238281-112 112 0 44.566406 26.222656 83.015625 64 101.039062v12.714844l-97.695312 24.421875c-17.839844 4.464844-30.304688 20.417969-30.304688 38.808594v127.015625h352v-127.015625c0-18.390625-12.464844-34.34375-30.304688-38.808594l-97.695312-24.421875v-12.714844c30.785156-14.6875 53.863281-42.925781 61.34375-77.039062h34.65625v16h136c22.054688 0 40-17.945312 40-40s-17.945312-40-40-40zm-322.449219 168.863281 29.898438 29.898438-32.351563 21.566406-8.839844-48.640625zm57.320313 50.664063-5.117188 20.472656h-19.507812l-5.125-20.472656 14.878906-9.910156zm-43.878906 9.425781 4.832031 19.328125-7.824219 43.023438-9.785156-53.832032zm19.679687 27.046875h18.65625l13.085937 72h-44.839843zm33.503906-7.71875 4.832031-19.328125 12.785157 8.519531-9.792969 53.832032zm-184.175781-31.296875c0-11.03125 7.480469-20.609375 18.175781-23.289063l72.527344-18.128906 27.710937 152.433594h-70.414062v-96h-16v96h-32zm320 0v111.015625h-32v-96h-16v96h-70.414062l27.710937-152.433594 72.527344 18.128906c10.695312 2.679688 18.175781 12.257813 18.175781 23.289063zm-106.246094-45.296875-8.84375 48.640625-32.351562-21.566406 29.898437-29.898438zm-21.753906-15-32 32-32-32v-9.40625c10.152344 3.039062 20.878906 4.71875 32 4.71875s21.847656-1.679688 32-4.71875zm-32-20.6875c-52.9375 0-96-43.0625-96-96s43.0625-96 96-96 96 43.0625 96 96-43.0625 96-96 96zm111.59375-88c.191406-2.65625.40625-5.296875.40625-8s-.214844-5.34375-.40625-8h32.40625v16zm48.40625-32h16v48h-16zm120 48h-88v-48h88c13.230469 0 24 10.769531 24 24s-10.769531 24-24 24zm0 0"/><path d="m176 176c-35.289062 0-64-28.710938-64-64 0-16.246094 6.167969-31.777344 17.34375-43.710938l-11.671875-10.9375c-13.976563 14.914063-21.671875 34.320313-21.671875 54.648438 0 44.113281 35.886719 80 80 80 20.320312 0 39.726562-7.695312 54.648438-21.671875l-10.9375-11.671875c-11.941407 11.175781-27.472657 17.34375-43.710938 17.34375zm0 0"/><path d="m176 32c-16.070312 0-31.566406 4.753906-44.824219 13.726562l8.96875 13.25c10.609375-7.175781 23-10.976562 35.855469-10.976562 35.289062 0 64 28.710938 64 64 0 12.855469-3.800781 25.246094-10.976562 35.847656l13.25 8.96875c8.972656-13.25 13.726562-28.746094 13.726562-44.816406 0-44.113281-35.886719-80-80-80zm0 0"/><path d="m448 104h16v16h-16zm0 0"/></svg>