<svg id="_x33_0" enable-background="new 0 0 64 64" height="512" viewBox="0 0 64 64" width="512" xmlns="http://www.w3.org/2000/svg"><path d="m62 6v27c0 2.21-1.79 4-4 4h-10l-7.38 7.38c-.4.4-.94.62-1.5.62-1.17 0-2.12-.95-2.12-2.12v-5.88h-8c-2.21 0-4-1.79-4-4v-27c0-2.21 1.79-4 4-4h29c2.21 0 4 1.79 4 4z" fill="#e6e9ed"/><circle cx="43" cy="33" fill="#ff826e" r="2"/><path d="m51 13v3c0 3.21-2.74 4.79-4.55 5.83-.28.16-.65.37-.99.58-.29.18-.46.51-.46.85v3.74h-4v-4c0-4 6-5 6-7v-3c0-1.66-1.34-3-3-3-.83 0-1.58.34-2.12.88s-.88 1.29-.88 2.12v2h-4v-1.76c0-3.55 2.55-6.73 6.08-7.18 4.27-.55 7.92 2.78 7.92 6.94z" fill="#ff826e"/><path d="m19 28c1.1 0 2 .9 2 2 0 .55-.22 1.05-.59 1.41-.36.37-.86.59-1.41.59h-8c-1.1 0-2-.9-2-2 0-.55.22-1.05.59-1.41.36-.37.86-.59 1.41-.59z" fill="#fcd770"/><path d="m28 49c0 1.03-.12 2.02-.35 2.98-.85-.07-3.06-.39-4.65-1.98-2.55-2.55-4-4-7-4-.34 0-.67.03-.98.08l-.02-.08c-1-2-2.95-3-5-3-2.76 0-5 2.24-5 5v1l.09.28c-1.2.34-2.27.96-2.95 1.59-.09-.61-.14-1.23-.14-1.87 0-5.78 3.78-10.68 9-12.37v-4.63h8v4.63c5.22 1.69 9 6.59 9 12.37z" fill="#ffeaa7"/><g fill="#69d6f4"><circle cx="10" cy="16" r="5"/><circle cx="19" cy="22" r="2"/><circle cx="18" cy="8" r="3"/></g><circle cx="16" cy="39" fill="#e6e9ed" r="2"/><path d="m15.02 46.08v.01c-3.35.56-5.02 3.91-5.02 3.91l-.05.09c-.67-.62-1.57-1.09-2.95-1.09-.65 0-1.29.1-1.91.28l-.09-.28v-1c0-2.76 2.24-5 5-5 2.05 0 4 1 5 3z" fill="#e6e9ed"/><path d="m9.95 50.09.05-.09s1.67-3.35 5.02-3.91v-.01c.31-.05.64-.08.98-.08 3 0 4.45 1.45 7 4 1.59 1.59 3.8 1.91 4.65 1.98-1.34 5.74-6.5 10.02-12.65 10.02-6.54 0-11.96-4.84-12.86-11.13.68-.63 1.75-1.25 2.95-1.59.62-.18 1.26-.28 1.91-.28 1.38 0 2.28.47 2.95 1.09z" fill="#69d6f4"/><path d="m19 33h-8c-1.654 0-3-1.346-3-3s1.346-3 3-3h8c1.654 0 3 1.346 3 3s-1.346 3-3 3zm-8-4c-.552 0-1 .449-1 1s.448 1 1 1h8c.552 0 1-.449 1-1s-.448-1-1-1z"/><path d="m15 54h-2c-1.346 0-2.064-1.016-2.699-1.913-.759-1.073-1.476-2.087-3.301-2.087-1.697 0-3.444.859-4.293 1.707l-1.414-1.414c1.104-1.105 3.361-2.293 5.707-2.293 2.86 0 4.108 1.765 4.935 2.932.467.662.769 1.068 1.065 1.068h2z"/><path d="m28 53c-.14 0-3.44-.026-5.707-2.293-2.47-2.469-3.708-3.707-6.293-3.707-3.316 0-5.09 3.416-5.107 3.45l-1.787-.897c.092-.186 2.329-4.553 6.894-4.553 3.413 0 5.121 1.707 7.705 4.291 1.69 1.689 4.27 1.709 4.295 1.709z"/><path d="m6 49h-2v-1c0-3.309 2.691-6 6-6 2.578 0 4.782 1.328 5.895 3.553l-1.789.895c-.766-1.533-2.301-2.448-4.106-2.448-2.206 0-4 1.794-4 4z"/><path d="m10 22c-3.309 0-6-2.691-6-6s2.691-6 6-6 6 2.691 6 6-2.691 6-6 6zm0-10c-2.206 0-4 1.794-4 4s1.794 4 4 4 4-1.794 4-4-1.794-4-4-4z"/><path d="m10 19c-1.654 0-3-1.346-3-3h2c0 .551.448 1 1 1z"/><path d="m18 12c-2.206 0-4-1.794-4-4s1.794-4 4-4 4 1.794 4 4-1.794 4-4 4zm0-6c-1.103 0-2 .897-2 2s.897 2 2 2 2-.897 2-2-.897-2-2-2z"/><path d="m46 28h-6v-5c0-2.891 2.443-4.45 4.227-5.588.609-.389 1.744-1.113 1.773-1.412v-3c0-1.103-.897-2-2-2s-2 .897-2 2v3h-6v-2.756c0-4.152 2.987-7.667 6.95-8.176 2.29-.299 4.602.406 6.328 1.925 1.73 1.522 2.722 3.711 2.722 6.007v3c0 3.792-3.164 5.611-5.056 6.698-.276.159-.632.364-.952.563zm-4-2h2v-2.742c0-.694.349-1.327.933-1.692.342-.214.721-.432 1.007-.596 1.718-.989 4.06-2.335 4.06-4.97v-3c0-1.721-.744-3.363-2.042-4.505-1.315-1.157-3.011-1.668-4.753-1.444-2.968.382-5.205 3.044-5.205 6.193v.756h2v-1c0-2.206 1.794-4 4-4s4 1.794 4 4v3c0 1.376-1.311 2.213-2.697 3.098-1.624 1.036-3.303 2.107-3.303 3.902z"/><path d="m43 36c-1.654 0-3-1.346-3-3s1.346-3 3-3 3 1.346 3 3-1.346 3-3 3zm0-4c-.552 0-1 .449-1 1s.448 1 1 1 1-.449 1-1-.448-1-1-1z"/><path d="m39.121 46c-1.721 0-3.121-1.4-3.121-3.121v-4.879h-7c-2.757 0-5-2.243-5-5v-27c0-2.757 2.243-5 5-5h29c2.757 0 5 2.243 5 5v27c0 2.757-2.243 5-5 5h-9.586l-7.086 7.086c-.581.581-1.385.914-2.207.914zm-10.121-43c-1.654 0-3 1.346-3 3v27c0 1.654 1.346 3 3 3h9v6.879c0 .618.503 1.121 1.121 1.121.295 0 .584-.12.793-.328l7.672-7.672h10.414c1.654 0 3-1.346 3-3v-27c0-1.654-1.346-3-3-3z"/><path d="m15 63c-7.72 0-14-6.28-14-14 0-5.846 3.587-11.011 9-13.074v-3.926h2v5.361l-.692.224c-4.969 1.606-8.308 6.194-8.308 11.415 0 6.617 5.383 12 12 12s12-5.383 12-12c0-5.221-3.339-9.809-8.308-11.415l-.692-.224v-5.361h2v3.926c5.413 2.063 9 7.228 9 13.074 0 7.72-6.28 14-14 14z"/><path d="m19 25c-1.654 0-3-1.346-3-3s1.346-3 3-3 3 1.346 3 3-1.346 3-3 3zm0-4c-.552 0-1 .449-1 1s.448 1 1 1 1-.449 1-1-.448-1-1-1z"/><path d="m16 42c-1.654 0-3-1.346-3-3s1.346-3 3-3 3 1.346 3 3-1.346 3-3 3zm0-4c-.552 0-1 .449-1 1s.448 1 1 1 1-.449 1-1-.448-1-1-1z"/></svg>