<svg id="Layer_5" enable-background="new 0 0 64 64" height="512" viewBox="0 0 64 64" width="512" xmlns="http://www.w3.org/2000/svg"><g><g><g><path d="m62 16c0 2.4-1.07 4.55-2.74 6.02 1.32 1.66 2 3.85 1.65 6.21-.47 3.1-2.81 5.69-5.84 6.49-1.75.47-3.41.32-4.88-.24-1.22 2.52-3.72 4.29-6.66 4.48l-2.12 2.55c-.26.31-.64.49-1.05.49-.75 0-1.36-.61-1.36-1.36v-2.74c-1.53-.89-2.76-2.26-3.42-3.93-.19.01-.39.03-.58.03-1.44 0-2.78-.4-3.95-1.07-1.49 1.29-3.43 2.07-5.55 2.07-2.1 0-4.02-.76-5.5-2.02-.01-4.99-3-8.98-3-8.98h1.17c2.11 0 3.83-1.72 3.83-3.83 0-1.35-.71-2.59-1.86-3.29l-1.75-1.04v-.01c1.09-1.64 2.71-2.88 4.63-3.46-.01-.12-.02-.25-.02-.37 0-4.42 3.58-8 8-8 1.83 0 3.51.62 4.86 1.66.96-.42 2.02-.66 3.14-.66.56 0 1.11.06 1.63.17 1.47-1.92 3.77-3.17 6.37-3.17 3.74 0 6.87 2.57 7.75 6.04 4.06.38 7.25 3.79 7.25 7.96z" fill="#e6e9ed"/></g><g><circle cx="50" cy="29" fill="#ff826e" r="2"/></g><g><circle cx="38" cy="29" fill="#ff826e" r="2"/></g><g><path d="m61.11 50.55c.54.28.89.84.89 1.45s-.35 1.17-.89 1.45l-9.11 4.55v-4-4-4z" fill="#cf9e76"/></g><g><path d="m52 50v4h-25l2-4z" fill="#fcd770"/></g><g><path d="m27 54h25v4h-23c0-1.1-.9-2-2-2h-1z" fill="#ff826e"/></g><g><path d="m52 46v4h-23l2-4z" fill="#ff826e"/></g><g><path d="m21.11 55.89 5.2-9.89h.01l2.09-3.99 2.18 1.21c.79.44 1.09 1.41.69 2.22l-.28.56-2 4-2 4-1 2-.46-.93c-.33-.66-1-1.07-1.74-1.07-.51 0-1 .2-1.37.57z" fill="#838f9b"/></g><g><path d="m28.41 42.01-2.09 3.99h-.01l-5.43-3.06 2.12-3.94z" fill="#969faa"/></g><g><path d="m21.11 55.89-.11.11h-2v-7.61c0-.56-.06-1.11-.17-1.64l2.05-3.81 5.43 3.06z" fill="#69d6f4"/></g><g><path d="m19 48.39v7.61h-10v-6.6c0-3.34-1.79-6.42-4.69-8.09.64-.8 1.48-1.43 2.46-1.82l1.23-.49 4 4 2-2c1.51.6 2.76 1.64 3.63 2.93.57.85.98 1.8 1.2 2.82.11.53.17 1.08.17 1.64z" fill="#b4dd7f"/></g><g><path d="m21 56v6c-5.02 0-10.53 0-12.88 0-1.36 0-2.66-.54-3.63-1.51l-.04-.04c-.93-.93-1.45-2.19-1.45-3.51v-11.88c0-1.39.48-2.71 1.31-3.75 2.9 1.67 4.69 4.75 4.69 8.09v6.6h10z" fill="#b4dd7f"/></g><g><path d="m18.39 15.84 1.75 1.04c1.15.7 1.86 1.94 1.86 3.29 0 2.11-1.72 3.83-3.83 3.83h-1.17-1-6c-1.1 0-2 .9-2 2v2c-1.1 0-2 .9-2 2v.17c0 .53.21 1.04.59 1.42l.82.82c.38.38.59.89.59 1.42v3.17l-2.57-2.14c-1.09-.9-1.94-2.03-2.53-3.28-.58-1.26-.9-2.64-.9-4.05 0-5.26 4.27-9.53 9.53-9.53h1.71c1.65 0 3.11-1.06 3.63-2.62l.13-.38 1.39.83z" fill="#656d78"/></g><g><path d="m29 58v2c0 1.1-.89 2-2 2-1.71 0-3.81 0-6 0v-6l.11-.11 1.32-1.32c.37-.37.86-.57 1.37-.57.74 0 1.41.41 1.74 1.07l.46.93h1c1.1 0 2 .9 2 2z" fill="#f0d0b4"/></g><g><path d="m20 32.98v.02l-3 1v.59c0 .9-.36 1.77-1 2.41-.54.54-1.25.88-2 .97v3.03l-2 2-4-4v-2-3.17c0-.53-.21-1.04-.59-1.42l-.82-.82c-.38-.38-.59-.89-.59-1.42v-.17c0-1.1.9-2 2-2v-2c0-1.1.9-2 2-2h6 1s2.99 3.99 3 8.98z" fill="#f0d0b4"/></g></g><g><circle cx="15" cy="29" r="1"/><path d="m61.553 49.658-9.317-4.658h-19.803c.125-1.05-.375-2.111-1.353-2.654l-8.48-4.712-3.594 6.676c-.862-1.689-2.239-3.093-4.006-3.959v-1.601c.634-.215 1.221-.556 1.708-1.043.801-.803 1.257-1.858 1.291-2.985l1.832-.611c1.63 1.22 3.596 1.889 5.669 1.889 2.042 0 4.028-.663 5.663-1.88 1.194.569 2.487.871 3.781.88.692 1.381 1.75 2.579 3.056 3.455v2.183c0 1.302 1.06 2.362 2.362 2.362.703 0 1.364-.31 1.814-.85l1.859-2.231c2.75-.318 5.202-1.891 6.637-4.231 1.523.41 3.117.415 4.658.003 3.409-.908 6.048-3.849 6.566-7.316.331-2.215-.139-4.396-1.327-6.234 1.556-1.662 2.431-3.854 2.431-6.141 0-4.443-3.169-8.143-7.477-8.868-1.221-3.644-4.632-6.132-8.523-6.132-2.624 0-5.059 1.116-6.772 3.084-1.421-.194-2.865-.047-4.228.441-1.485-1-3.202-1.525-5-1.525-4.851 0-8.818 3.857-8.994 8.666-1.511.599-2.829 1.596-3.857 2.857l-1.704-1.022-.521 1.563c-.385 1.159-1.465 1.936-2.685 1.936h-1.705c-5.808 0-10.534 4.726-10.534 10.534 0 3.137 1.382 6.086 3.791 8.093l2.209 1.842v.855l-.6.239c-2.672 1.069-4.4 3.62-4.4 6.499v11.878c0 1.596.621 3.095 1.786 4.26 1.162 1.162 2.7 1.802 4.332 1.802l18.886-.002c1.652 0 2.996-1.346 2.996-3v-1h22.236l9.317-4.658c.892-.447 1.447-1.344 1.447-2.342s-.555-1.895-1.447-2.342zm-33.965 5.401.03-.059h23.382v2h-21.184c-.35-.982-1.187-1.733-2.228-1.941zm2.03-4.059h21.382v2h-22.382zm1-2 1-2h19.382v2zm-.231-4.01-4.46 8.92c-.545-.573-1.303-.91-2.124-.91-.015 0-.029.004-.043.004l5.065-9.624 1.284.714c.319.177.441.571.278.896zm-6.987-4.624 3.676 2.042-1.166 2.216-3.686-2.075zm-2.124 3.944 3.702 2.084-4.529 8.606h-.449v-6.615c0-.498-.051-.985-.13-1.464zm-5.276-11.031v1.307c0 .645-.251 1.251-.708 1.707-.455.456-1.061.707-1.706.707h-2.586v2h2v1.586l-1 1-3-3v-4.758c0-.801-.312-1.555-.879-2.121l-.828-.828c-.186-.187-.293-.444-.293-.707v-.172c0-.552.449-1 1-1h1v-3c0-.552.449-1 1-1h6 .473c.659 1.017 2.298 3.859 2.505 7.286zm7.311-19.953.741-.226-.043-.935c-.005-.054-.009-.109-.009-.165 0-3.859 3.14-7 7-7 1.546 0 3.016.501 4.25 1.448l.465.357.539-.231c1.339-.576 2.786-.715 4.177-.427l.618.128.381-.502c1.341-1.762 3.37-2.773 5.57-2.773 3.205 0 5.992 2.173 6.778 5.283l.173.686.704.065c3.617.335 6.345 3.33 6.345 6.966 0 2.015-.875 3.935-2.402 5.269l-.719.629.595.747c1.226 1.539 1.739 3.469 1.445 5.435-.402 2.69-2.453 4.973-5.103 5.679-1.442.384-2.877.313-4.271-.211l-.853-.32-.398.82c-1.091 2.249-3.324 3.75-5.828 3.916l-.428.028-2.398 2.878c-.197.237-.64.075-.64-.232v-3.311l-.497-.289c-1.363-.794-2.429-2.016-2.999-3.439l-.334-.674-.729.053c-1.332.099-2.676-.217-3.898-.914l-.614-.352-.536.463c-1.363 1.177-3.101 1.825-4.893 1.825-1.655 0-3.223-.54-4.518-1.523-.122-3.196-1.32-5.928-2.215-7.538 2.379-.298 4.233-2.311 4.233-4.77 0-1.688-.898-3.274-2.345-4.143l-.774-.465c.917-1.041 2.097-1.828 3.43-2.235zm-17.24 20.764c-1.952-1.625-3.071-4.015-3.071-6.556 0-4.706 3.829-8.534 8.534-8.534h1.705c1.801 0 3.422-.993 4.253-2.539l2.133 1.28c.848.509 1.375 1.44 1.375 2.428 0 1.561-1.27 2.831-2.831 2.831h-.669-1.5-6c-1.654 0-3 1.346-3 3v1.171c-1.164.413-2 1.525-2 2.829v.172c0 .801.312 1.555.879 2.121l.828.828c.186.187.293.444.293.707v1.036zm1.072 6.33.617-.247 4.24 4.241 2.204-2.204c2.319 1.181 3.796 3.532 3.796 6.175v6.615h-8v-5.6c0-3.259-1.552-6.316-4.12-8.249.376-.298.799-.546 1.263-.731zm.974 20.581c-1.097 0-2.133-.432-2.955-1.253-.75-.75-1.163-1.748-1.163-2.809v-11.878c0-.851.211-1.662.595-2.374 2.121 1.555 3.406 4.051 3.406 6.713v7.6h12v4zm19.883-1.001c0 .552-.447 1-.996 1h-5.004v-4.586l1.14-1.14c.431-.428 1.23-.3 1.501.244l.741 1.482h1.618c.551 0 1 .448 1 1zm32.658-7.447-7.658 3.829v-8.764l7.658 3.829c.211.106.342.318.342.553s-.131.447-.342.553z"/><path d="m47 15c0-1.654 1.346-3 3-3s3 1.346 3 3c0 .939-.449 1.836-1.2 2.4l-2.8 2.1v4.5h2v-3.5l2-1.5c1.252-.939 2-2.435 2-4 0-2.757-2.243-5-5-5s-5 2.243-5 5v1h2z"/><path d="m50 26c-1.654 0-3 1.346-3 3s1.346 3 3 3 3-1.346 3-3-1.346-3-3-3zm0 4c-.551 0-1-.448-1-1s.449-1 1-1 1 .448 1 1-.449 1-1 1z"/><path d="m35 15c0-1.654 1.346-3 3-3s3 1.346 3 3c0 .939-.449 1.836-1.2 2.4l-2.8 2.1v4.5h2v-3.5l2-1.5c1.252-.939 2-2.435 2-4 0-2.757-2.243-5-5-5s-5 2.243-5 5v1h2z"/><path d="m38 26c-1.654 0-3 1.346-3 3s1.346 3 3 3 3-1.346 3-3-1.346-3-3-3zm0 4c-.551 0-1-.448-1-1s.449-1 1-1 1 .448 1 1-.449 1-1 1z"/></g></g></svg>