<svg id="Capa_1" enable-background="new 0 0 512.001 512.001" height="512" viewBox="0 0 512.001 512.001" width="512" xmlns="http://www.w3.org/2000/svg"><g><path d="m505.154 109.704-435.337-38.087c-1.983-.172-3.951.447-5.475 1.726s-2.478 3.11-2.651 5.092l-5.247 59.977h-48.944c-4.142 0-7.5 3.358-7.5 7.5v287c0 4.142 3.358 7.5 7.5 7.5h437c4.142 0 7.5-3.358 7.5-7.5v-9.647l25.525 2.233c.223.019.443.029.663.029 3.846 0 7.121-2.943 7.463-6.847l26.321-300.851c.361-4.126-2.692-7.764-6.818-8.125zm-490.154 43.708h422c0 7.053-3.218 13.568-8.828 17.872-1.866 1.431-186.357 142.857-188.473 144.47-3.989 3.057-8.714 4.658-13.7 4.658-4.984 0-9.714-1.603-13.672-4.628-1.867-1.433-186.638-143.074-188.456-144.475-5.65-4.329-8.871-10.843-8.871-17.897zm422 242.053c-.473-.405-138.274-106.055-138.274-106.055l138.274-105.993zm-422 29.947c0-7.053 3.219-13.567 8.828-17.872l61.262-46.962c3.287-2.52 3.909-7.228 1.389-10.515s-7.228-3.91-10.515-1.389l-60.964 46.734v-212.067c.604.523 138.272 106.071 138.272 106.071l-53.499 41.011c-3.287 2.52-3.909 7.228-1.389 10.515 1.477 1.926 3.705 2.938 5.958 2.938 1.592 0 3.197-.505 4.558-1.548l56.7-43.465 37.61 28.832c6.604 5.049 14.485 7.718 22.791 7.718 8.313 0 16.192-2.67 22.786-7.723.585-.448 37.612-28.83 37.612-28.83 24.515 18.792 139.812 107.178 141.718 108.646.016.012.031.024.047.036 5.616 4.302 8.836 10.816 8.836 17.87zm456.361-15.511-19.361-1.694v-262.295c0-4.142-3.358-7.5-7.5-7.5h-372.998l4.479-51.198 420.394 36.78z"/></g></svg>