<?xml version="1.0" encoding="iso-8859-1"?>
<!-- Generator: Adobe Illustrator 19.0.0, SVG Export Plug-In . SVG Version: 6.00 Build 0)  -->
<svg version="1.1" id="Capa_1" xmlns="http://www.w3.org/2000/svg" xmlns:xlink="http://www.w3.org/1999/xlink" x="0px" y="0px"
	 viewBox="0 0 512.001 512.001" style="enable-background:new 0 0 512.001 512.001;" xml:space="preserve">
<g>
	<g>
		<path d="M473.666,41.412h-60.457c-4.2,0-7.604,3.405-7.604,7.604s3.404,7.604,7.604,7.604h60.458
			c12.751,0,23.126,10.374,23.126,23.126v44.803H15.208V79.746c0-12.752,10.371-23.126,23.117-23.126h349.536
			c4.2,0,7.604-3.405,7.604-7.604s-3.404-7.604-7.604-7.604H38.325C17.192,41.412,0,58.608,0,79.746v352.51
			c0,21.138,17.192,38.334,38.325,38.334h435.342c21.138,0,38.334-17.196,38.334-38.334V79.746
			C512,58.608,494.804,41.412,473.666,41.412z M496.792,432.254c0,12.753-10.374,23.127-23.126,23.127H38.325
			c-12.746,0-23.117-10.374-23.117-23.126V252.377h14.438c12.556,0,23.753-8.426,27.227-20.491l4.943-17.158
			c1.611-5.589,6.798-9.494,12.613-9.494h38.962c5.816,0,11.004,3.903,12.613,9.493l4.943,17.158
			c3.475,12.065,14.673,20.491,27.227,20.491h338.618V432.254z M496.792,237.169H158.177c-5.817,0-11.004-3.904-12.613-9.494
			l-4.943-17.158c-3.475-12.065-14.673-20.491-27.227-20.491H74.431c-12.555,0-23.751,8.426-27.227,20.491l-4.943,17.158
			c-1.61,5.589-6.797,9.494-12.613,9.494H15.208v-97.413h481.584V237.169z"/>
	</g>
</g>
<g>
	<g>
		<path d="M260.228,221.886l-3.275-11.368c-3.475-12.065-14.673-20.491-27.227-20.491h-39.513c-12.227,0-23.13,8.205-26.516,19.955
			l-3.43,11.905c-1.162,4.034,1.167,8.249,5.202,9.412c4.032,1.16,8.249-1.166,9.412-5.202l3.43-11.905
			c1.519-5.274,6.414-8.956,11.902-8.956h39.513c5.817,0,11.004,3.903,12.613,9.493l3.275,11.368
			c0.96,3.333,4.001,5.501,7.303,5.501c0.698,0,1.406-0.096,2.109-0.299C259.061,230.135,261.39,225.921,260.228,221.886z"/>
	</g>
</g>
<g>
	<g>
		<path d="M379.609,221.886l-3.275-11.368c-3.476-12.065-14.673-20.491-27.227-20.491h-38.966c-12.556,0-23.753,8.426-27.227,20.491
			l-3.275,11.368c-1.162,4.034,1.167,8.249,5.202,9.412c4.033,1.16,8.249-1.166,9.412-5.202l3.275-11.368
			c1.61-5.589,6.797-9.493,12.613-9.493h38.966c5.817,0,11.004,3.903,12.613,9.493l3.275,11.368c0.96,3.333,4.001,5.501,7.303,5.501
			c0.698,0,1.406-0.096,2.109-0.299C378.442,230.135,380.771,225.921,379.609,221.886z"/>
	</g>
</g>
<g>
	<g>
		<path d="M169.18,276.887H62.75c-13.003,0-23.581,10.579-23.581,23.58v36.502c0,4.199,3.404,7.604,7.604,7.604
			s7.604-3.405,7.604-7.604v-36.501c0-4.617,3.756-8.372,8.373-8.372h106.431c4.617,0,8.373,3.756,8.373,8.372v95.026
			c0,4.617-3.756,8.373-8.373,8.373H62.75c-4.617,0-8.374-3.756-8.374-8.373v-33.176c0-4.199-3.404-7.604-7.604-7.604
			s-7.604,3.405-7.604,7.604v33.176c0,13.003,10.579,23.581,23.581,23.581h106.431c13.003,0,23.581-10.579,23.581-23.581v-95.026
			C192.761,287.466,182.183,276.887,169.18,276.887z"/>
	</g>
</g>
<g>
	<g>
		<path d="M449.554,398.797H325.958c-4.2,0-7.604,3.405-7.604,7.604s3.404,7.604,7.604,7.604h123.596c4.2,0,7.604-3.405,7.604-7.604
			S453.755,398.797,449.554,398.797z"/>
	</g>
</g>
<g>
	<g>
		<path d="M300.61,398.797h-64.763c-4.2,0-7.604,3.405-7.604,7.604s3.404,7.604,7.604,7.604h64.763c4.2,0,7.604-3.405,7.604-7.604
			S304.81,398.797,300.61,398.797z"/>
	</g>
</g>
<g>
	<g>
		<path d="M449.554,360.272H235.846c-4.2,0-7.604,3.405-7.604,7.604s3.404,7.604,7.604,7.604h213.708c4.2,0,7.604-3.405,7.604-7.604
			S453.755,360.272,449.554,360.272z"/>
	</g>
</g>
<g>
	<g>
		<path d="M449.554,321.747h-26.265c-4.2,0-7.604,3.405-7.604,7.604s3.404,7.604,7.604,7.604h26.265c4.2,0,7.604-3.405,7.604-7.604
			S453.755,321.747,449.554,321.747z"/>
	</g>
</g>
<g>
	<g>
		<path d="M397.941,321.747H235.846c-4.2,0-7.604,3.405-7.604,7.604s3.404,7.604,7.604,7.604h162.094c4.2,0,7.604-3.405,7.604-7.604
			S402.141,321.747,397.941,321.747z"/>
	</g>
</g>
<g>
	<g>
		<path d="M449.554,283.223H235.846c-4.2,0-7.604,3.405-7.604,7.604s3.404,7.604,7.604,7.604h213.708c4.2,0,7.604-3.405,7.604-7.604
			S453.755,283.223,449.554,283.223z"/>
	</g>
</g>
<g>
	<g>
		<path d="M60.325,63.717c-14.815,0-26.867,12.053-26.867,26.867c0,14.815,12.053,26.867,26.867,26.867
			c14.815,0,26.867-12.052,26.867-26.867S75.139,63.717,60.325,63.717z M60.325,102.243c-6.429,0-11.659-5.229-11.659-11.659
			c0-6.43,5.231-11.659,11.659-11.659s11.659,5.23,11.659,11.659S66.754,102.243,60.325,102.243z"/>
	</g>
</g>
<g>
	<g>
		<path d="M180.977,63.717c-14.815,0-26.867,12.053-26.867,26.867c0,14.815,12.053,26.867,26.867,26.867
			c14.815,0,26.867-12.053,26.867-26.867C207.845,75.769,195.792,63.717,180.977,63.717z M180.977,102.243
			c-6.429,0-11.659-5.231-11.659-11.659s5.23-11.659,11.659-11.659s11.659,5.23,11.659,11.659S187.406,102.243,180.977,102.243z"/>
	</g>
</g>
<g>
	<g>
		<path d="M120.652,63.717c-14.815,0-26.867,12.053-26.867,26.867c0,14.815,12.053,26.867,26.867,26.867
			c14.815,0,26.867-12.053,26.867-26.867C147.519,75.769,135.466,63.717,120.652,63.717z M120.652,102.243
			c-6.429,0-11.659-5.231-11.659-11.659s5.231-11.659,11.659-11.659s11.659,5.23,11.659,11.659S127.08,102.243,120.652,102.243z"/>
	</g>
</g>
<g>
	<g>
		<path d="M145.678,324.833c-0.237,0-0.444-0.153-0.513-0.38l-1.589-5.298c-2.013-6.711-8.072-11.219-15.078-11.219h-25.065
			c-7.007,0-13.067,4.509-15.079,11.219l-1.589,5.298c-0.068,0.228-0.275,0.38-0.512,0.38c-8.681,0-15.742,7.062-15.742,15.742
			v31.712c0,8.681,7.063,15.742,15.742,15.742h59.424c8.681,0,15.742-7.062,15.742-15.742v-31.712
			C161.42,331.894,154.357,324.833,145.678,324.833z M115.964,367.751c-5.286,0-9.586-4.301-9.586-9.586
			c0-5.285,4.3-9.586,9.586-9.586c5.286,0,9.586,4.3,9.586,9.586S121.251,367.751,115.964,367.751z M146.211,372.286
			c0,0.295-0.239,0.534-0.534,0.534h-9.73c3.021-4.108,4.812-9.176,4.812-14.655c0-13.671-11.123-24.794-24.794-24.794
			c-13.671,0-24.794,11.122-24.794,24.794c0,5.48,1.79,10.547,4.812,14.655h-9.729c-0.296,0-0.535-0.239-0.535-0.534v-31.712
			c0-0.295,0.239-0.534,0.534-0.534c7.006,0,13.066-4.509,15.078-11.219l1.589-5.298c0.067-0.224,0.278-0.38,0.513-0.38h25.065
			c0.237,0,0.444,0.153,0.512,0.38l1.589,5.298c0,0,0,0.001,0,0.002c2.015,6.71,8.074,11.217,15.079,11.217
			c0.295,0,0.534,0.239,0.534,0.534V372.286z"/>
	</g>
</g>
<g>
</g>
<g>
</g>
<g>
</g>
<g>
</g>
<g>
</g>
<g>
</g>
<g>
</g>
<g>
</g>
<g>
</g>
<g>
</g>
<g>
</g>
<g>
</g>
<g>
</g>
<g>
</g>
<g>
</g>
</svg>
