<?xml version="1.0" encoding="iso-8859-1"?>
<!-- Generator: Adobe Illustrator 19.0.0, SVG Export Plug-In . SVG Version: 6.00 Build 0)  -->
<svg version="1.1" id="Capa_1" xmlns="http://www.w3.org/2000/svg" xmlns:xlink="http://www.w3.org/1999/xlink" x="0px" y="0px"
	 viewBox="0 0 512 512" style="enable-background:new 0 0 512 512;" xml:space="preserve">
<g>
	<g>
		<g>
			<path d="M469.333,21.333H42.667C19.146,21.333,0,40.469,0,64v298.667c0,23.531,19.146,42.667,42.667,42.667h149.381
				c-0.448,17.018-3.698,44.24-15.902,57.094c-4.479,4.708-9.604,6.906-16.146,6.906c-5.896,0-10.667,4.771-10.667,10.667
				c0,5.896,4.771,10.667,10.667,10.667h192c5.896,0,10.667-4.771,10.667-10.667c0-5.896-4.771-10.667-10.667-10.667
				c-6.542,0-11.667-2.188-16.125-6.896c-12.174-12.79-15.445-40.051-15.91-57.104h149.369c23.521,0,42.667-19.135,42.667-42.667V64
				C512,40.469,492.854,21.333,469.333,21.333z M197.729,469.333c12.874-19.749,15.375-48.188,15.694-64h85.155
				c0.319,15.813,2.819,44.251,15.693,64H197.729z M490.667,362.667c0,11.76-9.563,21.333-21.333,21.333H42.667
				c-11.771,0-21.333-9.573-21.333-21.333V320h469.333V362.667z M490.667,298.667H21.333V64c0-11.76,9.563-21.333,21.333-21.333
				h426.667c11.771,0,21.333,9.573,21.333,21.333V298.667z"/>
			<circle cx="256" cy="352" r="21.333"/>
			<path d="M160,85.333H74.667C68.771,85.333,64,90.104,64,96v64c0,5.896,4.771,10.667,10.667,10.667H160
				c5.896,0,10.667-4.771,10.667-10.667V96C170.667,90.104,165.896,85.333,160,85.333z M149.333,149.333h-64v-42.667h64V149.333z"/>
			<path d="M298.667,85.333h-85.333c-5.896,0-10.667,4.771-10.667,10.667v64c0,5.896,4.771,10.667,10.667,10.667h85.333
				c5.896,0,10.667-4.771,10.667-10.667V96C309.333,90.104,304.563,85.333,298.667,85.333z M288,149.333h-64v-42.667h64V149.333z"/>
			<path d="M437.333,85.333H352c-5.896,0-10.667,4.771-10.667,10.667v64c0,5.896,4.771,10.667,10.667,10.667h85.333
				c5.896,0,10.667-4.771,10.667-10.667V96C448,90.104,443.229,85.333,437.333,85.333z M426.667,149.333h-64v-42.667h64V149.333z"/>
			<path d="M160,192H74.667C68.771,192,64,196.771,64,202.667v64c0,5.896,4.771,10.667,10.667,10.667H160
				c5.896,0,10.667-4.771,10.667-10.667v-64C170.667,196.771,165.896,192,160,192z M149.333,256h-64v-42.667h64V256z"/>
			<path d="M298.667,192h-85.333c-5.896,0-10.667,4.771-10.667,10.667v64c0,5.896,4.771,10.667,10.667,10.667h85.333
				c5.896,0,10.667-4.771,10.667-10.667v-64C309.333,196.771,304.563,192,298.667,192z M288,256h-64v-42.667h64V256z"/>
			<path d="M437.333,192H352c-5.896,0-10.667,4.771-10.667,10.667v64c0,5.896,4.771,10.667,10.667,10.667h85.333
				c5.896,0,10.667-4.771,10.667-10.667v-64C448,196.771,443.229,192,437.333,192z M426.667,256h-64v-42.667h64V256z"/>
		</g>
	</g>
</g>
<g>
</g>
<g>
</g>
<g>
</g>
<g>
</g>
<g>
</g>
<g>
</g>
<g>
</g>
<g>
</g>
<g>
</g>
<g>
</g>
<g>
</g>
<g>
</g>
<g>
</g>
<g>
</g>
<g>
</g>
</svg>
