<?xml version="1.0" encoding="iso-8859-1"?>
<!-- Generator: Adobe Illustrator 19.0.0, SVG Export Plug-In . SVG Version: 6.00 Build 0)  -->
<svg version="1.1" id="Capa_1" xmlns="http://www.w3.org/2000/svg" xmlns:xlink="http://www.w3.org/1999/xlink" x="0px" y="0px"
	 viewBox="0 0 512 512" style="enable-background:new 0 0 512 512;" xml:space="preserve">
<g>
	<g>
		<path d="M458.667,0h-160v21.333h160c17.673,0,32,14.327,32,32v405.333c0,17.673-14.327,32-32,32H53.333c-17.673,0-32-14.327-32-32
			V53.333c0-17.673,14.327-32,32-32h32V0h-32C23.893,0.035,0.035,23.893,0,53.333v405.333C0.035,488.107,23.893,511.965,53.333,512
			h405.333c29.441-0.035,53.298-23.893,53.333-53.333V53.333C511.965,23.893,488.107,0.035,458.667,0z"/>
	</g>
</g>
<g>
	<g>
		<rect x="298.667" y="85.333" width="170.667" height="21.333"/>
	</g>
</g>
<g>
	<g>
		<rect x="42.667" y="85.333" width="42.667" height="21.333"/>
	</g>
</g>
<g>
	<g>
		<rect x="437.333" y="42.667" width="21.333" height="21.333"/>
	</g>
</g>
<g>
	<g>
		<path d="M245.333,10.667v294.251l-45.792-45.792c-4.165-4.164-10.917-4.164-15.083,0l-45.792,45.792V10.667h-21.333v320
			c0.001,2.828,1.124,5.539,3.123,7.539c4.165,4.166,10.919,4.167,15.085,0.002L192,281.749l56.459,56.459
			c2,2.001,4.713,3.125,7.541,3.125c1.402,0.005,2.791-0.271,4.085-0.811c3.985-1.652,6.582-5.542,6.581-9.856v-320H245.333z"/>
	</g>
</g>
<g>
	<g>
		<rect x="181.333" y="138.667" width="21.333" height="128"/>
	</g>
</g>
<g>
	<g>
		<rect x="181.333" y="96" width="21.333" height="21.333"/>
	</g>
</g>
<g>
	<g>
		<path d="M448,138.667H298.667V160H448v277.333H64V160h21.333v-21.333H64c-11.782,0-21.333,9.551-21.333,21.333v277.333
			c0,11.782,9.551,21.333,21.333,21.333h384c11.782,0,21.333-9.551,21.333-21.333V160C469.333,148.218,459.782,138.667,448,138.667z
			"/>
	</g>
</g>
<g>
</g>
<g>
</g>
<g>
</g>
<g>
</g>
<g>
</g>
<g>
</g>
<g>
</g>
<g>
</g>
<g>
</g>
<g>
</g>
<g>
</g>
<g>
</g>
<g>
</g>
<g>
</g>
<g>
</g>
</svg>
