<?xml version="1.0" encoding="iso-8859-1"?>
<!-- Generator: Adobe Illustrator 19.0.0, SVG Export Plug-In . SVG Version: 6.00 Build 0)  -->
<svg xmlns="http://www.w3.org/2000/svg" xmlns:xlink="http://www.w3.org/1999/xlink" version="1.1" id="Layer_1" x="0px" y="0px" viewBox="0 0 512 512" style="enable-background:new 0 0 512 512;" xml:space="preserve" width="512" height="512">
<g>
	<path d="M139.601,400.077c-4.142,0-7.5,3.358-7.5,7.5v15.598c0,4.142,3.358,7.5,7.5,7.5s7.5-3.358,7.5-7.5v-15.598   C147.101,403.435,143.743,400.077,139.601,400.077z"/>
	<path d="M311.967,400.077c-4.142,0-7.5,3.358-7.5,7.5v15.598c0,4.142,3.358,7.5,7.5,7.5s7.5-3.358,7.5-7.5v-15.598   C319.467,403.435,316.109,400.077,311.967,400.077z"/>
	<path d="M251.99,416.443c-3.118-2.726-7.856-2.408-10.583,0.711c-3.803,4.351-9.498,6.847-15.624,6.847   c-6.125,0-11.82-2.496-15.624-6.847c-2.727-3.118-7.464-3.437-10.583-0.711s-3.437,7.464-0.711,10.583   c6.653,7.61,16.464,11.975,26.918,11.975c10.455,0,20.266-4.365,26.918-11.976C255.428,423.906,255.109,419.169,251.99,416.443z"/>
	<path d="M393.791,143.325c4.449,0,10.75-2.41,10.75-8.156c0-22.057,2.595-53.752,2.595-75.809c0-7.229-6.117-11.306-13.346-11.306   c-7.599,0-13.53,4.077-13.53,11.306c0,22.057,2.594,53.752,2.594,75.809C382.855,140.915,387.86,143.325,393.791,143.325z"/>
	<path d="M393.976,184.658c7.6,0,14.087-6.673,14.087-14.272c0-7.785-6.487-14.272-14.087-14.272   c-8.155,0-14.272,6.487-14.272,14.272C379.704,177.985,385.821,184.658,393.976,184.658z"/>
	<path d="M484.392,58.233c-3.533,2.162-4.645,6.778-2.483,10.312C491.781,84.681,497,103.262,497,122.277   c0,25.793-9.571,50.479-26.951,69.509c-15.862,17.368-37.911,29.18-61.387,32.551c-3.289,0.472-6.96,0.257-9.44,2.85   l-34.302,35.854l-1.284-37.017c-0.106-3.059-2.06-5.746-4.937-6.79c-6.251-2.269-12.283-5.152-17.977-8.588   c-0.028-0.017-0.056-0.034-0.084-0.051c-30.455-18.424-49.872-51.849-49.872-88.318c0-56.859,46.258-103.117,103.116-103.117   c26.148,0,51.089,9.809,70.227,27.62c3.032,2.822,7.778,2.652,10.6-0.381c2.822-3.032,2.651-7.778-0.381-10.6   c-21.923-20.403-50.493-31.64-80.446-31.64c-65.129,0-118.116,52.987-118.116,118.117c0,7.3,0.688,14.492,1.995,21.506H38.719   C17.369,143.783,0,161.152,0,182.502v156.834c0,4.142,3.358,7.5,7.5,7.5s7.5-3.358,7.5-7.5V197.462l150.983,112.731L15,451.804   v-82.468c0-4.142-3.358-7.5-7.5-7.5s-7.5,3.358-7.5,7.5v99.786c0,21.35,17.369,38.719,38.719,38.719h374.13   c21.35,0,38.719-17.369,38.719-38.719V225.365c10.934-6.127,20.926-14.013,29.557-23.464C501.035,180.101,512,151.823,512,122.277   c0-21.779-5.981-43.067-17.296-61.561C492.542,57.182,487.925,56.069,484.392,58.233z M38.719,158.783h242.817   c9.733,29.99,31.113,54.796,59.078,68.936c2.684,1.358,5.422,2.62,8.202,3.768l0.432,12.45c0,0-100.501,75.037-100.559,75.08   c-13.897,10.376-32.793,9.716-46.525-0.533L27.427,188.02l-12.161-9.08C16.99,167.545,26.85,158.783,38.719,158.783z    M412.849,492.84H38.719c-12.041,0-22.015-9.018-23.522-20.655l162.995-152.877c0,0,15.705,11.723,15.71,11.727   c18.694,13.954,45.07,13.964,63.762,0.001l15.712-11.728l162.995,152.877C434.863,483.822,424.89,492.84,412.849,492.84z    M436.567,232.44v219.364L285.584,310.193l64.296-48.007c0,0,0.663,19.121,0.664,19.156c0.224,6.456,8.425,9.62,12.915,4.925   l44.71-46.734c0.034-0.004,0.068-0.01,0.103-0.014c9.57-1.162,19.038-3.511,28.033-6.981   C436.392,232.504,436.48,232.474,436.567,232.44z"/>
</g>















</svg>
